<svg width="312" height="217" viewBox="0 0 312 217" fill="none" xmlns="http://www.w3.org/2000/svg">
<path d="M257.391 146.13C276.595 146.13 292.164 161.698 292.164 180.905C292.164 200.109 276.597 215.679 257.391 215.679C238.187 215.679 222.615 200.111 222.615 180.905C222.615 168.965 228.634 158.431 237.799 152.169L243.018 162.421C237.513 166.705 233.976 173.391 233.976 180.905C233.976 193.836 244.458 204.32 257.391 204.32C270.323 204.32 280.806 193.836 280.806 180.905C280.806 167.973 270.323 157.491 257.391 157.491C256.172 157.491 254.975 157.584 253.806 157.761L249.214 147.098C251.837 146.465 254.574 146.13 257.391 146.13Z" fill="#203156"/>
<path d="M257.391 157.49C270.324 157.49 280.806 167.972 280.806 180.905C280.806 193.836 270.324 204.32 257.391 204.32C244.459 204.32 233.977 193.836 233.977 180.905C233.977 173.391 237.516 166.704 243.019 162.42L247.678 171.576C245.354 173.995 243.924 177.282 243.924 180.903C243.924 188.339 249.954 194.367 257.39 194.367C264.825 194.367 270.855 188.339 270.855 180.903C270.855 173.662 265.141 167.758 257.979 167.451L253.805 157.759C254.976 157.584 256.173 157.49 257.391 157.49Z" fill="#FEF3EC"/>
<path d="M272.089 124.408C271.598 126.218 269.966 127.369 268.214 127.369C267.695 127.369 267.166 127.267 266.652 127.051C250.802 120.362 239.397 121.744 231.247 126.482L215.521 96.0416C218.823 94.4458 222.794 95.7451 224.516 98.9824L230.564 110.358C232.045 113.139 235.128 114.676 238.241 114.179L239.91 113.913C251.699 112.034 263.674 115.939 272.089 124.408Z" fill="#FEF3EC"/>
<path d="M257.98 167.454C265.143 167.762 270.856 173.665 270.856 180.906C270.856 188.342 264.826 194.37 257.391 194.37C249.956 194.37 243.926 188.342 243.926 180.906C243.926 177.285 245.355 173.998 247.679 171.579L252.377 180.806C253.297 182.614 255.129 183.657 257.03 183.657C257.804 183.657 258.591 183.483 259.333 183.119C261.825 181.893 262.921 178.925 261.821 176.372L257.98 167.454Z" fill="#FEF3EC"/>
<path d="M201.875 81.6006C201.531 80.9217 200.838 80.5209 200.111 80.5227L200.109 80.3946C200.689 79.7322 202.179 75.1425 200.455 72.7214C202.327 72.5915 203.998 73.3125 205.449 76.0502L215.523 96.0393L231.249 126.48L240.616 144.611L241.412 144.22C244.357 142.77 247.916 144.082 249.216 147.096L253.807 157.76L257.981 167.451L261.822 176.369C262.922 178.922 261.826 181.888 259.334 183.116C258.593 183.48 257.806 183.654 257.032 183.654C255.13 183.654 253.298 182.611 252.378 180.803L247.68 171.576L243.021 162.421L237.802 152.169L226.474 129.92L220.651 118.479H220.649L213.564 104.56L201.875 81.6006Z" fill="#FEF3EC"/>
<path d="M220.65 118.479H220.652L226.475 129.921C219.107 136.353 215.246 145.53 213.387 151.5C212.832 153.279 211.736 154.777 210.312 155.832C208.888 156.884 207.135 157.493 205.272 157.493L204.603 156.792L188.477 139.889L193.877 120.448C194.193 119.369 194.398 118.287 194.499 117.215L220.65 118.479Z" fill="#FEF3EC"/>
<path d="M187.951 160.26C187.947 160.253 187.945 160.246 187.941 160.238C187.888 160.125 187.832 160.011 187.775 159.898C187.918 159.892 188.064 159.889 188.209 159.889C193.779 159.889 198.294 164.403 198.294 169.97C198.294 175.541 193.779 180.055 188.209 180.055C185.914 180.055 183.8 179.29 182.107 178C186.359 175.715 189.25 171.224 189.25 166.058C189.25 164.191 188.873 162.414 188.19 160.796C188.113 160.613 188.031 160.434 187.951 160.26Z" fill="#203156"/>
<path d="M190.793 105.012C194.296 102.525 198.669 101.59 202.882 102.432L213.565 104.56L220.651 118.479L194.501 117.213C194.921 112.706 193.494 108.358 190.793 105.012Z" fill="#FEF3EC"/>
<path d="M188.114 73.7816L191.403 75.4762C190.971 75.2804 190.501 75.1541 190.003 75.1047C187.547 74.8613 185.364 76.6565 185.12 79.1087C185.031 80.0256 185.225 80.9058 185.631 81.6579C170.634 80.8966 159.508 78.159 151.262 74.6033L151.992 73.2838L159.356 64.2217C165.785 67.631 174.327 70.903 185.618 73.2802C185.622 73.282 185.625 73.2838 185.631 73.2838C186.107 73.3827 186.586 73.4833 187.073 73.5785H187.075C187.417 73.6462 187.765 73.7139 188.114 73.7816Z" fill="#FEF3EC"/>
<path d="M188.185 160.794C188.868 162.412 189.245 164.189 189.245 166.056C189.245 171.222 186.354 175.713 182.103 177.998C181.757 178.185 181.402 178.357 181.037 178.514L180.909 178.534C180.827 178.011 180.6 177.499 180.218 177.059L174.018 169.932L174.023 169.904H174.025L182.928 172.649C184.831 173.237 186.754 171.811 186.754 169.824C186.754 169.816 186.754 169.809 186.754 169.802C186.74 167.82 184.818 166.414 182.924 166.998L174.067 169.73L176.164 161.362L176.53 159.903L182.855 161.362L184.306 155.808C185.817 156.995 187.06 158.505 187.933 160.238C187.937 160.245 187.938 160.253 187.942 160.26C188.028 160.434 188.11 160.613 188.185 160.794Z" fill="#FEF3EC"/>
<path d="M179.908 181.249C180.704 180.576 181.067 179.533 180.909 178.535L181.037 178.515C181.401 178.358 181.757 178.186 182.102 177.999C183.795 179.289 185.911 180.054 188.204 180.054C193.774 180.054 198.289 175.54 198.289 169.969C198.289 164.401 193.774 159.888 188.204 159.888C188.059 159.888 187.913 159.891 187.77 159.897C186.928 158.254 185.762 156.804 184.357 155.633L188.474 139.888L204.6 156.791L204.392 157.492L196.045 185.396L181.621 184.529L179.908 181.249Z" fill="#FEF3EC"/>
<path d="M176.17 161.36L155.035 159.727L155.906 156.829L156.38 155.253L176.536 159.903L176.17 161.36Z" fill="#203156"/>
<path d="M175.052 179.348L173.941 169.955L174.011 169.973L174.02 169.933L180.22 177.06C180.603 177.5 180.83 178.012 180.912 178.535C181.069 179.533 180.707 180.576 179.911 181.249C179.706 181.427 179.472 181.575 179.208 181.696C178.807 181.877 178.396 181.961 177.991 181.961C176.553 181.961 175.235 180.898 175.052 179.348Z" fill="#FEF3EC"/>
<path d="M164.736 122.918L162.14 131.977L149.741 129.971L146.837 129.503L146.832 129.501H146.828L116.229 116.852V113.915V110.919L122.623 111.137C126.753 116.257 132.852 119.78 139.916 120.475L164.736 122.918Z" fill="#203156"/>
<path d="M157.567 12.7226C159.865 18.7341 159.75 25.2763 159.501 28.4788L144.489 23.3713C143.653 23.0877 143.124 22.2642 143.208 21.3858C143.214 21.3217 143.218 21.2595 143.218 21.1991C143.218 20.361 142.663 19.6107 141.843 19.3728L141.324 19.2227C139.517 18.6206 138.366 16.8474 138.553 14.9515C138.76 12.8452 140.537 11.2695 142.61 11.2695C142.744 11.2695 142.879 11.275 143.015 11.2897L157.567 12.7226Z" fill="#FEF3EC"/>
<path d="M144.489 23.3692L159.5 28.4767C159.405 29.7321 159.288 30.4732 159.288 30.4732L154.9 38.011L147.087 35.0922H147.085L129.863 28.6597V28.6579L128.161 28.0229C126.139 24.9558 125.352 19.4457 125.74 15.5075C126.641 6.37762 134.77 -0.294549 143.898 0.605811C151.501 2.35346 155.507 7.3274 157.566 12.7241L143.016 11.2912C142.88 11.2765 142.745 11.271 142.611 11.271C140.538 11.271 138.763 12.8467 138.554 14.953C138.367 16.8489 139.518 18.624 141.325 19.2242L141.844 19.3743C142.664 19.6104 143.219 20.3625 143.219 21.2006C143.219 21.2629 143.215 21.3232 143.21 21.3873C143.124 22.262 143.652 23.0874 144.489 23.3692Z" fill="#FEF3EC"/>
<path d="M159.356 64.2176L151.992 73.2797L157.554 63.2275C158.135 63.5606 158.734 63.89 159.356 64.2176Z" fill="#203156"/>
<path d="M162.664 183.388L158.984 182.265L149.166 179.267L150.657 174.3L152.508 168.137L152.883 166.889L153.457 164.977L173.939 169.952L175.05 179.346C175.233 180.896 176.55 181.959 177.987 181.959C178.391 181.959 178.803 181.875 179.204 181.694C179.467 181.575 179.701 181.425 179.906 181.247L181.621 184.525L184.514 190.055L162.664 183.388Z" fill="#FEF3EC"/>
<path d="M157.556 63.2298L151.995 73.282L151.265 74.6014C149.929 74.0268 148.67 73.4266 147.48 72.8135L147.932 72.4988L154.277 61.2314C154.993 61.6999 155.745 62.1666 156.533 62.6351C156.867 62.8345 157.207 63.0322 157.556 63.2298Z" fill="#FBD3B9"/>
<path d="M154.944 59.406L154.022 60.8682L153.931 61.0072C143.587 54.1576 140.939 47.7032 140.939 47.7032C141.417 47.7654 141.913 47.8184 142.422 47.8642L141.979 46.252C141.979 46.252 145.749 52.5636 154.944 59.406Z" fill="#F1842E"/>
<path d="M154.276 61.2316C154.16 61.1584 154.045 61.0816 153.932 61.0065L154.023 60.8675L154.945 59.4053C155.74 59.9945 156.572 60.5893 157.449 61.184L156.532 62.6352C155.743 62.1686 154.989 61.7001 154.276 61.2316Z" fill="#FBD3B9"/>
<path d="M155.905 156.828L155.034 159.727L153.46 164.977L152.884 166.888L152.792 166.861L150.281 160.622L155.779 156.79L155.905 156.828Z" fill="#FEF3EC"/>
<path d="M152.507 168.137L152.422 168.111L141.195 171.083C139.358 164.828 135.811 159.309 131.094 155.06L147 152.434L147.013 152.503L150.279 160.623L152.79 166.861L152.882 166.889L152.507 168.137Z" fill="#FEF3EC"/>
<path d="M152.509 168.137L150.659 174.3L150.621 174.287L142.327 176.483L131.197 179.428L121.245 182.061L109.574 185.15C108.144 185.529 106.669 184.711 106.234 183.298C106.15 183.028 106.111 182.755 106.111 182.488C106.111 181.271 106.924 180.153 108.165 179.821L120.572 176.54L130.205 173.991L141.198 171.081L152.425 168.109L152.509 168.137Z" fill="#FEF3EC"/>
<path d="M133.315 32.9203C131.97 31.7454 130.806 30.3034 129.863 28.6582L147.085 35.0906C145.063 35.9965 142.873 36.3936 140.633 36.1685C140.589 36.1649 140.547 36.1594 140.503 36.1539C140.335 36.1356 140.163 36.1136 139.991 36.0862C137.727 35.7421 135.655 34.7905 133.873 33.3833C133.686 33.235 133.499 33.0795 133.315 32.9203Z" fill="#FEF3EC"/>
<path d="M146.831 129.499H146.835L146.84 129.501L149.745 129.969L149.993 130.806L155.99 150.949L147.005 152.433L131.099 155.059C124.937 149.508 116.779 146.13 107.834 146.13C106.782 146.13 105.74 146.176 104.714 146.267L103.751 140.027L100.982 122.084L146.831 129.499Z" fill="#FEF3EC"/>
<path d="M146.829 129.5L100.981 122.085L88.4578 120.692L80.5559 119.787H63.3887V114.031H100.981V113.914H116.23V116.851L146.829 129.5Z" fill="#FEF3EC"/>
<path d="M146.352 95.5638L117.111 92.6834C117.111 92.6834 107.716 70.2549 127.976 42.5615C127.976 42.5615 131.824 46.529 140.938 47.702C140.938 47.702 143.586 54.1564 153.929 61.0061C154.042 61.0811 154.157 61.158 154.273 61.2312L147.928 72.4985L147.476 72.8133C146.761 72.4454 146.074 72.0703 145.412 71.6915C143.055 82.7977 145.749 93.4209 146.352 95.5638Z" fill="#F1842E"/>
<path d="M141.976 46.2517L142.419 47.8639C141.912 47.8182 141.416 47.7651 140.937 47.7029C131.823 46.5299 127.975 42.5624 127.975 42.5624L130.328 38.8164C130.328 38.8164 130.734 39.1385 131.516 39.6161C132.85 40.4341 135.285 41.7078 138.675 42.6008C139.441 42.8021 140.258 42.9851 141.121 43.1407L141.976 46.2517Z" fill="#BF5117"/>
<path d="M142.328 176.484C142.511 177.932 142.606 179.407 142.606 180.905C142.606 200.109 127.038 215.679 107.83 215.679C88.6263 215.679 73.0566 200.111 73.0566 180.905C73.0566 162.75 86.9665 147.846 104.71 146.267C105.739 146.176 106.78 146.13 107.83 146.13C116.775 146.13 124.933 149.51 131.095 155.058C135.813 159.306 139.359 164.827 141.197 171.082L130.204 173.992C127.256 164.435 118.353 157.491 107.828 157.491C94.8958 157.491 84.4136 167.973 84.4136 180.905C84.4136 193.836 94.8958 204.32 107.828 204.32C120.761 204.32 131.243 193.836 131.243 180.905C131.243 180.409 131.227 179.917 131.196 179.43L142.328 176.484Z" fill="#203156"/>
<path d="M140.505 36.1555L139.877 38.8181C134.12 37.8757 132.939 34.3273 132.939 34.3273L133.316 32.9219C133.499 33.0811 133.686 33.2366 133.876 33.3867C135.659 34.7921 137.73 35.7437 139.994 36.0896C140.164 36.1152 140.334 36.1372 140.505 36.1555Z" fill="#203156"/>
<path d="M139.877 38.8171L139.048 42.3417L138.677 42.6034C135.287 41.7085 132.852 40.4367 131.518 39.6187L132.05 37.6349H132.052L132.939 34.3281C132.939 34.3263 134.12 37.8747 139.877 38.8171Z" fill="#FEF3EC"/>
<path d="M131.198 179.43C131.229 179.919 131.246 180.409 131.246 180.905C131.246 193.836 120.763 204.32 107.831 204.32C94.8983 204.32 84.416 193.836 84.416 180.905C84.416 167.972 94.8983 157.49 107.831 157.49C118.355 157.49 127.258 164.435 130.206 173.991L120.573 176.541C118.76 171.246 113.74 167.44 107.831 167.44C100.396 167.44 94.3676 173.468 94.3676 180.905C94.3676 188.34 100.396 194.368 107.831 194.368C114.878 194.368 120.661 188.955 121.247 182.062L131.198 179.43Z" fill="#FEF3EC"/>
<path d="M109.574 185.152L121.246 182.063C120.661 188.957 114.878 194.37 107.83 194.37C100.395 194.37 94.3672 188.342 94.3672 180.907C94.3672 173.469 100.395 167.441 107.83 167.441C113.741 167.441 118.759 171.248 120.573 176.542L108.165 179.823C106.925 180.154 106.112 181.273 106.112 182.489C106.112 182.757 106.152 183.029 106.235 183.3C106.672 184.711 108.145 185.531 109.574 185.152Z" fill="#FEF3EC"/>
<path d="M193.876 120.447L188.475 139.887L184.358 155.633L184.312 155.807L182.861 161.361L176.536 159.902L156.379 155.252L155.327 155.009L156.233 151.852L156.459 151.087L162.142 131.974L164.738 122.916L139.918 120.473C132.854 119.777 126.755 116.255 122.625 111.134C119.08 106.741 116.986 101.17 116.986 95.2024C116.986 94.3697 117.027 93.528 117.109 92.6807L146.351 95.5611L179.272 98.8057C184.023 99.2741 188.058 101.631 190.788 105.011C193.491 108.356 194.917 112.705 194.496 117.212C194.399 118.286 194.192 119.368 193.876 120.447Z" fill="#FEF3EC"/>
<path d="M100.982 122.085L103.749 140.028L91.1765 134.068L88.459 120.692L100.982 122.085Z" fill="#FEF3EC"/>
<path d="M100.981 113.913V114.03H63.3892H16.8633V49.8848H100.981V113.913Z" fill="#FEF3EC"/>
<path d="M88.4586 120.692L91.1761 134.067L82.4617 129.981L80.5566 119.786L88.4586 120.692Z" fill="#203156"/>
<path d="M257.391 194.827C249.715 194.827 243.469 188.581 243.469 180.906C243.469 177.292 244.847 173.868 247.35 171.262L248.011 171.895C245.672 174.329 244.384 177.53 244.384 180.906C244.384 188.078 250.22 193.912 257.391 193.912C264.565 193.912 270.399 188.078 270.399 180.906C270.399 173.917 264.935 168.209 257.961 167.911L257.999 166.996C265.465 167.316 271.312 173.425 271.312 180.904C271.316 188.583 265.068 194.827 257.391 194.827Z" fill="#203156"/>
<path d="M257.39 204.778C244.227 204.778 233.518 194.069 233.518 180.906C233.518 173.489 236.877 166.621 242.737 162.06L243.299 162.783C237.664 167.168 234.433 173.774 234.433 180.906C234.433 193.564 244.732 203.863 257.39 203.863C270.048 203.863 280.347 193.564 280.347 180.906C280.347 168.247 270.048 157.948 257.39 157.948C256.221 157.948 255.037 158.038 253.874 158.214L253.737 157.31C254.945 157.127 256.175 157.033 257.39 157.033C270.553 157.033 281.262 167.742 281.262 180.906C281.262 194.069 270.553 204.778 257.39 204.778Z" fill="#203156"/>
<path d="M257.393 216.137C237.966 216.137 222.16 200.333 222.16 180.906C222.16 169.256 227.912 158.371 237.543 151.792L238.059 152.548C228.677 158.957 223.075 169.558 223.075 180.906C223.075 199.828 238.471 215.222 257.393 215.222C276.315 215.222 291.709 199.828 291.709 180.906C291.709 161.984 276.315 146.588 257.393 146.588C254.663 146.588 251.949 146.91 249.325 147.543L249.111 146.654C251.804 146.002 254.593 145.673 257.395 145.673C276.822 145.673 292.626 161.479 292.626 180.906C292.624 200.331 276.82 216.137 257.393 216.137Z" fill="#203156"/>
<path d="M107.831 194.827C100.154 194.827 93.9102 188.581 93.9102 180.906C93.9102 173.229 100.156 166.983 107.831 166.983C113.784 166.983 119.078 170.764 121.007 176.393L120.141 176.69C118.341 171.43 113.392 167.898 107.831 167.898C100.659 167.898 94.8252 173.734 94.8252 180.906C94.8252 188.078 100.659 193.912 107.831 193.912C111.11 193.912 114.243 192.688 116.652 190.466C119.047 188.255 120.517 185.258 120.791 182.024L121.702 182.101C121.408 185.563 119.836 188.771 117.272 191.138C114.695 193.517 111.341 194.827 107.831 194.827Z" fill="#203156"/>
<path d="M107.829 204.778C94.6662 204.778 83.957 194.069 83.957 180.906C83.957 167.742 94.6662 157.033 107.829 157.033C113.034 157.033 117.98 158.678 122.133 161.791C126.148 164.802 129.171 169.086 130.642 173.856L129.767 174.125C128.353 169.538 125.447 165.418 121.584 162.523C117.591 159.529 112.834 157.948 107.829 157.948C95.1713 157.948 84.872 168.247 84.872 180.906C84.872 193.564 95.1713 203.863 107.829 203.863C120.487 203.863 130.787 193.564 130.787 180.906C130.787 180.421 130.77 179.936 130.739 179.46L131.652 179.399C131.685 179.895 131.702 180.4 131.702 180.906C131.702 194.069 120.993 204.778 107.829 204.778Z" fill="#203156"/>
<path d="M107.831 216.137C88.4035 216.137 72.5996 200.333 72.5996 180.906C72.5996 172.045 75.9009 163.578 81.8923 157.061C87.849 150.585 95.9376 146.59 104.669 145.812C105.706 145.72 106.769 145.673 107.829 145.673C116.553 145.673 124.923 148.886 131.401 154.72C136.262 159.098 139.801 164.71 141.636 170.954L140.758 171.212C138.972 165.131 135.524 159.665 130.788 155.401C124.48 149.719 116.326 146.59 107.829 146.59C106.795 146.59 105.759 146.635 104.749 146.725C96.245 147.483 88.3669 151.373 82.5658 157.681C76.7281 164.028 73.5146 172.277 73.5146 180.908C73.5146 199.83 88.9086 215.224 107.831 215.224C126.753 215.224 142.149 199.83 142.149 180.908C142.149 179.455 142.055 177.987 141.874 176.545L142.782 176.43C142.969 177.91 143.064 179.418 143.064 180.908C143.064 200.331 127.258 216.137 107.831 216.137Z" fill="#203156"/>
<path d="M205.271 157.949H204.393V157.034H205.271C206.999 157.034 208.647 156.491 210.04 155.462C211.429 154.436 212.435 153.017 212.95 151.363C214.948 144.945 218.862 135.956 226.173 129.575L226.775 130.265C219.627 136.505 215.786 145.331 213.824 151.636C213.252 153.477 212.132 155.054 210.585 156.198C209.033 157.344 207.196 157.949 205.271 157.949Z" fill="#203156"/>
<path d="M268.219 127.826C267.62 127.826 267.035 127.707 266.478 127.471C252.631 121.628 240.857 121.427 231.481 126.877L231.022 126.086C240.659 120.484 252.708 120.667 266.835 126.63C267.28 126.818 267.745 126.911 268.22 126.911C269.736 126.911 271.079 125.947 271.575 124.536C263.296 116.327 251.509 112.528 239.987 114.365L238.318 114.63C235.015 115.159 231.738 113.529 230.166 110.571L224.117 99.1961C222.503 96.1638 218.818 94.9578 215.725 96.4511L215.326 95.6276C218.864 93.9184 223.08 95.2982 224.925 98.766L230.973 110.141C232.362 112.753 235.253 114.193 238.174 113.726L239.843 113.461C251.745 111.561 263.924 115.534 272.417 124.084L272.603 124.271L272.534 124.525C272.007 126.47 270.233 127.826 268.219 127.826Z" fill="#203156"/>
<path d="M162.638 183.844L159.042 183.628L158.561 182.437L159.41 182.095L159.675 182.75L162.693 182.931L162.638 183.844Z" fill="#203156"/>
<path d="M196.378 185.873L181.594 184.984L181.649 184.071L195.71 184.916L204.161 156.659L205.038 156.921L204.829 157.622L196.378 185.873Z" fill="#203156"/>
<path d="M152.365 167.033L146.588 152.674L147.437 152.334L153.247 166.775V166.862L152.788 166.864L152.365 167.033Z" fill="#203156"/>
<path d="M188.803 139.564L188.141 140.195L204.936 157.798L205.598 157.166L188.803 139.564Z" fill="#203156"/>
<path d="M155.525 156.402L150.027 160.234L150.551 160.985L156.048 157.153L155.525 156.402Z" fill="#203156"/>
<path d="M108.86 185.703C107.482 185.703 106.223 184.813 105.797 183.435C105.702 183.126 105.652 182.808 105.652 182.489C105.652 181.034 106.637 179.755 108.046 179.38L152.306 167.668L152.541 168.552L108.28 180.264C107.272 180.533 106.567 181.446 106.567 182.487C106.567 182.714 106.602 182.941 106.67 183.163C107.036 184.345 108.258 185.024 109.455 184.707L150.502 173.844L150.736 174.728L109.689 185.591C109.411 185.668 109.133 185.703 108.86 185.703Z" fill="#203156"/>
<path d="M187.786 160.985C187.722 160.842 187.636 160.655 187.539 160.469L188.352 160.048C188.458 160.253 188.551 160.454 188.619 160.608L187.786 160.985Z" fill="#203156"/>
<path d="M187.528 160.442C186.695 158.79 185.486 157.311 184.027 156.166C183.958 156.111 183.89 156.058 183.822 156.006L184.371 155.274C184.446 155.331 184.523 155.39 184.596 155.448C186.156 156.673 187.453 158.259 188.346 160.031L187.528 160.442Z" fill="#203156"/>
<path d="M131.17 155.512L131.02 154.61L155.401 150.584L149.303 130.103L150.181 129.841L156.574 151.318L131.17 155.512Z" fill="#203156"/>
<path d="M146.921 129.054L146.775 129.957L162.077 132.431L162.223 131.528L146.921 129.054Z" fill="#203156"/>
<path d="M104.258 146.339L100.432 121.533L146.903 129.051L146.756 129.953L101.528 122.639L105.162 146.2L104.258 146.339Z" fill="#203156"/>
<path d="M103.553 140.442L90.7745 134.383L87.8867 120.169L101.032 121.631L100.931 122.539L89.0323 121.218L91.5797 133.751L103.945 139.615L103.553 140.442Z" fill="#203156"/>
<path d="M90.9833 134.481L82.0566 130.296L79.9941 119.261L88.511 120.238L88.4085 121.147L81.1214 120.311L82.8709 129.666L91.3712 133.652L90.9833 134.481Z" fill="#203156"/>
<path d="M116.232 113.456H100.982V114.371H116.232V113.456Z" fill="#203156"/>
<path d="M80.5544 120.244H62.9297V113.914H63.8447V119.329H80.5544V120.244Z" fill="#203156"/>
<path d="M146.834 129.957H146.743L146.655 129.924L115.773 117.156V110.445L122.641 110.678L122.61 111.593L116.688 111.391V116.545L147.004 129.077L146.834 129.51V129.957Z" fill="#203156"/>
<path d="M191.052 105.386L190.523 104.64C194.114 102.091 198.65 101.122 202.967 101.983L213.651 104.111L213.472 105.008L202.788 102.879C198.716 102.069 194.44 102.982 191.052 105.386Z" fill="#203156"/>
<path d="M194.521 116.767L194.477 117.681L220.627 118.948L220.671 118.034L194.521 116.767Z" fill="#203156"/>
<path d="M101.437 114.489H16.4043V49.4287H101.435V114.489H101.437ZM17.3193 113.574H100.52V50.3437H17.3193V113.574Z" fill="#203156"/>
<path d="M182.862 161.817C182.827 161.817 182.792 161.814 182.759 161.806L156.277 155.698L155.227 155.454C155.104 155.427 155 155.348 154.936 155.24C154.872 155.132 154.855 155.002 154.89 154.882L156.025 150.956L161.707 131.844L164.152 123.316L139.877 120.926C132.917 120.242 126.664 116.865 122.272 111.421C118.572 106.835 116.533 101.074 116.533 95.2035C116.533 94.3453 116.575 93.4815 116.659 92.6379C116.685 92.3872 116.908 92.2023 117.159 92.228L146.401 95.1084L179.322 98.353C184.002 98.8141 188.201 101.078 191.15 104.727C194.026 108.288 195.379 112.739 194.958 117.259C194.854 118.371 194.639 119.489 194.319 120.578L188.921 140.011L183.306 161.477C183.25 161.682 183.065 161.817 182.862 161.817ZM156.482 154.807L182.53 160.815L188.033 139.771L193.435 120.324C193.741 119.285 193.944 118.225 194.043 117.171C194.442 112.89 193.161 108.674 190.434 105.3C187.642 101.843 183.663 99.698 179.229 99.2625L146.307 96.0179L117.525 93.1832C117.472 93.8512 117.445 94.5283 117.445 95.2035C117.445 100.867 119.41 106.423 122.98 110.848C127.217 116.1 133.248 119.358 139.963 120.018L164.783 122.461C164.918 122.474 165.041 122.547 165.116 122.659C165.193 122.771 165.215 122.912 165.176 123.041L162.58 132.1L156.672 151.985L155.9 154.673L156.482 154.807Z" fill="#203156"/>
<path d="M146.031 96.0914C146.031 96.0914 145.987 95.9523 145.914 95.6869C145.338 93.6392 142.58 82.8458 144.968 71.5986L145.863 71.789C143.52 82.8257 146.229 93.4269 146.796 95.4399C146.866 95.6869 146.906 95.8169 146.906 95.8205L146.031 96.0914Z" fill="#203156"/>
<path d="M116.687 92.8625C116.59 92.6301 114.302 87.0614 114.485 78.001C114.593 72.6904 115.537 67.2846 117.292 61.9373C119.485 55.2596 122.952 48.6515 127.602 42.2959L128.342 42.8358C123.758 49.1017 120.336 55.6128 118.174 62.188C116.445 67.4438 115.513 72.7526 115.402 77.9681C115.303 82.609 115.887 86.3147 116.394 88.6059C116.943 91.091 117.525 92.4946 117.53 92.5093L116.687 92.8625Z" fill="#203156"/>
<path d="M185.606 82.1148C172.007 81.4249 160.391 79.0386 151.08 75.0218C149.795 74.4691 148.512 73.8634 147.268 73.2192C146.576 72.8624 145.875 72.4836 145.185 72.0883C136.855 67.3193 132.463 61.7634 130.247 57.9442C127.829 53.7791 127.403 50.7743 127.385 50.648L128.292 50.5254C128.296 50.5547 128.724 53.5138 131.067 57.5325C133.228 61.2419 137.512 66.6422 145.641 71.2959C146.32 71.6838 147.008 72.0572 147.689 72.4067C148.915 73.0399 150.179 73.6365 151.444 74.1818C160.656 78.1547 172.167 80.5173 185.656 81.1998L185.606 82.1148Z" fill="#203156"/>
<path d="M188.031 74.2304C187.68 74.1627 187.332 74.095 186.986 74.0236L187.167 73.127C187.512 73.1965 187.856 73.2642 188.205 73.3319L188.031 74.2304Z" fill="#203156"/>
<path d="M186.985 74.0253C186.496 73.9302 186.015 73.8295 185.537 73.7289L185.724 72.834C186.198 72.9328 186.675 73.0316 187.16 73.1268L186.985 74.0253Z" fill="#203156"/>
<path d="M185.522 73.7246C175.375 71.5872 166.5 68.5256 159.139 64.6222C158.506 64.2873 157.895 63.9506 157.324 63.6249C156.958 63.4181 156.621 63.2223 156.294 63.0265C155.496 62.5525 154.731 62.0767 154.021 61.6119C153.907 61.5387 153.788 61.4618 153.673 61.385C143.334 54.5371 140.622 48.1431 140.512 47.8741L141.357 47.5264C141.383 47.5904 144.097 53.946 154.178 60.6237C154.29 60.6987 154.403 60.7719 154.517 60.8451C155.219 61.3044 155.973 61.7747 156.76 62.2414C157.082 62.4335 157.415 62.6257 157.776 62.8307C158.34 63.1527 158.942 63.484 159.568 63.8134C166.851 67.6765 175.648 70.7106 185.711 72.8298L185.522 73.7246Z" fill="#203156"/>
<path d="M142.419 48.3204C142.406 48.3204 142.391 48.3204 142.378 48.3185C141.861 48.2728 141.357 48.2179 140.88 48.1557C131.715 46.9753 127.81 43.0481 127.649 42.8816C127.502 42.7297 127.477 42.4973 127.59 42.3198L129.944 38.5738C130.013 38.464 130.125 38.3889 130.255 38.367C130.383 38.345 130.515 38.378 130.617 38.4603C130.621 38.464 131.016 38.7751 131.759 39.2289C133.164 40.0908 135.525 41.2986 138.795 42.1624C139.584 42.3692 140.397 42.5485 141.207 42.6949C141.381 42.726 141.52 42.8541 141.568 43.0243L142.422 46.1335L142.865 47.7457C142.906 47.8903 142.871 48.0459 142.776 48.1593C142.682 48.2618 142.552 48.3204 142.419 48.3204ZM128.566 42.4827C129.565 43.3428 133.463 46.2799 140.995 47.248C141.257 47.2809 141.526 47.3139 141.802 47.3431L140.757 43.5404C140.018 43.4013 139.278 43.2348 138.559 43.0445C135.179 42.1533 132.734 40.8997 131.278 40.0067C130.932 39.7962 130.659 39.6132 130.458 39.4741L128.566 42.4827Z" fill="#203156"/>
<path d="M148.325 72.7241L147.529 72.274L154.055 60.6846L154.853 61.1329L154.672 61.4568L148.325 72.7241Z" fill="#203156"/>
<path d="M189.567 84.4697C189.406 84.4697 189.243 84.4623 189.081 84.4459C187.445 84.283 186.004 83.3204 185.227 81.8729C184.764 81.0146 184.568 80.0429 184.665 79.062C184.932 76.3591 187.348 74.379 190.049 74.6462C190.589 74.7011 191.108 74.8384 191.591 75.0561L191.214 75.8906C190.821 75.7131 190.398 75.6015 189.957 75.5557C187.759 75.338 185.792 76.9502 185.574 79.1499C185.496 79.9477 185.655 80.7383 186.032 81.4374C186.667 82.6177 187.84 83.4009 189.172 83.5327C189.937 83.6096 190.704 83.4632 191.388 83.1118C192.609 82.4878 193.416 81.3001 193.551 79.9367C193.705 78.3794 192.931 76.866 191.579 76.0791C191.461 76.0096 191.348 75.951 191.229 75.8961L191.608 75.0635C191.754 75.1293 191.899 75.2062 192.04 75.2886C193.7 76.253 194.651 78.1122 194.463 80.0264C194.296 81.7009 193.304 83.1575 191.806 83.9261C191.11 84.2848 190.343 84.4697 189.567 84.4697Z" fill="#203156"/>
<path d="M220.242 118.688L201.468 81.8084C201.208 81.2979 200.692 80.9813 200.118 80.9813C199.94 80.9776 199.763 81.0124 199.598 81.0728L190.748 84.3229L190.432 83.4646L199.28 80.2145C199.545 80.1139 199.834 80.0645 200.12 80.0645C201.04 80.0645 201.869 80.5732 202.285 81.393L221.059 118.273L220.242 118.688Z" fill="#203156"/>
<path d="M220.65 118.937H220.648V118.022L220.65 118.937Z" fill="#203156"/>
<path d="M257.031 184.114C254.883 184.114 252.943 182.926 251.969 181.012L220.243 118.687L221.059 118.272L252.786 180.596C253.602 182.201 255.229 183.199 257.031 183.199C257.763 183.199 258.47 183.034 259.132 182.708C261.409 181.588 262.406 178.883 261.403 176.552L248.796 147.279C248.218 145.938 247.146 144.92 245.775 144.415C244.404 143.91 242.927 143.987 241.617 144.631L240.821 145.023C240.598 145.133 240.327 145.043 240.212 144.822L215.119 96.2498L205.041 76.2571C203.502 73.3565 201.798 73.0875 200.486 73.1772L200.424 72.264C202.753 72.103 204.477 73.2376 205.853 75.8362L215.933 95.8344L240.819 144.004L241.213 143.81C242.752 143.052 244.485 142.962 246.091 143.555C247.698 144.148 248.959 145.341 249.636 146.917L262.243 176.19C263.44 178.969 262.25 182.192 259.536 183.528C258.748 183.916 257.904 184.114 257.031 184.114Z" fill="#203156"/>
<path d="M200.451 80.695L199.761 80.0929C200.253 79.5293 201.628 75.1629 200.079 72.987C200.03 72.9211 199.966 72.8443 199.885 72.7528C199.878 72.7454 199.871 72.7363 199.865 72.7272C199.803 72.6485 198.288 70.7672 195.453 71.7408C195.444 71.7444 195.435 71.7463 195.426 71.7499L187.193 74.0173C187.152 74.0283 187.112 74.0338 187.072 74.0338L187.07 73.5726L186.949 73.1352L195.168 70.8715C196.967 70.2585 198.337 70.6355 199.172 71.06C200.015 71.4901 200.493 72.0537 200.575 72.1562C200.671 72.2642 200.747 72.3557 200.815 72.449C202.702 75.0933 201.139 79.9081 200.451 80.695Z" fill="#203156"/>
<path d="M157.15 63.0166L150.854 74.3877L151.654 74.8309L157.95 63.4598L157.15 63.0166Z" fill="#203156"/>
<path d="M132.493 37.7526L131.609 37.5147L132.894 32.7256L133.776 32.9708L133.756 33.0422L132.493 37.7526Z" fill="#203156"/>
<path d="M131.61 37.5138L131.078 39.4971L131.962 39.7341L132.494 37.7508L131.61 37.5138Z" fill="#203156"/>
<path d="M139.491 42.4466L138.6 42.2362L140.157 35.6152L141.048 35.822L139.491 42.4466Z" fill="#203156"/>
<path d="M141.88 36.6889C141.45 36.6889 141.02 36.6669 140.59 36.6248C140.568 36.623 140.544 36.6193 140.518 36.6175L140.465 36.612C140.264 36.59 140.088 36.5681 139.922 36.5406C137.634 36.1929 135.504 35.2523 133.594 33.7462C133.4 33.5943 133.206 33.4333 133.017 33.2686C131.635 32.0608 130.442 30.5876 129.469 28.8894L130.263 28.4355C131.185 30.0459 132.314 31.4404 133.617 32.5805C133.795 32.7342 133.978 32.8861 134.159 33.0307C135.941 34.4379 137.929 35.3145 140.063 35.6403C140.218 35.6659 140.377 35.686 140.553 35.7061C140.571 35.708 140.597 35.7098 140.623 35.7135L140.676 35.7189C142.795 35.9312 144.886 35.5817 146.899 34.6795L147.273 35.514C145.523 36.2954 143.713 36.6889 141.88 36.6889Z" fill="#203156"/>
<path d="M155.1 38.5747L127.861 28.398L127.778 28.2736C125.632 25.018 124.898 19.3633 125.284 15.4618C125.73 10.9252 127.919 6.83331 131.442 3.94008C134.966 1.04868 139.406 -0.2982 143.941 0.14832L143.998 0.157468C150.736 1.70748 155.442 5.87804 157.992 12.5575C160.306 18.6148 160.215 25.1534 159.953 28.5115C159.858 29.7687 159.741 30.5135 159.736 30.5446L159.723 30.6288L159.679 30.702L155.1 38.5747ZM147.167 34.6347L147.246 34.664L154.696 37.4474L158.844 30.3214C158.877 30.0963 158.965 29.4283 159.04 28.4438C159.294 25.1608 159.388 18.7759 157.135 12.8851C154.705 6.51855 150.227 2.5383 143.82 1.056C139.536 0.640589 135.347 1.9161 132.02 4.64646C128.686 7.38414 126.616 11.2564 126.192 15.5496C125.837 19.151 126.514 24.5752 128.459 27.6441L147.167 34.6347Z" fill="#203156"/>
<path d="M159.351 28.911L144.339 23.8034C143.298 23.4502 142.645 22.4383 142.751 21.3403C142.754 21.2927 142.758 21.2451 142.758 21.1975C142.758 20.5588 142.33 19.9879 141.715 19.8104L141.177 19.6548C139.153 18.9814 137.887 17.0269 138.097 14.9041C138.326 12.5691 140.266 10.8086 142.608 10.8086C142.763 10.8086 142.915 10.8159 143.058 10.8306L157.607 12.2634L157.517 13.1748L142.967 11.7419C142.853 11.7309 142.732 11.7236 142.608 11.7236C140.738 11.7236 139.189 13.129 139.006 14.9938C138.84 16.6866 139.846 18.2421 141.457 18.7837L141.967 18.9301C142.972 19.2193 143.673 20.1526 143.673 21.1957C143.673 21.2707 143.668 21.3476 143.66 21.4263C143.594 22.0997 143.993 22.7201 144.632 22.936L159.643 28.0435L159.351 28.911Z" fill="#203156"/>
<path d="M130.75 15.0644L129.844 14.9308C129.858 14.8338 130.212 12.5188 131.698 10.0465C133.079 7.74804 135.736 4.89323 140.549 4.33691L140.654 5.24642C132.144 6.23096 130.762 14.9765 130.75 15.0644Z" fill="#203156"/>
<path d="M148.43 15.5512L146.49 18.7559L147.273 19.2296L149.213 16.0249L148.43 15.5512Z" fill="#203156"/>
<path d="M154.432 16.1469L150.953 21.8574L151.735 22.3335L155.214 16.623L154.432 16.1469Z" fill="#203156"/>
<path d="M185.628 73.7393L185.513 73.71L185.509 73.7228C174.862 71.1864 165.334 67.0945 157.186 61.5625C156.361 61.0043 155.538 60.4187 154.668 59.7727C149.883 56.2134 146.587 52.7986 144.662 50.5605C142.568 48.1248 141.62 46.551 141.582 46.4851L142.367 46.0166C142.404 46.0788 146.208 52.3392 155.214 59.0389C156.072 59.6757 156.886 60.254 157.701 60.8048C165.756 66.2747 175.184 70.3208 185.722 72.8316C185.758 72.8407 185.795 72.8536 185.828 72.8719L185.628 73.2543V73.7393Z" fill="#203156"/>
<path d="M156.919 62.882L156.145 62.3933L157.182 60.75L157.956 61.2404L156.919 62.882Z" fill="#203156"/>
<path d="M154.407 61.1105L153.633 60.6237L154.672 58.9785L155.443 59.4708L154.407 61.1105Z" fill="#203156"/>
<path d="M22.9306 80.4009H22.0156V55.8569C22.0156 55.6044 22.2206 55.3994 22.4731 55.3994H29.0227V56.3144H22.9306V80.4009Z" fill="#203156"/>
<path d="M176.082 159.799L173.621 169.624L174.509 169.846L176.97 160.021L176.082 159.799Z" fill="#203156"/>
<path d="M173.616 169.614L173.574 169.788L174.464 170L174.506 169.826L173.616 169.614Z" fill="#203156"/>
<path d="M174.456 170.084L173.568 169.861L173.581 169.81L174.476 169.998L174.456 170.084Z" fill="#203156"/>
<path d="M184.516 190.514C184.472 190.514 184.427 190.507 184.383 190.494L149.033 179.704C148.791 179.631 148.656 179.377 148.729 179.135L155.998 154.928L156.874 155.189L149.737 178.961L183.605 189.299L179.504 181.459L180.315 181.035L184.923 189.842C185.009 190.005 184.987 190.205 184.87 190.346C184.78 190.455 184.65 190.514 184.516 190.514Z" fill="#203156"/>
<path d="M173.898 170.414L173.826 170.396L153.244 165.396L153.455 164.505L153.564 164.531L174.124 169.528L173.898 170.414Z" fill="#203156"/>
<path d="M181.218 178.935L180.855 178.095C181.209 177.943 181.555 177.775 181.884 177.597C186.142 175.308 188.787 170.887 188.787 166.057C188.787 164.291 188.443 162.582 187.764 160.974C187.691 160.796 187.61 160.622 187.531 160.454C187.529 160.45 187.522 160.436 187.52 160.43L187.529 160.45C187.469 160.324 187.416 160.214 187.359 160.104C186.545 158.516 185.434 157.129 184.062 155.985L184.647 155.282C186.117 156.506 187.303 157.989 188.175 159.689C188.236 159.808 188.293 159.925 188.349 160.042C188.351 160.048 188.36 160.064 188.362 160.07C188.435 160.227 188.523 160.419 188.607 160.62C189.334 162.339 189.702 164.169 189.702 166.057C189.702 171.223 186.873 175.954 182.318 178.402C181.966 178.591 181.597 178.77 181.218 178.935Z" fill="#203156"/>
<path d="M188.204 180.511C185.874 180.511 183.669 179.768 181.824 178.363L182.379 177.634C184.062 178.917 186.075 179.596 188.204 179.596C193.512 179.596 197.831 175.277 197.831 169.969C197.831 164.662 193.512 160.345 188.204 160.345C188.065 160.345 187.925 160.348 187.788 160.354L187.75 159.439C187.9 159.433 188.052 159.428 188.204 159.428C194.016 159.428 198.746 164.156 198.746 169.967C198.746 175.782 194.018 180.511 188.204 180.511Z" fill="#203156"/>
<path d="M155.059 159.267L154.988 160.18L176.122 161.812L176.192 160.9L155.059 159.267Z" fill="#203156"/>
<path d="M177.99 182.417C176.259 182.417 174.802 181.12 174.599 179.402L173.479 169.931C173.479 169.93 173.479 169.928 173.479 169.926L173.473 169.875C173.452 169.675 173.561 169.483 173.746 169.402C173.931 169.322 174.147 169.371 174.277 169.525L174.363 169.624L180.568 176.757C180.993 177.246 181.269 177.835 181.366 178.463C181.551 179.636 181.106 180.836 180.208 181.598C179.974 181.801 179.701 181.973 179.399 182.11C178.947 182.313 178.475 182.417 177.99 182.417ZM174.555 171.242L175.507 179.294C175.655 180.553 176.724 181.502 177.99 181.502C178.343 181.502 178.689 181.427 179.018 181.279C179.24 181.179 179.439 181.052 179.611 180.904C180.272 180.346 180.596 179.467 180.46 178.607C180.389 178.15 180.188 177.718 179.877 177.361L174.555 171.242Z" fill="#203156"/>
<path d="M183.811 173.24C183.472 173.24 183.13 173.189 182.795 173.085L173.911 170.347C173.901 170.345 173.894 170.342 173.885 170.34L173.793 170.311H173.792L173.627 170.259C173.437 170.199 173.307 170.021 173.307 169.822C173.307 169.621 173.438 169.445 173.631 169.386L173.936 169.293C173.943 169.291 173.951 169.289 173.958 169.288L182.795 166.561C183.838 166.239 184.942 166.425 185.822 167.07C186.7 167.714 187.209 168.709 187.218 169.798V169.824C187.218 170.92 186.713 171.921 185.831 172.572C185.229 173.012 184.528 173.24 183.811 173.24ZM175.316 169.822L183.064 172.21C183.831 172.446 184.64 172.309 185.284 171.833C185.93 171.357 186.3 170.623 186.3 169.822V169.8C186.294 169.006 185.923 168.277 185.279 167.805C184.634 167.333 183.827 167.198 183.062 167.432L175.316 169.822Z" fill="#203156"/>
<path d="M130.588 39.1934L130.07 38.4395L131.789 37.2573C131.866 37.2042 131.955 37.1768 132.049 37.1768L132.05 37.6361L132.308 38.0112L130.588 39.1934Z" fill="#203156"/>
<path d="M139.8 39.2679C133.838 38.2926 132.553 34.6252 132.502 34.4697L133.369 34.1787C133.415 34.3141 134.564 37.4837 139.948 38.3639L139.8 39.2679Z" fill="#203156"/>
<path d="M191.63 76.1082L191.21 75.8904L187.908 74.1885L188.327 73.376L191.614 75.0706L191.632 75.0797L192.04 75.2902L191.63 76.1082Z" fill="#203156"/>
<path d="M158.998 63.9295L151.635 72.9922L152.345 73.5692L159.709 64.5065L158.998 63.9295Z" fill="#203156"/>
<path d="M311.403 215.224H0.451172V216.139H311.403V215.224Z" fill="#203156"/>
</svg>
