<svg width="328" height="210" viewBox="0 0 328 210" fill="none" xmlns="http://www.w3.org/2000/svg">
<path d="M303.51 144.365L326.696 173.687L292.222 198.674L269.75 170.254L303.501 144.369L303.51 144.365Z" fill="#F3F5F7"/>
<path d="M289.484 126.628L303.509 144.366L303.5 144.37L264.637 163.788L250.061 145.355L263.086 147.631L273.475 149.604C276.687 150.166 279.747 148.015 280.309 144.804L283.169 128.487L284.582 120.428L286.699 108.357C290.397 109.986 292.98 113.686 292.98 117.989C292.98 121.279 291.47 124.216 289.104 126.147L289.484 126.628Z" fill="#F3F5F7"/>
<path d="M303.499 144.369L269.749 170.254L264.636 163.787L303.499 144.369Z" fill="#203156"/>
<path d="M297.674 12.9021C300.886 13.4639 302.747 16.8129 302.185 20.0245L286.699 108.357L284.582 120.427L283.169 128.487L280.309 144.803C279.747 148.015 276.687 150.165 273.476 149.603L263.087 147.63L268.156 148.516C271.37 149.078 274.429 146.928 274.991 143.716L277.835 127.444L296.865 18.5733C297.383 15.6069 295.593 12.7704 292.786 11.9121L297.674 12.9021Z" fill="#F3F5F7"/>
<path d="M292.786 11.9113C295.593 12.7695 297.383 15.606 296.865 18.5725L277.835 127.443L274.991 143.715C274.429 146.927 271.37 149.077 268.156 148.515L263.087 147.63L250.061 145.353L206.447 137.729C203.233 137.167 201.083 134.108 201.645 130.894L223.521 5.75148C224.083 2.538 227.142 0.387751 230.356 0.949561L291.033 11.5562L291.061 11.5617L292.786 11.9113ZM276.031 87.9276C276.031 73.1412 264.042 61.1529 249.256 61.1529C234.468 61.1529 222.481 73.1412 222.481 87.9276C222.481 102.714 234.468 114.702 249.256 114.702C264.042 114.702 276.031 102.714 276.031 87.9276ZM244.143 135.204C244.143 132.349 241.828 130.034 238.973 130.034C236.347 130.034 234.177 131.992 233.847 134.527C233.816 134.748 233.802 134.973 233.802 135.204C233.802 138.06 236.117 140.375 238.973 140.375C239.204 140.375 239.431 140.361 239.652 140.33C242.187 139.998 244.143 137.83 244.143 135.204Z" fill="#F3F5F7"/>
<path d="M249.255 114.702C264.042 114.702 276.03 102.714 276.03 87.9271C276.03 73.1398 264.042 61.1523 249.255 61.1523C234.468 61.1523 222.48 73.1398 222.48 87.9271C222.48 102.714 234.468 114.702 249.255 114.702Z" fill="#F1842E"/>
<path d="M238.972 130.034C241.826 130.034 244.141 132.349 244.141 135.204C244.141 137.83 242.185 139.999 239.65 140.33L233.846 134.527C234.175 131.992 236.345 130.034 238.972 130.034Z" fill="#F3F5F7"/>
<path d="M233.848 134.527L239.652 140.33C239.431 140.361 239.204 140.376 238.973 140.376C236.117 140.376 233.802 138.061 233.802 135.204C233.802 134.974 233.816 134.749 233.848 134.527Z" fill="#203156"/>
<path d="M162.637 13.8203L140.856 23.1112V18.0293L162.637 13.8203Z" fill="#F3F5F7"/>
<path d="M162.636 13.8203L140.855 18.0293L133.778 19.3963L143.205 13.8203H162.636Z" fill="#F3F5F7"/>
<path d="M162.636 13.8197H143.206L135.896 8.04785L162.636 13.8197Z" fill="#F3F5F7"/>
<path d="M161.777 125.657C162.203 127.185 161.31 128.768 159.784 129.195L158.36 129.592L101.601 145.425C100.075 145.851 98.4919 144.958 98.0655 143.43L89.157 111.499L88.6849 109.808C88.2603 108.282 89.1515 106.699 90.6796 106.272L130.178 95.2538L148.861 90.042C150.389 89.6156 151.972 90.5086 152.398 92.0349L161.777 125.657ZM152.195 123.213C152.195 120.819 150.255 118.879 147.863 118.879C146.646 118.879 145.547 119.381 144.762 120.188C144.372 120.072 143.958 120.01 143.53 120.01C141.138 120.01 139.198 121.95 139.198 124.342C139.198 126.733 141.138 128.673 143.53 128.673C144.747 128.673 145.847 128.172 146.632 127.365C147.022 127.482 147.435 127.544 147.863 127.544C150.255 127.544 152.195 125.604 152.195 123.213Z" fill="#F1842E"/>
<path d="M158.748 130.976C159.22 132.67 158.23 134.429 156.533 134.903L137.779 140.135L98.9633 150.963C97.2669 151.435 95.5083 150.445 95.0343 148.749L85.8257 115.737C85.3536 114.041 86.3436 112.284 88.04 111.81L89.1582 111.499L98.0666 143.431C98.493 144.959 100.076 145.852 101.602 145.425L158.361 129.592L158.748 130.976Z" fill="#203156"/>
<path d="M147.865 118.88C150.256 118.88 152.196 120.82 152.196 123.213C152.196 125.605 150.256 127.545 147.865 127.545C147.436 127.545 147.023 127.483 146.633 127.366C147.396 126.584 147.865 125.519 147.865 124.342C147.865 122.379 146.556 120.719 144.763 120.188C145.548 119.381 146.648 118.88 147.865 118.88Z" fill="#203156"/>
<path d="M144.762 120.186C146.556 120.717 147.864 122.377 147.864 124.34C147.864 125.517 147.396 126.582 146.633 127.364C145.848 128.171 144.748 128.672 143.531 128.672C141.139 128.672 139.199 126.732 139.199 124.34C139.199 121.949 141.139 120.009 143.531 120.009C143.959 120.009 144.373 120.071 144.762 120.186Z" fill="#F3F5F7"/>
<path d="M145.965 185.562C146.527 188.776 144.378 191.836 141.165 192.397L85.6023 202.109L79.4553 203.183C76.2418 203.745 73.1821 201.597 72.6203 198.383L50.7444 73.2406C50.2997 70.6951 51.5551 68.2465 53.6944 67.0607L59.673 65.6845L117.256 55.6195C120.469 55.0577 123.529 57.2061 124.091 60.4196L130.179 95.2537L90.6805 106.272C89.1525 106.698 88.2613 108.281 88.6858 109.808L89.158 111.499L88.0398 111.81C86.3434 112.284 85.3534 114.04 85.8255 115.737L95.0341 148.748C95.5081 150.445 97.2667 151.435 98.9631 150.963L137.779 140.134L145.965 185.562ZM112.179 190.324C112.179 189.748 112.086 189.193 111.91 188.677C111.222 186.629 109.286 185.154 107.008 185.154C104.151 185.154 101.836 187.469 101.836 190.324C101.836 193.181 104.151 195.496 107.008 195.496C109.863 195.496 112.179 193.181 112.179 190.324Z" fill="#F3F5F7"/>
<path d="M111.91 188.677C112.086 189.193 112.179 189.747 112.179 190.324C112.179 193.18 109.863 195.495 107.008 195.495L111.909 188.677H111.91Z" fill="#203156"/>
<path d="M111.91 188.677H111.908L107.008 195.496C104.151 195.496 101.836 193.181 101.836 190.324C101.836 187.469 104.151 185.154 107.008 185.154C109.286 185.154 111.222 186.629 111.91 188.677Z" fill="#F3F5F7"/>
<path d="M85.601 202.109L74.1342 204.636C70.9208 205.198 67.861 203.05 67.2992 199.836L66.2085 193.596L56.612 138.692L45.4252 74.6935C44.8634 71.48 47.0118 68.4202 50.2253 67.8584L53.6931 67.0605C51.5539 68.2464 50.2985 70.6949 50.7432 73.2405L72.619 198.383C73.1808 201.597 76.2406 203.745 79.4541 203.183L85.601 202.109Z" fill="#F3F5F7"/>
<path d="M56.6124 138.69L66.2089 193.594L48.8422 198.541L45.3359 155.309L56.0085 152.269C54.6323 150.49 53.8125 148.258 53.8125 145.835C53.8125 143.077 54.8739 140.568 56.6124 138.69Z" fill="#F3F5F7"/>
<path d="M45.3358 155.31L48.842 198.541L48.7981 198.554L36.5371 157.817L45.3358 155.31Z" fill="#203156"/>
<path d="M36.5373 157.817L48.7983 198.555L13.1023 208.722L0.586914 168.056L36.5373 157.817Z" fill="#F3F5F7"/>
<path d="M78.4344 203.732C75.4021 203.732 72.7083 201.551 72.1685 198.465L50.2945 73.3206C49.8278 70.6506 51.1052 67.9752 53.4732 66.6612C54.0917 66.3172 54.7634 66.0793 55.4679 65.9549L117.177 55.1688C120.632 54.5649 123.937 56.8854 124.541 60.3404L130.63 95.1745L129.727 95.3319L123.639 60.4978C123.121 57.5387 120.292 55.5513 117.333 56.0692L55.6235 66.8552C55.0196 66.9614 54.4449 67.1645 53.9161 67.4591C51.8884 68.5827 50.7941 70.8739 51.1949 73.1614L73.0707 198.304C73.5886 201.263 76.4177 203.251 79.3769 202.733L141.086 191.947C144.045 191.429 146.031 188.601 145.515 185.641L137.329 140.214L138.23 140.052L146.415 185.479C147.019 188.938 144.701 192.241 141.244 192.847L79.5342 203.633C79.1646 203.701 78.7967 203.732 78.4344 203.732Z" fill="#203156"/>
<path d="M73.1037 205.185C71.8063 205.185 70.5436 204.788 69.4602 204.028C68.0694 203.051 67.1416 201.591 66.8488 199.916L44.9766 74.7736C44.6838 73.0991 45.0608 71.41 46.0362 70.0192C47.0098 68.6321 48.4665 67.7061 50.1354 67.4115L59.5709 65.2393L59.7758 66.1305L50.3056 68.31C48.8727 68.5607 47.621 69.3549 46.7847 70.5444C45.9484 71.7358 45.6263 73.1815 45.877 74.6143L67.751 199.757C68.0017 201.19 68.7959 202.442 69.9854 203.278C71.1731 204.112 72.6151 204.435 74.0462 204.187L85.5038 201.662L85.7015 202.555L74.2145 205.086C73.8449 205.154 73.4734 205.185 73.1037 205.185Z" fill="#203156"/>
<path d="M269.177 149.064C268.815 149.064 268.447 149.033 268.077 148.969L206.368 138.183C204.693 137.89 203.233 136.962 202.256 135.571C201.279 134.181 200.902 132.491 201.194 130.817L223.07 5.67429C223.674 2.21742 226.977 -0.103026 230.434 0.500874L291.111 11.1076L290.954 12.0097L230.277 1.40307C227.318 0.885178 224.488 2.87256 223.971 5.8335L202.095 130.976C201.844 132.409 202.166 133.855 203.004 135.046C203.841 136.237 205.092 137.032 206.525 137.282L268.235 148.068C271.192 148.586 274.023 146.599 274.541 143.64L277.385 127.367L296.415 18.4971C296.887 15.7942 295.269 13.1517 292.652 12.352C292.44 12.2861 292.222 12.233 291.984 12.1909L290.982 12.0152L291.139 11.1149L292.144 11.2906C292.42 11.34 292.674 11.4004 292.921 11.479C295.976 12.4123 297.866 15.4977 297.315 18.6563L278.285 127.527L275.441 143.799C274.901 146.883 272.208 149.064 269.177 149.064Z" fill="#203156"/>
<path d="M274.496 150.151C274.134 150.151 273.766 150.12 273.396 150.056L263 148.081L263.17 147.183L273.559 149.156C276.511 149.672 279.338 147.686 279.856 144.727L301.732 19.9484C302.281 16.8081 300.424 13.8508 297.592 13.3549L290.942 12.008L291.12 11.1113L292.875 11.4663L297.763 12.4564C301.079 13.0365 303.269 16.4696 302.634 20.1058L287.149 108.438L280.758 144.884C280.22 147.97 277.528 150.151 274.496 150.151Z" fill="#203156"/>
<path d="M100.826 145.992C100.26 145.992 99.7021 145.847 99.197 145.562C98.4229 145.124 97.8647 144.412 97.625 143.556L88.2444 109.933C87.7522 108.166 88.7898 106.326 90.5576 105.834L148.739 89.6039C150.507 89.1117 152.346 90.1475 152.84 91.9152L162.219 125.538C162.713 127.306 161.675 129.145 159.907 129.639L101.724 145.869C101.428 145.95 101.126 145.992 100.826 145.992ZM149.632 90.3945C149.418 90.3945 149.2 90.4238 148.984 90.4842L90.8028 106.714C89.5218 107.071 88.7696 108.405 89.1265 109.686L98.5071 143.309C98.6809 143.931 99.0853 144.447 99.6472 144.764C100.209 145.08 100.859 145.159 101.479 144.985L159.662 128.755C160.943 128.396 161.695 127.062 161.336 125.781L151.958 92.1586C151.661 91.0936 150.688 90.3945 149.632 90.3945Z" fill="#203156"/>
<path d="M98.1096 151.537C96.5138 151.537 95.0444 150.481 94.5942 148.871L85.3856 115.86C84.8476 113.923 85.9822 111.909 87.9183 111.369L89.0365 111.058L89.2817 111.94L88.1636 112.251C86.7142 112.655 85.8632 114.165 86.2677 115.614L95.4762 148.626C95.8807 150.075 97.3922 150.926 98.8416 150.522L156.412 134.461C157.861 134.057 158.712 132.547 158.307 131.098L157.921 129.714L158.803 129.469L159.19 130.853C159.729 132.789 158.593 134.802 156.657 135.344L99.0868 151.404C98.7611 151.493 98.4335 151.537 98.1096 151.537Z" fill="#203156"/>
<path d="M143.53 129.132C140.89 129.132 138.741 126.984 138.741 124.343C138.741 121.702 140.89 119.554 143.53 119.554C143.993 119.554 144.451 119.62 144.892 119.75C146.91 120.346 148.321 122.235 148.321 124.343C148.321 125.6 147.838 126.786 146.96 127.686C146.052 128.618 144.835 129.132 143.53 129.132ZM143.53 120.469C141.395 120.469 139.656 122.207 139.656 124.343C139.656 126.478 141.395 128.217 143.53 128.217C144.584 128.217 145.571 127.802 146.305 127.048C147.015 126.319 147.406 125.36 147.406 124.345C147.406 122.641 146.266 121.113 144.632 120.63C144.275 120.522 143.905 120.469 143.53 120.469Z" fill="#203156"/>
<path d="M147.865 128.003C147.398 128.003 146.941 127.935 146.502 127.805L146.765 126.929C147.118 127.035 147.488 127.088 147.865 127.088C150.001 127.088 151.739 125.349 151.739 123.214C151.739 121.076 150.001 119.338 147.865 119.338C146.811 119.338 145.825 119.753 145.091 120.507L144.436 119.868C145.343 118.935 146.562 118.421 147.865 118.421C150.506 118.421 152.654 120.569 152.654 123.212C152.654 125.854 150.506 128.003 147.865 128.003Z" fill="#203156"/>
<path d="M110.788 122.917L99.9453 125.921L100.19 126.803L111.032 123.799L110.788 122.917Z" fill="#203156"/>
<path d="M125.109 118.798L114.267 121.802L114.511 122.684L125.353 119.68L125.109 118.798Z" fill="#203156"/>
<path d="M140.083 114.292L129.24 117.296L129.485 118.178L140.327 115.174L140.083 114.292Z" fill="#203156"/>
<path d="M249.256 115.162C234.241 115.162 222.023 102.945 222.023 87.9295C222.023 72.9143 234.241 60.6973 249.256 60.6973C264.271 60.6973 276.488 72.9143 276.488 87.9295C276.488 102.945 264.271 115.162 249.256 115.162ZM249.256 61.6123C234.744 61.6123 222.938 73.4176 222.938 87.9295C222.938 102.441 234.744 114.247 249.256 114.247C263.768 114.247 275.573 102.441 275.573 87.9295C275.573 73.4176 263.768 61.6123 249.256 61.6123Z" fill="#203156"/>
<path d="M242.445 97.7733L235.934 88.1859L236.691 87.6735L242.646 96.441L265.236 78.3936L265.807 79.1073L242.445 97.7733Z" fill="#203156"/>
<path d="M133.779 19.8539C133.593 19.8539 133.42 19.7386 133.351 19.5593C133.272 19.3507 133.355 19.1164 133.545 19.003L142.971 13.427L143.438 14.2139L136.283 18.4467L162.549 13.3721L162.722 14.2706L133.865 19.8448C133.836 19.8521 133.808 19.8539 133.779 19.8539Z" fill="#203156"/>
<path d="M162.636 14.2785H143.205C143.103 14.2785 143.002 14.2437 142.921 14.1796L135.612 8.40782C135.446 8.27606 135.391 8.04548 135.482 7.85333C135.574 7.66118 135.786 7.55687 135.993 7.60079L162.733 13.3726C162.962 13.422 163.115 13.6361 163.092 13.8685C163.066 14.1028 162.87 14.2785 162.636 14.2785ZM143.364 13.3635H158.348L137.728 8.91289L143.364 13.3635Z" fill="#203156"/>
<path d="M140.856 23.5707C140.768 23.5707 140.68 23.5451 140.603 23.4956C140.475 23.4115 140.398 23.2669 140.398 23.1132V18.0313H141.313V22.4214L162.457 13.4014L162.816 14.2432L141.035 23.5341C140.979 23.5579 140.916 23.5707 140.856 23.5707Z" fill="#203156"/>
<path d="M48.4229 198.887L48.3626 198.688L36.1016 157.95L36.9763 157.687L49.2977 198.624L48.4229 198.887Z" fill="#203156"/>
<path d="M303.221 143.982L269.474 169.873L270.031 170.599L303.778 144.708L303.221 143.982Z" fill="#203156"/>
<path d="M48.4036 198.79L48.3871 198.578L44.8809 155.348L45.7922 155.274L49.3149 198.72L48.4036 198.79Z" fill="#203156"/>
<path d="M13.1031 209.182C12.9073 209.182 12.7262 209.055 12.6658 208.858L0.150406 168.192C0.113806 168.074 0.126616 167.946 0.185176 167.838C0.243736 167.73 0.344387 167.65 0.461507 167.617L36.4119 157.378L55.2535 152.011C54.0091 150.188 53.3558 148.067 53.3558 145.836C53.3558 143.064 54.3934 140.416 56.2783 138.381L56.9499 139.003C55.2224 140.868 54.2726 143.294 54.2726 145.836C54.2726 148.087 54.9992 150.214 56.3735 151.991C56.4668 152.111 56.4943 152.269 56.4467 152.413C56.3991 152.558 56.2838 152.669 56.1374 152.71L1.16606 168.367L13.4124 208.159L66.089 193.155L66.3397 194.035L13.2331 209.162C13.1873 209.176 13.1452 209.182 13.1031 209.182Z" fill="#203156"/>
<path d="M292.222 199.133C292.087 199.133 291.953 199.073 291.864 198.959L249.702 145.638L250.42 145.071L292.308 198.048L326.041 173.599L303.151 144.652L288.745 126.433C288.59 126.237 288.621 125.953 288.815 125.794C291.172 123.872 292.522 121.027 292.522 117.991C292.522 114.001 290.163 110.385 286.514 108.779L286.884 107.94C290.864 109.694 293.437 113.639 293.437 117.991C293.437 121.153 292.094 124.123 289.737 126.211L289.843 126.347L303.868 144.085L327.054 173.407C327.131 173.504 327.166 173.63 327.15 173.753C327.133 173.875 327.065 173.987 326.965 174.06L292.491 199.047C292.409 199.104 292.316 199.133 292.222 199.133Z" fill="#203156"/>
<path d="M264.841 164.198L264.433 163.38L303.296 143.962C303.309 143.956 303.32 143.951 303.333 143.945L303.527 144.427L303.704 144.78L264.841 164.198Z" fill="#203156"/>
<path d="M209.723 30.6313C209.16 30.1738 208.579 29.7181 208.005 29.2771L208.338 28.8416C208.918 29.2863 209.5 29.7438 210.069 30.2049L209.723 30.6313ZM206.25 27.9705C205.662 27.5459 205.06 27.1232 204.458 26.7114L204.768 26.2576C205.373 26.6712 205.979 27.0976 206.57 27.524L206.25 27.9705ZM202.634 25.5018C202.023 25.1084 201.397 24.7186 200.776 24.3434L201.06 23.8731C201.684 24.2501 202.313 24.6435 202.93 25.0388L202.634 25.5018ZM198.89 23.2363C198.258 22.8776 197.612 22.5226 196.972 22.1822L197.23 21.6972C197.876 22.0413 198.525 22.3981 199.16 22.7586L198.89 23.2363ZM195.025 21.1812C194.373 20.8573 193.711 20.5389 193.052 20.2332L193.282 19.7355C193.945 20.0429 194.615 20.3632 195.27 20.6889L195.025 21.1812ZM191.052 19.342C190.384 19.0547 189.703 18.7729 189.03 18.5057L189.233 17.9952C189.912 18.266 190.598 18.5497 191.269 18.837L191.052 19.342ZM186.984 17.7243C186.299 17.4736 185.604 17.2302 184.918 17.0015L185.091 16.4817C185.783 16.7142 186.482 16.9594 187.172 17.2101L186.984 17.7243ZM182.833 16.3335C182.138 16.1212 181.43 15.9181 180.73 15.726L180.875 15.1971C181.58 15.3911 182.293 15.596 182.992 15.8101L182.833 16.3335ZM178.609 15.1751C177.901 15.0013 177.184 14.8366 176.476 14.6847L176.591 14.1485C177.303 14.3022 178.026 14.4687 178.739 14.6426L178.609 15.1751ZM174.329 14.2528C173.614 14.1192 172.887 13.9929 172.172 13.8795L172.258 13.3378C172.979 13.4513 173.709 13.5775 174.43 13.713L174.329 14.2528ZM170.003 13.5684C169.284 13.4751 168.552 13.389 167.827 13.3158L167.884 12.7705C168.612 12.8455 169.35 12.9316 170.074 13.0249L170.003 13.5684Z" fill="#203156"/>
<path d="M93.5387 48.0204L93.083 47.713C93.4929 47.1073 93.9157 46.4997 94.342 45.905L94.7886 46.2252C94.3658 46.8145 93.9449 47.4184 93.5387 48.0204ZM96.0879 44.4629L95.6505 44.1317C96.0934 43.5479 96.549 42.9642 97.0065 42.395L97.4348 42.7391C96.9809 43.3027 96.5271 43.8828 96.0879 44.4629ZM98.8274 41.0481L98.4083 40.6931C98.8805 40.1368 99.3672 39.5768 99.8577 39.0333L100.266 39.3993C99.7808 39.941 99.2959 40.4955 98.8274 41.0481ZM101.75 37.7907L101.351 37.4138C101.854 36.8831 102.372 36.3505 102.888 35.8345L103.276 36.2224C102.762 36.7348 102.249 37.2619 101.75 37.7907ZM104.844 34.6962L104.467 34.2973C104.998 33.7959 105.543 33.2926 106.089 32.804L106.455 33.2121C105.913 33.6989 105.371 34.1966 104.844 34.6962ZM108.104 31.7755L107.749 31.3565C108.307 30.8843 108.878 30.4122 109.449 29.9547L109.793 30.3829C109.225 30.8386 108.656 31.307 108.104 31.7755ZM111.517 29.0379L111.185 28.6005C111.769 28.1576 112.366 27.7184 112.959 27.2939L113.279 27.7404C112.69 28.1613 112.097 28.5987 111.517 29.0379ZM115.074 26.4905L114.767 26.0348C115.372 25.6267 115.993 25.2186 116.609 24.827L116.904 25.29C116.291 25.6816 115.676 26.0842 115.074 26.4905ZM118.767 24.1426L118.485 23.6723C119.115 23.2953 119.755 22.9238 120.39 22.567L120.659 23.0464C120.028 23.3996 119.391 23.7693 118.767 24.1426ZM122.581 22.0015L122.325 21.5147C122.972 21.1743 123.633 20.8395 124.288 20.5174L124.53 21.0096C123.88 21.3299 123.225 21.663 122.581 22.0015ZM126.508 20.0727L126.279 19.5731C126.945 19.2693 127.622 18.9692 128.294 18.6855L128.508 19.1906C127.842 19.4724 127.169 19.7707 126.508 20.0727Z" fill="#203156"/>
<path d="M107.008 195.954C103.904 195.954 101.379 193.428 101.379 190.325C101.379 187.221 103.904 184.697 107.008 184.697C109.429 184.697 111.574 186.238 112.344 188.531C112.538 189.102 112.637 189.706 112.637 190.325C112.637 193.428 110.112 195.954 107.008 195.954ZM107.008 185.612C104.409 185.612 102.294 187.726 102.294 190.325C102.294 192.923 104.409 195.039 107.008 195.039C109.607 195.039 111.722 192.923 111.722 190.325C111.722 189.807 111.64 189.302 111.477 188.826C110.831 186.902 109.036 185.612 107.008 185.612Z" fill="#203156"/>
<path d="M238.974 140.833C235.87 140.833 233.345 138.308 233.345 135.204C233.345 134.95 233.361 134.701 233.394 134.463C233.756 131.68 236.154 129.577 238.974 129.577C242.077 129.577 244.601 132.101 244.601 135.204C244.601 138.021 242.5 140.418 239.715 140.784C239.477 140.817 239.228 140.833 238.974 140.833ZM238.974 130.492C236.613 130.492 234.606 132.253 234.302 134.586C234.274 134.785 234.26 134.992 234.26 135.204C234.26 137.803 236.375 139.918 238.974 139.918C239.188 139.918 239.395 139.904 239.589 139.876H239.592C241.926 139.571 243.684 137.563 243.684 135.204C243.686 132.606 241.572 130.492 238.974 130.492Z" fill="#203156"/>
<path d="M95.2946 64.3527L90.3193 65.2861L90.4881 66.1855L95.4633 65.2521L95.2946 64.3527Z" fill="#203156"/>
<path d="M87.2625 65.8624L75.749 68.0225L75.9177 68.9218L87.4313 66.7618L87.2625 65.8624Z" fill="#203156"/>
<path d="M268.442 11.509L268.277 12.4092L274.145 13.4797L274.309 12.5795L268.442 11.509Z" fill="#203156"/>
<path d="M246.015 7.42209L245.851 8.32227L264.509 11.7267L264.674 10.8265L246.015 7.42209Z" fill="#203156"/>
<path d="M111.552 188.414L106.651 195.234L107.394 195.768L112.295 188.948L111.552 188.414Z" fill="#203156"/>
<path d="M234.167 134.21L233.521 134.857L239.325 140.66L239.972 140.013L234.167 134.21Z" fill="#203156"/>
<path d="M209.997 30.7759C209.991 30.7759 209.986 30.7759 209.98 30.7759L207.638 30.635L207.671 30.0879L209.62 30.205L209.104 28.5049L209.629 28.3457L210.258 30.4246C210.284 30.5106 210.267 30.6039 210.211 30.6735C210.159 30.7375 210.081 30.7759 209.997 30.7759Z" fill="#203156"/>
</svg>
