<svg width="223" height="140" viewBox="0 0 223 140" fill="none" xmlns="http://www.w3.org/2000/svg">
<path d="M223 48.8389L26.3829 77.1451L0 103.77L223 48.8389Z" fill="#F4842B"/>
<path opacity="0.6" d="M223 48.8389L26.3829 77.1451L0 103.77L223 48.8389Z" fill="white"/>
<path d="M223 48.8389L26.3829 77.1451L35.5079 115.646L223 48.8389Z" fill="#F4842B"/>
<path opacity="0.2" d="M223 48.8389L26.3829 77.1451L35.5079 115.646L223 48.8389Z" fill="black"/>
<path d="M39.5435 4.26646L28.133 57.7395C27.8362 59.1359 28.1054 60.5929 28.8815 61.791C29.6576 62.9891 30.8772 63.8305 32.2729 64.1304L134.113 85.8647C135.509 86.1591 136.965 85.889 138.163 85.1132C139.36 84.3375 140.202 83.1193 140.504 81.7248L151.923 28.2517C152.217 26.8544 151.946 25.3974 151.169 24.1997C150.391 23.0019 149.171 22.1609 147.775 21.8608L45.9344 0.12661C44.537 -0.167611 43.0801 0.10371 41.8823 0.881198C40.6846 1.65869 39.8436 2.87901 39.5435 4.27508V4.26646Z" fill="#F4842B"/>
<path opacity="0.4" d="M39.5435 4.26646L28.133 57.7395C27.8362 59.1359 28.1054 60.5929 28.8815 61.791C29.6576 62.9891 30.8772 63.8305 32.2729 64.1304L134.113 85.8647C135.509 86.1591 136.965 85.889 138.163 85.1132C139.36 84.3375 140.202 83.1193 140.504 81.7248L151.923 28.2517C152.217 26.8544 151.946 25.3974 151.169 24.1997C150.391 23.0019 149.171 22.1609 147.775 21.8608L45.9344 0.12661C44.537 -0.167611 43.0801 0.10371 41.8823 0.881198C40.6846 1.65869 39.8436 2.87901 39.5435 4.27508V4.26646Z" fill="black"/>
<path d="M42.0531 0.764582L76.0775 42.534C79.233 46.4066 83.6159 49.0859 88.5013 50.1289C93.3866 51.1718 98.4816 50.5158 102.943 48.2694L151.061 24.034C150.282 22.9157 149.107 22.1356 147.775 21.8519L45.9342 0.11773C44.6052 -0.165119 43.2185 0.0660091 42.0531 0.764582Z" fill="#F4842B"/>
<path d="M223 48.8389L60.83 87.3826L35.5079 115.646L223 48.8389Z" fill="#F4842B"/>
<path opacity="0.6" d="M223 48.8389L60.83 87.3826L35.5079 115.646L223 48.8389Z" fill="white"/>
<path d="M163.843 85.9892L164.279 86.7334L146.233 97.3044L145.797 96.5602L163.843 85.9892Z" fill="#F4842B"/>
<path d="M137.83 101.221L138.266 101.965L131.776 105.767L131.34 105.022L137.83 101.221Z" fill="#F4842B"/>
<path d="M223 48.8389L60.8299 87.3826L92.3532 125.374L223 48.8389Z" fill="#F4842B"/>
<path d="M6.08937 139.139C6.30784 139.139 6.52441 139.098 6.72759 139.018L33.1364 128.565C33.5589 128.394 33.8969 128.064 34.0767 127.646C34.2565 127.227 34.2635 126.754 34.0961 126.331C33.9287 125.907 33.6005 125.567 33.1832 125.384C32.7659 125.202 32.2933 125.192 31.8686 125.356L5.45112 135.809C5.0774 135.957 4.76698 136.231 4.57344 136.583C4.3799 136.935 4.31538 137.344 4.39104 137.738C4.4667 138.133 4.6778 138.489 4.98786 138.745C5.29792 139 5.68752 139.14 6.08937 139.139Z" fill="#F4842B"/>
<path opacity="0.3" d="M6.08937 139.139C6.30784 139.139 6.52441 139.098 6.72759 139.018L33.1364 128.565C33.5589 128.394 33.8969 128.064 34.0767 127.646C34.2565 127.227 34.2635 126.754 34.0961 126.331C33.9287 125.907 33.6005 125.567 33.1832 125.384C32.7659 125.202 32.2933 125.192 31.8686 125.356L5.45112 135.809C5.0774 135.957 4.76698 136.231 4.57344 136.583C4.3799 136.935 4.31538 137.344 4.39104 137.738C4.4667 138.133 4.6778 138.489 4.98786 138.745C5.29792 139 5.68752 139.14 6.08937 139.139Z" fill="black"/>
<path d="M7.64951 123.994C7.86584 123.992 8.07976 123.948 8.2791 123.864L22.4667 118.215C22.6788 118.133 22.8726 118.01 23.0368 117.852C23.2011 117.695 23.3326 117.507 23.4238 117.298C23.5149 117.09 23.564 116.865 23.5681 116.638C23.5722 116.41 23.5312 116.184 23.4476 115.973C23.364 115.761 23.2394 115.568 23.0809 115.405C22.9225 115.242 22.7333 115.112 22.5243 115.022C22.3153 114.932 22.0906 114.885 21.8631 114.882C21.6356 114.879 21.4099 114.922 21.1989 115.007L7.01127 120.63C6.58609 120.797 6.24469 121.127 6.06197 121.545C5.87925 121.964 5.87014 122.438 6.03667 122.864C6.15811 123.194 6.37773 123.48 6.66602 123.682C6.95432 123.884 7.29752 123.992 7.64951 123.994Z" fill="#F4842B"/>
<path opacity="0.5" d="M7.64951 123.994C7.86584 123.992 8.07976 123.948 8.2791 123.864L22.4667 118.215C22.6788 118.133 22.8726 118.01 23.0368 117.852C23.2011 117.695 23.3326 117.507 23.4238 117.298C23.5149 117.09 23.564 116.865 23.5681 116.638C23.5722 116.41 23.5312 116.184 23.4476 115.973C23.364 115.761 23.2394 115.568 23.0809 115.405C22.9225 115.242 22.7333 115.112 22.5243 115.022C22.3153 114.932 22.0906 114.885 21.8631 114.882C21.6356 114.879 21.4099 114.922 21.1989 115.007L7.01127 120.63C6.58609 120.797 6.24469 121.127 6.06197 121.545C5.87925 121.964 5.87014 122.438 6.03667 122.864C6.15811 123.194 6.37773 123.48 6.66602 123.682C6.95432 123.884 7.29752 123.992 7.64951 123.994Z" fill="white"/>
<path d="M37.3095 138.914C37.5249 138.912 37.7381 138.871 37.9392 138.794L63.7011 128.565C63.9132 128.483 64.107 128.359 64.2712 128.202C64.4355 128.044 64.567 127.856 64.6581 127.648C64.7493 127.439 64.7984 127.215 64.8025 126.987C64.8066 126.76 64.7656 126.534 64.682 126.322C64.5984 126.111 64.4738 125.918 64.3153 125.755C64.1569 125.592 63.9677 125.461 63.7587 125.372C63.5497 125.282 63.3249 125.234 63.0975 125.232C62.87 125.229 62.6443 125.271 62.4333 125.356L36.6713 135.551C36.2976 135.698 35.9872 135.972 35.7936 136.324C35.6001 136.676 35.5356 137.085 35.6112 137.48C35.6869 137.874 35.898 138.23 36.208 138.486C36.5181 138.742 36.9077 138.881 37.3095 138.88V138.914Z" fill="#F4842B"/>
<path opacity="0.3" d="M37.3095 138.914C37.5249 138.912 37.7381 138.871 37.9392 138.794L63.7011 128.565C63.9132 128.483 64.107 128.359 64.2712 128.202C64.4355 128.044 64.567 127.856 64.6581 127.648C64.7493 127.439 64.7984 127.215 64.8025 126.987C64.8066 126.76 64.7656 126.534 64.682 126.322C64.5984 126.111 64.4738 125.918 64.3153 125.755C64.1569 125.592 63.9677 125.461 63.7587 125.372C63.5497 125.282 63.3249 125.234 63.0975 125.232C62.87 125.229 62.6443 125.271 62.4333 125.356L36.6713 135.551C36.2976 135.698 35.9872 135.972 35.7936 136.324C35.6001 136.676 35.5356 137.085 35.6112 137.48C35.6869 137.874 35.898 138.23 36.208 138.486C36.5181 138.742 36.9077 138.881 37.3095 138.88V138.914Z" fill="black"/>
</svg>
