<svg width="366" height="366" viewBox="0 0 366 366" fill="none" xmlns="http://www.w3.org/2000/svg">
<path d="M283.686 251.681V292.819H258.597H233.306H220.624V251.681H242.529V270.383C242.529 270.639 242.73 270.841 242.987 270.841H258.212C258.468 270.841 258.67 270.639 258.67 270.383V251.681H283.686Z" fill="white"/>
<path d="M322.115 293.735V334.672H259.236V293.735H280.958V312.438C280.958 312.694 281.16 312.895 281.416 312.895H296.642C296.898 312.895 297.099 312.694 297.099 312.438V293.735H322.115Z" fill="white"/>
<path d="M258.139 293.735V334.672H195.26V293.735H217.165V312.438C217.165 312.694 217.366 312.895 217.622 312.895H232.848C233.104 312.895 233.305 312.694 233.305 312.438V293.735H258.139Z" fill="white"/>
<path d="M177.291 309.857L177.785 314.541L150.207 315.273C150.17 315.237 150.134 315.219 150.079 315.182L149.987 315.145L149.292 308.045L177.291 309.857Z" fill="white"/>
<path d="M92.1212 315.383L82.2575 317.103C81.0497 317.323 79.8602 316.92 79.0184 316.042C78.1766 315.163 77.8472 313.956 78.1034 312.766C78.4694 311.101 79.9334 309.93 81.6353 309.93C82.2758 309.93 82.8797 310.094 83.4287 310.405L92.1212 315.383Z" fill="white"/>
<path d="M148.54 315.531L138.951 318.422C137.798 318.77 136.554 318.513 135.602 317.745C134.65 316.958 134.175 315.823 134.303 314.597C134.486 312.731 136.041 311.34 137.908 311.34C138.384 311.34 138.859 311.431 139.317 311.633L148.54 315.531Z" fill="white"/>
<path d="M150.042 326.968C150.152 328.176 149.658 329.347 148.724 330.115C147.773 330.884 146.547 331.122 145.375 330.756C143.857 330.28 142.813 328.889 142.813 327.297C142.813 326.565 143.033 325.87 143.454 325.266L149.09 317.013L150.042 326.968Z" fill="white"/>
<path d="M178.643 315.438L180.254 334.689L128.538 336.83L146.765 318.786L142.684 324.752C142.172 325.503 141.897 326.399 141.897 327.296C141.897 329.309 143.178 331.047 145.1 331.633C145.539 331.761 145.996 331.834 146.435 331.834C147.46 331.834 148.467 331.487 149.29 330.828C150.461 329.876 151.084 328.394 150.937 326.893L149.931 316.206L177.82 315.474L178.259 315.456L178.643 315.438Z" fill="white"/>
<path d="M95.8186 326.784C96.1297 327.955 95.8186 329.2 95.0134 330.097C94.1899 331.012 93.037 331.451 91.8109 331.286C90.0358 331.048 88.6816 329.493 88.6816 327.699C88.6816 327.168 88.7914 326.656 89.0293 326.162L93.2749 317.104L95.8186 326.784Z" fill="white"/>
<path d="M122.463 316.224V334.671H70.5645L92.3415 316.956L88.2057 325.777C87.9129 326.381 87.7665 327.04 87.7665 327.698C87.7665 329.949 89.4501 331.889 91.6827 332.182C91.884 332.219 92.1035 332.219 92.3049 332.219C93.5858 332.219 94.812 331.67 95.6904 330.7C96.6969 329.565 97.0628 328.01 96.6785 326.546L93.9884 316.206H122.463V316.224Z" fill="white"/>
<path d="M121.895 311.285V315.311H93.9141V307.68L121.895 311.285Z" fill="white"/>
<path d="M39.1604 89.5423H38.2637V88.3711L39.1604 89.5423Z" fill="white"/>
<path d="M39.8558 90.459L41.4479 92.5452H38.2637V90.459H39.8558Z" fill="white"/>
<path d="M44.376 90.459V92.5452H42.6009L41.0088 90.459H44.376Z" fill="white"/>
<path d="M44.3766 93.459V94.8681L43.2969 93.459H44.3766Z" fill="white"/>
<path d="M41.449 81.0156C47.305 81.0156 52.063 85.7736 52.063 91.6296C52.063 97.4856 47.305 102.244 41.449 102.244C35.593 102.244 30.835 97.4856 30.835 91.6296C30.835 85.7736 35.593 81.0156 41.449 81.0156ZM48.0004 90.0009C48.0004 89.7447 47.7991 89.5434 47.5429 89.5434H45.292V87.018C45.292 86.7618 45.0907 86.5605 44.8345 86.5605C44.5783 86.5605 44.377 86.7618 44.377 87.018V89.5434H40.3144L38.1733 86.7435C38.0452 86.5971 37.8439 86.5239 37.6609 86.5971C37.4779 86.652 37.3498 86.835 37.3498 87.0363V89.5617H35.3368C35.0806 89.5617 34.8793 89.763 34.8793 90.0192C34.8793 90.2754 35.0806 90.4767 35.3368 90.4767H37.3498V92.5629H35.3368C35.0806 92.5629 34.8793 92.7642 34.8793 93.0204C34.8793 93.2766 35.0806 93.4779 35.3368 93.4779H37.3498V96.2412C37.3498 96.4974 37.5511 96.6987 37.8073 96.6987C38.0635 96.6987 38.2648 96.4974 38.2648 96.2412V93.4779H42.1444L44.4685 96.534C44.56 96.6438 44.6881 96.717 44.8345 96.717C44.8894 96.717 44.926 96.717 44.9809 96.6987C45.1639 96.6438 45.292 96.4608 45.292 96.2595V93.4962H47.5429C47.7991 93.4962 48.0004 93.2949 48.0004 93.0387C48.0004 92.7825 47.7991 92.5812 47.5429 92.5812H45.292V90.495H47.5429C47.7991 90.4584 48.0004 90.2388 48.0004 90.0009Z" fill="white"/>
<path d="M70.9314 116.883C71.3706 116.883 71.7183 117.231 71.7183 117.67C71.7183 118.109 71.3706 118.457 70.9314 118.457C70.4922 118.457 70.1445 118.109 70.1445 117.67C70.1445 117.249 70.4922 116.883 70.9314 116.883Z" fill="white"/>
<path d="M72.3936 114.687L77.0784 122.098C76.5111 122.501 76.0536 123.05 75.7242 123.691C75.6144 123.892 75.4314 124.02 75.2301 124.02C70.9113 124.02 67.3062 127.204 66.6474 131.34L60.4986 120.488C60.3522 120.25 60.3339 119.957 60.4071 119.701C60.4986 119.427 60.6816 119.225 60.9378 119.097L71.0394 114.339L71.7165 114.229C72.0093 114.303 72.2472 114.467 72.3936 114.687ZM72.6498 117.67C72.6498 116.737 71.8812 115.968 70.9479 115.968C70.0146 115.968 69.246 116.737 69.246 117.67C69.246 118.603 70.0146 119.372 70.9479 119.372C71.8812 119.39 72.6498 118.621 72.6498 117.67Z" fill="white"/>
<path d="M82.8068 125.686C82.8068 126.4 82.5506 127.022 82.0016 127.699L81.965 127.681L74.0777 140.399C70.3811 139.85 67.5446 136.684 67.4531 132.914V132.896C67.4531 132.841 67.4531 132.786 67.4531 132.713C67.4531 128.431 70.9301 124.954 75.2306 124.954C75.7796 124.954 76.2737 124.625 76.5299 124.112C76.8227 123.508 77.2802 123.032 77.8475 122.703C77.8658 122.685 77.8841 122.685 77.9024 122.666H77.9207C78.2501 122.483 78.5978 122.374 78.9638 122.3C79.0187 122.3 79.0736 122.282 79.1285 122.282C79.1834 122.282 79.2566 122.264 79.3115 122.264H79.3298C79.3847 122.264 79.4213 122.264 79.4762 122.264C81.3245 122.246 82.8068 123.783 82.8068 125.686Z" fill="white"/>
<path d="M149.84 53.2366C151.195 56.6953 151.304 59.9893 151.268 61.3252C146.308 59.4586 140.379 58.141 133.645 57.409C133.553 57.3907 133.462 57.3907 133.389 57.3724C128.814 56.8966 124.531 56.7502 121.128 56.7502C117.797 56.7502 115.327 56.8783 114.229 56.9515C114.54 55.6339 115.51 52.2667 117.889 49.1374C121.933 43.8121 127.935 41.671 135.713 42.7873C142.758 43.8121 147.516 47.3257 149.84 53.2366Z" fill="white"/>
<path d="M132.088 58.1776C128.574 59.9527 118.784 64.5643 113.952 63.4846C113.897 63.4663 113.861 63.4663 113.806 63.448H113.788C109.981 62.4781 105.919 62.35 103.375 62.3683L113.769 57.9031C114.575 57.8482 122.553 57.2809 132.088 58.1776Z" fill="white"/>
<path d="M133.755 58.3428C140.27 59.0565 146.016 60.3375 150.811 62.1309C150.774 62.808 150.682 63.7962 150.646 64.1805C150.481 65.8092 150.133 67.4196 149.639 68.9568C147.425 75.7278 142.264 80.7603 136.152 82.1145C134.56 82.4622 132.931 82.5537 131.303 82.389C130.699 82.3341 130.095 82.2243 129.491 82.0779C129.473 82.0779 129.454 82.0779 129.454 82.0779C129.345 82.0596 129.253 82.023 129.143 82.0047L129.088 81.9864C124.971 80.9067 121.421 78.1434 119.042 74.1357L119.335 74.1174L119.261 73.2024L118.621 73.2573C118.493 73.2756 118.383 73.2756 118.273 73.2756C117.23 73.3122 116.224 73.056 115.327 72.5253C113.716 71.592 112.71 69.8901 112.655 67.9869C112.637 67.4928 112.71 66.9987 112.875 66.5046C112.911 66.3948 112.948 66.3033 112.984 66.2118C113.149 65.7726 113.387 65.37 113.698 64.9857C113.826 64.821 113.973 64.638 114.119 64.4367C114.577 64.5099 115.071 64.5465 115.601 64.5465C118.2 64.5465 121.768 63.6498 126.252 61.8381C130.04 60.3192 133.261 58.6173 133.755 58.3428ZM129.546 77.5029C129.802 77.5029 129.985 77.2833 129.985 77.0271C129.985 76.7709 129.766 76.5696 129.509 76.5879L125.996 76.716C125.74 76.7343 125.538 76.9356 125.557 77.1918C125.575 77.448 125.776 77.631 126.014 77.631H126.032L129.546 77.5029ZM128.924 64.0524V63.1374H125.538V64.0524H128.924Z" fill="white"/>
<path d="M129.472 91.7207L127.129 97.1192C127.038 97.3388 126.836 97.3754 126.745 97.3937C126.653 97.3937 126.452 97.3937 126.324 97.1741L123.927 93.4226L127.715 89.9639L128.246 90.4946L129.472 91.7207Z" fill="white"/>
<path d="M141.056 92.9649L136.554 97.5948C136.353 97.7961 136.06 97.8876 135.785 97.8144C135.511 97.7412 135.291 97.5399 135.218 97.2654L133.846 92.4159L138.677 90.5859L141.056 92.9649Z" fill="white"/>
<path d="M135.822 86.0846L135.877 90.6413L132.802 92.1419L130.478 106.69V91.721L130.57 91.5197L129.271 90.2387L129.307 89.0675L129.472 83.3213C130.533 84.401 132.546 85.8284 135.822 86.0846Z" fill="white"/>
<path d="M170.848 134.671L153.756 137.91C153.72 137.141 153.646 136.391 153.573 135.641L170.537 132.42C170.647 133.17 170.757 133.921 170.848 134.671Z" fill="white"/>
<path d="M110.604 130.682L110.513 132.31L104.272 130.572L104.529 128.852L110.604 130.682Z" fill="white"/>
<path d="M110.459 133.262L109.343 151.708L95.5994 152.385L74.8838 140.875L81.7097 129.84L82.3319 128.852L82.3685 128.87L102.059 138.422L105.536 140.088L105.939 139.264L103.157 137.928L104.127 131.487L110.459 133.262Z" fill="white"/>
<path d="M132.839 174.675L141.696 187.283C141.019 188.967 139.811 190.358 138.237 191.273L138.219 191.291H138.201C136.993 191.986 135.62 192.352 134.211 192.352C133.9 192.352 133.607 192.334 133.314 192.298C131.997 192.151 130.716 191.675 129.636 190.907C127.458 189.406 126.159 186.936 126.159 184.282C126.159 182.489 126.726 180.805 127.806 179.396C127.824 179.378 127.824 179.378 127.824 179.359C127.824 179.359 127.824 179.341 127.843 179.341C127.861 179.323 127.861 179.305 127.861 179.286C127.879 179.268 127.879 179.25 127.879 179.231C127.879 179.213 127.898 179.195 127.898 179.176C127.916 179.067 127.898 178.957 127.824 178.865C127.55 178.353 127.404 177.767 127.404 177.182C127.404 175.169 129.032 173.54 131.045 173.54C131.521 173.54 131.979 173.632 132.399 173.796L132.271 173.888L132.839 174.675L133.04 174.528L133.223 174.4L132.839 174.675Z" fill="white"/>
<path d="M140.544 190.632C141.514 189.68 142.246 188.49 142.703 187.191L164.334 165.213C165.633 163.785 166.786 162.212 167.774 160.51L169.293 183.037L162.614 184.812L140.544 190.632Z" fill="white"/>
<path d="M132.418 151.471L147.589 150.409C146.509 153.337 141.751 165.342 135.035 171.527C134.468 172.04 133.992 172.461 133.607 172.772L132.418 151.471Z" fill="white"/>
<path d="M131.522 151.526L132.693 172.901C132.181 172.699 131.632 172.608 131.083 172.608C128.576 172.608 126.526 174.658 126.526 177.165C126.526 177.805 126.672 178.464 126.929 179.05C125.831 180.568 125.263 182.362 125.263 184.265C125.263 187.211 126.709 189.975 129.125 191.64C129.491 191.896 129.875 192.134 130.296 192.335H100.668H95.3977L92.8174 153.448L95.2879 153.32L105.664 152.807L106.067 164.611L118.364 163.769L117.797 152.222L131.522 151.526Z" fill="white"/>
<path d="M166.4 246.227L178.277 304.439L177.655 304.457L146.307 305.61L134.503 250.985C132.838 243.335 131.831 235.484 131.465 227.634L130.587 208.217L132.38 199.342L131.484 199.159L129.672 208.089V208.144L129.654 208.199L125.353 229.354C124.255 234.771 123.779 240.316 123.926 245.824L123.615 305.61H122.791H92.7793V242.219C92.7793 236.619 93.3649 231.019 94.5361 225.548L101.472 193.211H134.21C135.748 193.211 137.248 192.809 138.584 192.077L162.704 185.672L164.405 229.775C164.643 235.301 165.302 240.828 166.4 246.227Z" fill="white"/>
<path d="M333.187 334.673V335.588H322.939C322.994 335.515 323.031 335.423 323.031 335.313V334.673H333.187Z" fill="#203156"/>
<path d="M323.031 334.673V335.313C323.031 335.405 322.994 335.515 322.939 335.588H258.597V335.313H259.237V334.856H322.116V334.673H323.031Z" fill="#203156"/>
<path d="M258.597 335.588H322.939C322.866 335.698 322.72 335.771 322.573 335.771H258.597V335.588Z" fill="#203156"/>
<path d="M322.115 334.673H259.236V334.856H322.115V334.673Z" fill="#203156"/>
<path d="M297.082 293.277H296.625V293.735H297.082V293.277Z" fill="#203156"/>
<path d="M296.624 293.277H296.167V293.735H296.624V293.277Z" fill="#203156"/>
<path d="M296.185 293.735H281.874V311.98H296.185V293.735Z" fill="#203156"/>
<path d="M297.082 293.278H296.624H296.167H284.583V292.82H322.556C322.812 292.82 323.013 293.022 323.013 293.278V334.672H322.098V293.735H297.064V293.278H297.082Z" fill="#203156"/>
<path d="M284.601 293.277H296.166V293.735H281.874V293.277H283.686H284.601Z" fill="#203156"/>
<path d="M284.602 251.224V292.801H283.687V251.663H258.652V251.206V250.748H284.126C284.4 250.766 284.602 250.968 284.602 251.224Z" fill="#203156"/>
<path d="M284.601 292.82H283.686V293.278H284.601V292.82Z" fill="#203156"/>
<path d="M296.623 293.735V312.438H281.416V293.735H281.874V311.98H296.166V293.735H296.623Z" fill="#203156"/>
<path d="M281.874 293.277H281.416V293.735H281.874V293.277Z" fill="#203156"/>
<path d="M281.416 293.277H280.959V293.735H281.416V293.277Z" fill="#203156"/>
<path d="M297.081 312.438C297.081 312.694 296.88 312.895 296.624 312.895H281.398C281.142 312.895 280.94 312.694 280.94 312.438V293.735H281.398V312.438H296.624V293.735H297.081V312.438Z" fill="#203156"/>
<path d="M259.237 334.673H259.054V334.856H259.237V334.673Z" fill="#203156"/>
<path d="M259.237 293.735H259.054V334.672H259.237V293.735Z" fill="#203156"/>
<path d="M258.597 292.82H283.686V293.278H281.874H281.417H280.959V293.735H259.237V293.278H258.597V292.82Z" fill="#203156"/>
<path d="M258.596 293.735V293.277H259.236V293.735H259.053V334.672H258.321V293.735H258.596Z" fill="#203156"/>
<path d="M258.652 251.224H258.194V251.681H258.652V251.224Z" fill="#203156"/>
<path d="M258.596 335.771C258.45 335.771 258.304 335.698 258.23 335.588H258.596V335.771Z" fill="#203156"/>
<path d="M258.596 334.854H258.321V335.312H258.596V334.854Z" fill="#203156"/>
<path d="M258.596 334.856H258.321V334.673H259.053V334.856H259.236V335.313H258.596V334.856Z" fill="#203156"/>
<path d="M233.287 292.82H258.578C258.322 292.82 258.12 293.022 258.12 293.278V293.735H233.287V293.278V292.82Z" fill="#203156"/>
<path d="M258.596 293.277H258.321V293.735H258.596V293.277Z" fill="#203156"/>
<path d="M258.322 334.673H258.139V334.856H258.322V334.673Z" fill="#203156"/>
<path d="M258.322 293.735H258.139V334.672H258.322V293.735Z" fill="#203156"/>
<path d="M258.596 293.278H258.322V293.735H258.139V293.278C258.139 293.022 258.34 292.82 258.596 292.82V293.278Z" fill="#203156"/>
<path d="M258.322 335.312H258.596V335.586H258.23C258.175 335.513 258.139 335.422 258.139 335.312V334.854H258.322V335.312Z" fill="#203156"/>
<path d="M258.23 335.588H194.436C194.381 335.515 194.345 335.423 194.345 335.313V334.673H195.26V334.856H258.139V335.313C258.139 335.405 258.157 335.515 258.23 335.588Z" fill="#203156"/>
<path d="M258.195 251.224H257.737V251.681H258.195V251.224Z" fill="#203156"/>
<path d="M258.139 334.673H195.26V334.856H258.139V334.673Z" fill="#203156"/>
<path d="M257.754 251.681H243.443V269.926H257.754V251.681Z" fill="#203156"/>
<path d="M257.754 251.224H243.443V251.681H257.754V251.224Z" fill="#203156"/>
<path d="M258.194 251.681V270.383H242.986V251.681H243.444V269.926H257.736V251.681H258.194Z" fill="#203156"/>
<path d="M243.444 251.224H242.986V251.681H243.444V251.224Z" fill="#203156"/>
<path d="M242.986 251.224H242.528V251.681H242.986V251.224Z" fill="#203156"/>
<path d="M258.651 270.383C258.651 270.639 258.45 270.841 258.194 270.841H242.968C242.712 270.841 242.511 270.639 242.511 270.383V251.681H242.968V270.383H258.194V251.681H258.651V270.383Z" fill="#203156"/>
<path d="M233.288 293.277H232.83V293.735H233.288V293.277Z" fill="#203156"/>
<path d="M232.831 293.277H232.373V293.735H232.831V293.277Z" fill="#203156"/>
<path d="M232.373 293.735V311.98H218.081V293.735H220.167H232.373Z" fill="#203156"/>
<path d="M232.391 293.277H220.167V293.735H232.391V293.277Z" fill="#203156"/>
<path d="M232.373 293.277H220.149V292.819H219.691V251.242C219.691 250.985 219.893 250.784 220.149 250.784H258.652V251.242H258.195H257.737H243.426H242.969H242.511V251.699H220.606V292.838H233.288V293.295H232.831H232.373V293.277Z" fill="#203156"/>
<path d="M220.166 293.277V293.735C219.91 293.735 219.709 293.534 219.709 293.277H220.166Z" fill="#203156"/>
<path d="M220.166 292.82H219.709V293.278H220.166V292.82Z" fill="#203156"/>
<path d="M220.167 293.735H218.081V293.277H219.71C219.71 293.515 219.911 293.735 220.167 293.735Z" fill="#203156"/>
<path d="M218.082 311.98H232.374V293.735H232.831V312.438H217.624V293.735H218.082V311.98Z" fill="#203156"/>
<path d="M218.082 293.277H217.624V293.735H218.082V293.277Z" fill="#203156"/>
<path d="M217.624 293.277H217.166V293.735H217.624V293.277Z" fill="#203156"/>
<path d="M217.624 312.438H232.849V293.735H233.307V312.438C233.307 312.694 233.105 312.895 232.849 312.895H217.624C217.367 312.895 217.166 312.694 217.166 312.438V293.735H217.624V312.438Z" fill="#203156"/>
<path d="M217.165 293.278V293.735H195.26V334.672H194.345V293.278C194.345 293.022 194.546 292.82 194.802 292.82H219.709V293.278H218.08H217.622H217.165Z" fill="#203156"/>
<path d="M194.803 335.771C194.657 335.771 194.511 335.698 194.438 335.588H258.231C258.304 335.698 258.451 335.771 258.597 335.771H194.803Z" fill="#203156"/>
<path d="M194.42 335.588H187.265V334.673H194.328V335.313C194.347 335.405 194.365 335.515 194.42 335.588Z" fill="#203156"/>
<path d="M167.299 246.046L179.395 305.319L177.73 305.374L177.675 304.898L177.656 304.459L178.279 304.441L166.402 246.229C165.304 240.83 164.627 235.304 164.426 229.814L162.724 185.711L163.639 185.473L165.359 229.777C165.56 235.212 166.219 240.684 167.299 246.046Z" fill="#203156"/>
<path d="M178.681 314.522L178.736 314.925L177.821 315.017L177.766 314.541L178.681 314.522Z" fill="#203156"/>
<path d="M177.821 315.017L178.736 314.926L178.681 314.523L179.468 314.505L181.243 335.568L126.215 337.837L147.461 316.811L148.285 316.573L146.766 318.787L128.521 336.813L180.255 334.69L178.644 315.438H178.26L177.839 315.456L177.821 315.017Z" fill="#203156"/>
<path d="M177.729 305.373L178.68 314.523L177.765 314.541L177.29 309.857L177.637 309.875L177.729 308.96H177.637L177.253 305.391L177.729 305.373Z" fill="#203156"/>
<path d="M177.693 304.897L177.729 305.373L177.253 305.392L177.217 304.934L177.693 304.897Z" fill="#203156"/>
<path d="M177.637 308.96L177.674 309.418L177.235 309.381L177.18 308.924L177.637 308.96Z" fill="#203156"/>
<path d="M177.235 309.381L177.675 309.417L177.638 308.96H177.729L177.638 309.875L177.29 309.857L177.235 309.381Z" fill="#203156"/>
<path d="M177.253 305.393L177.637 308.961L177.179 308.924L176.813 305.411L177.234 305.393H177.253Z" fill="#203156"/>
<path d="M177.235 309.38L177.29 309.856L149.273 308.044L149.236 307.587L177.235 309.38Z" fill="#203156"/>
<path d="M177.217 304.936L177.253 305.393H177.235L176.814 305.411L176.777 304.99L177.217 304.936Z" fill="#203156"/>
<path d="M177.18 308.923L177.235 309.381L149.236 307.587L149.181 307.13L177.18 308.923Z" fill="#203156"/>
<path d="M176.814 305.41L177.18 308.924L149.181 307.13L149.107 306.417L176.814 305.41Z" fill="#203156"/>
<path d="M177.217 304.936L176.778 304.99L176.815 305.411L149.108 306.418L149.072 306.034L148.614 306.088V305.997L177.217 304.936Z" fill="#203156"/>
<path d="M171.854 135.421C172.568 141.862 172.532 151.031 168.56 158.991L168.542 158.863L167.627 158.918L167.572 158.882C167.609 158.808 167.645 158.735 167.682 158.68C171.598 150.921 171.635 141.936 170.939 135.586L171.415 135.494L171.69 135.439L171.854 135.421Z" fill="#203156"/>
<path d="M171.561 134.543L171.725 135.44L171.451 135.495L170.975 135.586C170.957 135.421 170.938 135.257 170.92 135.092C170.902 134.946 170.884 134.817 170.865 134.671L171.561 134.543Z" fill="#203156"/>
<path d="M170.958 135.586L153.811 138.844C153.811 138.715 153.792 138.569 153.792 138.441C153.792 138.276 153.774 138.093 153.756 137.929L170.848 134.689C170.866 134.836 170.885 134.964 170.903 135.11C170.921 135.257 170.94 135.421 170.958 135.586Z" fill="#203156"/>
<path d="M170.665 131.944L170.757 132.402L170.537 132.438C170.519 132.292 170.482 132.146 170.464 131.981L170.665 131.944Z" fill="#203156"/>
<path d="M170.574 131.487L170.665 131.945L170.464 131.981C170.446 131.835 170.409 131.67 170.391 131.524L170.574 131.487Z" fill="#203156"/>
<path d="M170.464 131.98C170.483 132.127 170.519 132.273 170.538 132.438L153.573 135.659C153.555 135.512 153.537 135.384 153.519 135.238C153.519 135.22 153.519 135.22 153.519 135.201L170.464 131.98Z" fill="#203156"/>
<path d="M170.464 131.98L153.518 135.201C153.499 135.036 153.481 134.89 153.463 134.743L170.39 131.522C170.409 131.669 170.427 131.815 170.464 131.98Z" fill="#203156"/>
<path d="M168.579 158.992L170.244 183.715L163.638 185.472L163.62 185.106L162.705 185.143L162.613 184.795L169.293 183.02L167.774 160.493C168.048 160.035 168.286 159.559 168.524 159.084C168.542 159.065 168.542 159.029 168.579 158.992Z" fill="#203156"/>
<path d="M168.56 158.864L168.578 158.992C168.56 159.029 168.541 159.066 168.523 159.102C168.285 159.578 168.029 160.054 167.773 160.511L167.663 158.919L168.56 158.864Z" fill="#203156"/>
<path d="M163.602 185.105L163.62 185.471L162.723 185.709L162.687 185.142L163.602 185.105Z" fill="#203156"/>
<path d="M162.686 185.142L162.704 185.709L138.585 192.114C138.585 192.114 138.585 192.114 138.603 192.114C138.622 192.114 138.64 192.096 138.658 192.096C139.354 191.693 139.976 191.217 140.543 190.668L162.595 184.812L162.686 185.142Z" fill="#203156"/>
<path d="M153.792 138.441C153.792 138.569 153.811 138.715 153.811 138.843L153.481 138.898L153.316 138.002L153.774 137.91C153.774 138.093 153.774 138.258 153.792 138.441Z" fill="#203156"/>
<path d="M153.517 135.239C153.536 135.385 153.554 135.513 153.572 135.66L153.151 135.751L153.096 135.477C153.096 135.422 153.078 135.367 153.078 135.312L153.536 135.22C153.517 135.202 153.517 135.22 153.517 135.239Z" fill="#203156"/>
<path d="M153.572 135.641C153.664 136.373 153.719 137.142 153.755 137.91L153.298 138.002C153.243 137.05 153.17 136.19 153.078 135.458L153.133 135.733L153.572 135.641Z" fill="#203156"/>
<path d="M153.061 135.275C153.061 135.329 153.08 135.384 153.08 135.439L152.97 134.817L153.446 134.726C153.464 134.872 153.482 135.018 153.5 135.183L153.061 135.275Z" fill="#203156"/>
<path d="M152.622 135.349C152.366 133.336 152.055 132.183 152.055 132.165L152.933 131.927C152.951 131.963 153.208 132.97 153.464 134.745L152.988 134.836L153.098 135.459C153.189 136.209 153.262 137.051 153.317 138.002C153.317 138.149 153.336 138.295 153.336 138.46C153.464 141.388 153.336 145.176 152.494 149.458C152.476 149.513 152.476 149.55 152.457 149.605L152.421 149.147L152.091 149.165C152.787 145.597 153.043 142.01 152.896 138.46C152.823 137.398 152.732 136.355 152.622 135.349Z" fill="#203156"/>
<path d="M152.439 149.641L152.476 150.062H152.348C152.384 149.933 152.421 149.787 152.439 149.641Z" fill="#203156"/>
<path d="M152.438 149.604V149.64C152.402 149.787 152.365 149.933 152.328 150.079L151.853 150.116C151.889 149.951 151.926 149.805 151.962 149.658L152.438 149.604Z" fill="#203156"/>
<path d="M152.073 95.6008L142.228 93.0754L142.338 92.9656L141.898 92.5264L152.183 95.1616C159.576 97.0648 165.359 102.829 167.262 110.222V110.259L171.105 130.517C171.178 130.92 171.252 131.359 171.343 131.853C171.526 132.896 171.673 133.958 171.801 135.019C171.819 135.165 171.837 135.312 171.856 135.458L171.709 135.476L171.544 134.58L170.831 134.708C170.739 133.958 170.629 133.207 170.501 132.475L170.721 132.439L170.629 131.981H170.648L170.886 131.945C170.812 131.505 170.739 131.066 170.648 130.627L166.805 110.369C164.956 103.104 159.32 97.4491 152.073 95.6008Z" fill="#203156"/>
<path d="M150.699 52.9432C152.511 57.5914 152.163 61.8553 152.145 62.0383C152.127 62.1847 152.053 62.3128 151.925 62.386C151.852 62.4226 151.779 62.4592 151.687 62.4592C151.706 62.2213 151.724 62.02 151.724 61.8736V61.8553C151.724 61.8187 151.724 61.7821 151.724 61.7638L151.23 61.7455L151.248 61.3612C151.266 60.0253 151.175 56.713 149.821 53.2726C147.497 47.3434 142.739 43.8481 135.693 42.8233C127.916 41.707 121.931 43.8481 117.869 49.1734C115.49 52.3027 114.52 55.6699 114.209 56.9875C115.307 56.9143 117.777 56.7862 121.108 56.7862C124.512 56.7862 128.794 56.9326 133.369 57.4084L133.351 57.5365C133.332 57.5548 132.857 57.811 132.051 58.1953C122.517 57.2986 114.538 57.8659 113.733 57.9391L113.806 57.9025L113.44 57.0607L113.221 57.1522C113.422 56.1274 114.355 52.2661 117.119 48.6061C120.047 44.7448 125.665 40.4443 135.803 41.9083C145.063 43.2076 149.015 48.6244 150.699 52.9432Z" fill="#203156"/>
<path d="M151.963 96.0405L141.861 93.4419L142.227 93.0576L152.073 95.583C159.301 97.4313 164.956 103.086 166.823 110.315L170.666 130.573C170.757 131.012 170.83 131.451 170.903 131.89L170.666 131.927H170.647L170.556 131.469L170.354 131.506C170.3 131.195 170.245 130.92 170.19 130.646L166.347 110.406C164.553 103.361 159.027 97.8522 151.963 96.0405Z" fill="#203156"/>
<path d="M152.403 149.146L152.44 149.603L151.964 149.64C151.982 149.603 151.982 149.548 152 149.512V149.493C152 149.475 152.019 149.457 152.019 149.438C152.019 149.42 152.037 149.383 152.037 149.365C152.055 149.31 152.055 149.237 152.074 149.182L152.403 149.146Z" fill="#203156"/>
<path d="M148.596 150.336L151.853 150.116C150.48 155.24 145.357 161.371 140.8 166.037C145.21 159.486 148.028 151.928 148.596 150.336Z" fill="#203156"/>
<path d="M151.743 61.8549C151.743 62.0013 151.725 62.2209 151.707 62.4405C151.652 62.4405 151.597 62.4222 151.542 62.4039C151.395 62.349 151.267 62.2941 151.139 62.2392C151.029 62.2026 150.938 62.166 150.828 62.1294C150.828 62.0196 150.846 61.9098 150.846 61.8C150.846 61.7451 150.846 61.7085 150.846 61.6719L151.267 61.6902L151.761 61.7085C151.761 61.7451 151.761 61.7634 151.761 61.8V61.8549H151.743Z" fill="#203156"/>
<path d="M146.766 318.787L149.346 316.243L149.492 316.207L149.95 316.188L150.956 326.876C151.103 328.376 150.48 329.859 149.309 330.81C148.486 331.469 147.479 331.817 146.454 331.817C146.015 331.817 145.558 331.743 145.119 331.615C143.197 331.03 141.916 329.291 141.916 327.278C141.916 326.363 142.191 325.485 142.703 324.735L146.766 318.787ZM149.09 317.012L143.453 325.265C143.032 325.869 142.813 326.565 142.813 327.297C142.813 328.907 143.838 330.298 145.375 330.755C146.546 331.121 147.772 330.883 148.724 330.115C149.657 329.346 150.151 328.175 150.041 326.967L149.09 317.012Z" fill="#203156"/>
<path d="M149.968 315.273L149.949 315.145L150.041 315.181C150.096 315.199 150.132 315.236 150.169 315.273H149.968Z" fill="#203156"/>
<path d="M177.839 315.458L149.95 316.19L149.932 316.08L150.023 316.062C150.206 316.007 150.334 315.842 150.353 315.641C150.353 315.495 150.298 315.366 150.206 315.275L177.784 314.543L177.839 315.019V315.458Z" fill="#203156"/>
<path d="M149.967 315.273L150.004 315.658L149.876 315.676V315.658C149.858 315.493 149.748 315.347 149.583 315.273H149.967Z" fill="#203156"/>
<path d="M150.004 315.658L149.967 315.273H150.187C150.279 315.365 150.352 315.493 150.333 315.639C150.315 315.822 150.187 315.987 150.004 316.06L149.913 316.079L149.876 315.731V315.713V315.694L150.004 315.658Z" fill="#203156"/>
<path d="M149.602 315.292H149.419H149.236C149.328 315.255 149.438 315.237 149.547 315.255C149.566 315.274 149.584 315.274 149.602 315.292Z" fill="#203156"/>
<path d="M149.565 316.189L149.913 316.079L149.931 316.189L149.474 316.207L149.51 316.189C149.529 316.189 149.547 316.189 149.565 316.189Z" fill="#203156"/>
<path d="M149.492 316.206L149.346 316.243L149.382 316.206H149.492Z" fill="#203156"/>
<path d="M149.345 316.244L146.765 318.788L148.284 316.574L149.345 316.244Z" fill="#203156"/>
<path d="M149.235 307.588L149.272 308.046L148.741 308.009L148.76 307.552L149.235 307.588Z" fill="#203156"/>
<path d="M149.052 315.291H149.235C149.162 315.309 149.107 315.364 149.07 315.419L149.052 315.291Z" fill="#203156"/>
<path d="M149.182 307.13L149.237 307.588L148.761 307.551L148.797 307.094L149.182 307.13Z" fill="#203156"/>
<path d="M149.054 315.292L148.999 314.725L149.713 315.017L149.969 315.127L149.987 315.255H149.621C149.603 315.255 149.585 315.237 149.566 315.237C149.457 315.2 149.347 315.219 149.255 315.274L149.054 315.292Z" fill="#203156"/>
<path d="M149.108 306.417L149.181 307.131L148.797 307.094L148.76 307.552L148.65 306.454L149.108 306.417Z" fill="#203156"/>
<path d="M149.108 306.417L148.651 306.453L148.614 306.087L149.072 306.032L149.108 306.417Z" fill="#203156"/>
<path d="M149.676 315.694L149.109 315.785V315.749L149.072 315.419C149.109 315.364 149.182 315.309 149.237 315.291H149.42H149.603C149.768 315.346 149.877 315.492 149.896 315.675V315.694H149.676Z" fill="#203156"/>
<path d="M149.016 315.492L149.053 315.456C149.053 315.456 149.053 315.438 149.071 315.438L149.108 315.767V315.803L149.675 315.712L149.895 315.694V315.712V315.73L149.931 316.078L149.583 316.188C149.565 316.188 149.547 316.206 149.529 316.206L149.492 316.224H149.382L149.346 316.261L148.284 316.572L149.016 315.492Z" fill="#203156"/>
<path d="M148.999 315.291H149.054L149.072 315.419C149.072 315.419 149.072 315.437 149.054 315.437L149.017 315.474L148.285 316.535L147.462 316.773L148.999 315.291Z" fill="#203156"/>
<path d="M148.999 314.743L149.054 315.31H148.999L147.461 316.829L139.208 319.318C138.787 319.446 138.33 319.519 137.891 319.519C136.847 319.519 135.841 319.172 135.017 318.495C133.846 317.525 133.242 316.061 133.389 314.542C133.627 312.218 135.566 310.461 137.891 310.461C138.494 310.461 139.08 310.589 139.666 310.827L148.999 314.743ZM148.541 315.53L139.318 311.632C138.86 311.431 138.385 311.339 137.909 311.339C136.042 311.339 134.487 312.748 134.304 314.597C134.176 315.823 134.651 316.957 135.603 317.744C136.536 318.513 137.781 318.769 138.952 318.421L148.541 315.53Z" fill="#203156"/>
<path d="M148.998 314.742L148.192 306.452H148.65L148.76 307.55L148.741 308.008L149.272 308.044L149.967 315.145L149.711 315.035L148.998 314.742Z" fill="#203156"/>
<path d="M148.266 149.914L148.705 150.06C148.686 150.097 148.668 150.189 148.613 150.335L148.119 150.372C148.192 150.097 148.247 149.932 148.266 149.914Z" fill="#203156"/>
<path d="M148.614 306.088L148.651 306.454H148.193L148.175 306.125L148.614 306.088Z" fill="#203156"/>
<path d="M148.613 305.996V306.087L148.155 306.124L148.192 306.453L145.593 306.545L133.607 251.169C131.941 243.465 130.917 235.577 130.551 227.672L129.837 211.915L130.569 208.274L130.587 208.219L131.466 227.635C131.813 235.486 132.838 243.336 134.503 250.986L146.325 305.611L177.673 304.458L177.691 304.898L177.216 304.953L148.613 305.996Z" fill="#203156"/>
<path d="M148.266 149.914L151.981 149.658C151.944 149.805 151.907 149.969 151.871 150.116L148.613 150.335C148.668 150.189 148.705 150.097 148.705 150.061L148.266 149.914Z" fill="#203156"/>
<path d="M148.266 149.914C148.266 149.932 148.211 150.097 148.101 150.39L147.589 150.426C147.662 150.225 147.717 150.06 147.754 149.951L148.266 149.914Z" fill="#203156"/>
<path d="M147.772 149.933C147.809 149.823 147.827 149.768 147.846 149.75L148.267 149.896L147.772 149.933Z" fill="#203156"/>
<path d="M132.4 151.013L147.772 149.934C147.736 150.043 147.681 150.208 147.608 150.409L132.437 151.471L132.4 151.013Z" fill="#203156"/>
<path d="M140.251 63.9227C142.191 63.6482 144.002 65.0207 144.277 66.9605C144.405 67.9121 144.167 68.8454 143.582 69.5957C143.252 70.0532 142.813 70.4009 142.319 70.6388C141.971 70.8035 141.605 70.9133 141.221 70.9682L141.111 70.163C141.843 70.0532 142.484 69.6872 142.923 69.1016C143.362 68.516 143.545 67.8023 143.453 67.0703C143.362 66.3383 142.978 65.6978 142.392 65.2586C141.806 64.8194 141.093 64.6364 140.361 64.7279L140.251 63.9227Z" fill="#203156"/>
<path d="M148.596 150.336C148.029 151.928 145.21 159.486 140.8 166.037C140.123 166.733 139.446 167.41 138.787 168.032C143.893 161.371 147.315 152.495 148.084 150.373L148.596 150.336Z" fill="#203156"/>
<path d="M152.347 150.08C150.828 156.082 144.258 163.384 139.171 168.325C139.738 167.593 140.287 166.825 140.818 166.038C145.375 161.371 150.499 155.241 151.871 150.117L152.347 150.08Z" fill="#203156"/>
<path d="M142.299 186.496C142.555 186.496 142.757 186.697 142.757 186.954C142.757 187.027 142.738 187.082 142.72 187.137C142.72 187.155 142.702 187.173 142.702 187.192L142.629 187.265L142.336 186.972L142.519 186.844L142.263 186.496C142.281 186.496 142.299 186.496 142.299 186.496Z" fill="#203156"/>
<path d="M142.336 92.9468L142.226 93.0749L141.659 92.9285L141.787 92.4893L141.897 92.5076L142.336 92.9468Z" fill="#203156"/>
<path d="M142.702 187.211C142.245 188.51 141.513 189.681 140.543 190.651L138.31 191.237L138.255 191.255L138.219 191.273C139.793 190.358 141 188.968 141.677 187.284L142.062 187.851L142.611 187.284L142.318 186.991L142.611 187.284L142.702 187.211Z" fill="#203156"/>
<path d="M142.757 186.953C142.757 186.697 142.555 186.496 142.299 186.496C142.281 186.496 142.281 186.496 142.263 186.496L142.189 186.404L163.637 164.572C165.174 162.889 166.492 160.986 167.572 158.899L167.626 158.936L167.736 160.528C166.766 162.23 165.613 163.804 164.296 165.231L142.702 187.21C142.702 187.191 142.72 187.173 142.72 187.155C142.757 187.081 142.757 187.027 142.757 186.953Z" fill="#203156"/>
<path d="M142.282 186.496L142.538 186.844L142.355 186.972L141.989 186.624L142.117 186.496H142.264C142.264 186.496 142.264 186.496 142.282 186.496Z" fill="#203156"/>
<path d="M142.208 186.405L142.281 186.497H142.263H142.116L142.208 186.405Z" fill="#203156"/>
<path d="M142.227 93.0751L141.861 93.4411L141.55 93.3679L141.641 93.0202L141.696 92.9653L141.66 92.9287L142.227 93.0751Z" fill="#203156"/>
<path d="M133.663 174.234L142.209 186.386L142.117 186.477H141.989L141.879 186.788C141.824 186.935 141.77 187.099 141.715 187.246L132.857 174.637L133.242 174.362L133.681 174.344L133.663 174.234Z" fill="#203156"/>
<path d="M142.337 186.989L142.63 187.282L142.081 187.85L141.696 187.282C141.751 187.136 141.806 186.971 141.861 186.825L141.971 186.514H142.099L141.971 186.642L142.337 186.989Z" fill="#203156"/>
<path d="M141.696 92.9653L141.641 93.0202L141.659 92.9287L141.696 92.9653Z" fill="#203156"/>
<path d="M138.897 89.5981L138.659 90.4948L137.323 90.1105L138.751 89.5615L138.897 89.5981Z" fill="#203156"/>
<path d="M138.659 192.079C138.879 191.951 138.952 191.676 138.824 191.457C138.714 191.274 138.513 191.182 138.312 191.237L140.544 190.651C139.995 191.2 139.355 191.676 138.659 192.079L138.623 192.097C138.623 192.097 138.641 192.079 138.659 192.079Z" fill="#203156"/>
<path d="M138.75 89.5624L137.322 90.1114L136.792 89.9467L136.773 88.9951L138.75 89.5624Z" fill="#203156"/>
<path d="M138.824 191.457C138.952 191.676 138.879 191.951 138.659 192.079C138.641 192.079 138.623 192.097 138.623 192.097C138.604 192.097 138.586 192.116 138.568 192.116L138.458 191.695L138.238 191.274L138.257 191.255L138.293 191.237L138.348 191.219C138.513 191.182 138.732 191.274 138.824 191.457Z" fill="#203156"/>
<path d="M138.605 192.097L138.55 192.115C138.568 192.115 138.586 192.097 138.605 192.097Z" fill="#203156"/>
<path d="M138.439 192.134C138.275 192.134 138.128 192.06 138.037 191.896C137.909 191.676 137.982 191.402 138.201 191.273C138.201 191.273 138.201 191.273 138.22 191.273L138.439 191.694L138.549 192.115C138.512 192.115 138.476 192.134 138.439 192.134Z" fill="#203156"/>
<path d="M138.603 192.097C137.267 192.847 135.767 193.231 134.229 193.231V192.316C135.62 192.316 137.011 191.95 138.219 191.255H138.237C138.237 191.255 138.237 191.255 138.219 191.255C137.999 191.383 137.926 191.657 138.054 191.877C138.146 192.023 138.292 192.115 138.457 192.115C138.493 192.115 138.53 192.115 138.567 192.097H138.603Z" fill="#203156"/>
<path d="M136.793 90.3125L136.811 90.953H135.896L135.878 90.6419L136.793 90.3125Z" fill="#203156"/>
<path d="M136.773 88.9951L136.791 89.9467L136.242 89.782L136.498 88.9219L136.773 88.9951Z" fill="#203156"/>
<path d="M136.7 82.9189L136.736 85.5724C136.7 85.3528 136.517 85.1881 136.297 85.1881C136.279 85.1881 136.279 85.1881 136.279 85.1881L136.242 83.0104C136.279 83.0104 136.297 82.9921 136.334 82.9921C136.462 82.9921 136.59 82.9555 136.7 82.9189Z" fill="#203156"/>
<path d="M136.7 82.5527V82.9187C136.572 82.9553 136.462 82.9736 136.334 83.0102C136.297 83.0102 136.279 83.0285 136.242 83.0285V82.5527H136.7Z" fill="#203156"/>
<path d="M136.737 85.59V85.7364C136.701 85.956 136.518 86.1207 136.28 86.1207H136.261C136.115 86.1207 135.969 86.1024 135.822 86.1024V85.6449C135.969 85.6632 136.133 85.6632 136.28 85.6815V85.224H136.298C136.518 85.2057 136.701 85.3704 136.737 85.59Z" fill="#203156"/>
<path d="M135.877 90.6424L135.822 86.0857C135.969 86.104 136.115 86.104 136.261 86.104H136.28C136.499 86.104 136.701 85.9393 136.737 85.7197L136.774 88.9771L136.499 88.9039L136.243 89.7823L136.792 89.947V90.2947L135.877 90.6424Z" fill="#203156"/>
<path d="M136.244 83.0283L136.28 85.206C136.116 85.206 135.969 85.1877 135.823 85.1694L135.805 83.1198C135.951 83.0832 136.097 83.0649 136.244 83.0283Z" fill="#203156"/>
<path d="M136.243 82.5527V83.0285C136.096 83.0651 135.932 83.0834 135.785 83.12V82.6625C135.932 82.6259 136.096 82.5893 136.243 82.5527Z" fill="#203156"/>
<path d="M135.785 82.5703H136.243C136.096 82.6069 135.95 82.6435 135.785 82.6618V82.5703Z" fill="#203156"/>
<path d="M136.28 85.663C136.115 85.663 135.969 85.6447 135.822 85.6264V85.1689C135.969 85.1872 136.133 85.1872 136.28 85.2055V85.663Z" fill="#203156"/>
<path d="M152.896 149.713C151.212 157.637 140.36 168.013 135.712 172.167C136.938 171.033 138.091 169.715 139.171 168.324C144.258 163.383 150.828 156.082 152.347 150.079H152.475L152.438 149.658C152.438 149.658 152.438 149.64 152.438 149.622C152.456 149.567 152.456 149.512 152.475 149.475C153.317 145.175 153.445 141.405 153.317 138.477C153.317 138.331 153.298 138.166 153.298 138.02L153.463 138.916L153.792 138.861C153.92 142.412 153.628 145.998 152.914 149.567V149.585C152.914 149.603 152.914 149.622 152.896 149.64C152.914 149.658 152.896 149.677 152.896 149.713Z" fill="#203156"/>
<path d="M135.821 85.1695V85.627C132.856 85.3891 130.99 84.163 129.91 83.1016C130.185 83.1565 130.477 83.1931 130.752 83.2297C131.777 84.0898 133.405 84.9682 135.821 85.1695Z" fill="#203156"/>
<path d="M135.785 83.1191L135.803 85.1687C133.406 84.9674 131.777 84.089 130.734 83.2472C130.881 83.2655 131.045 83.2838 131.192 83.3021C131.759 83.357 132.326 83.3936 132.875 83.3936C133.864 83.3753 134.834 83.3021 135.785 83.1191Z" fill="#203156"/>
<path d="M135.347 171.875C136.573 170.74 137.726 169.441 138.805 168.032C139.446 167.41 140.123 166.733 140.818 166.037C140.288 166.824 139.757 167.574 139.171 168.325C137.726 169.734 136.39 170.942 135.347 171.875Z" fill="#203156"/>
<path d="M135.638 172.223L135.327 171.875C136.389 170.942 137.706 169.716 139.152 168.307C138.072 169.716 136.919 171.015 135.693 172.15C135.693 172.186 135.657 172.205 135.638 172.223Z" fill="#203156"/>
<path d="M135.054 171.526C141.77 165.34 146.51 153.317 147.608 150.408L148.12 150.371C147.351 152.494 143.929 161.369 138.824 168.031C137.36 169.44 136.06 170.629 135.054 171.526Z" fill="#203156"/>
<path d="M138.806 168.032C137.726 169.441 136.573 170.759 135.347 171.875L135.036 171.528C136.061 170.631 137.36 169.441 138.806 168.032Z" fill="#203156"/>
<path d="M135.347 171.875L135.658 172.222C135.676 172.204 135.694 172.186 135.731 172.167C135.713 172.186 135.694 172.204 135.676 172.222L135.658 172.241L135.639 172.259C135.639 172.259 135.658 172.259 135.658 172.241L135.054 171.563L135.347 171.875Z" fill="#203156"/>
<path d="M134.98 171.6C134.98 171.582 134.999 171.582 134.98 171.6C134.999 171.582 134.999 171.582 135.017 171.563L135.621 172.241C135.621 172.241 135.621 172.241 135.603 172.259L135.584 172.277L135.456 172.112L134.98 171.6Z" fill="#203156"/>
<path d="M134.999 171.582C134.999 171.582 134.981 171.582 134.999 171.582L134.981 171.6L135.475 172.113L135.603 172.277C134.725 173.064 134.048 173.65 133.663 173.961V173.906C133.737 173.76 133.718 173.577 133.645 173.449L133.608 172.808C133.956 172.497 134.45 172.076 134.999 171.582C135.018 171.564 134.999 171.564 134.999 171.582Z" fill="#203156"/>
<path d="M134.34 97.503L133.406 94.2273L133.571 93.1659L134.779 97.3749C135.053 98.3082 136.206 98.601 136.883 97.9056L141.641 93.0195L141.55 93.3672L141.861 93.4404L137.213 98.2167C136.883 98.5461 136.444 98.7291 135.987 98.7291C135.84 98.7291 135.694 98.7108 135.566 98.6742C134.962 98.5461 134.504 98.0886 134.34 97.503Z" fill="#203156"/>
<path d="M134.231 193.25H101.474L101.547 192.884L100.65 192.682V192.316H130.26C131.175 192.774 132.181 193.067 133.206 193.176C133.554 193.231 133.883 193.25 134.231 193.25Z" fill="#203156"/>
<path d="M133.736 92.1966L133.279 92.1234L132.821 92.0502V92.1417V92.0502L135.877 90.6411L135.896 90.9522H136.811L136.792 90.3117L137.323 90.1104L138.659 90.4947V90.5679L133.828 92.3979L133.7 92.3796L133.736 92.1966Z" fill="#203156"/>
<path d="M136.883 97.907C136.206 98.6024 135.034 98.3096 134.778 97.3763L133.57 93.1673L133.698 92.3804L133.827 92.3987L135.199 97.2483C135.272 97.5228 135.492 97.7424 135.766 97.7973C136.041 97.8705 136.334 97.7789 136.535 97.5776L141.037 92.9477L138.639 90.5504L138.621 90.4589L138.877 89.5805L138.731 89.5439L138.877 89.5805L141.879 92.4902L141.75 92.4536L141.641 92.8928L141.622 92.9843L136.883 97.907Z" fill="#203156"/>
<path d="M133.371 57.499L133.81 58.3042C133.81 58.3042 133.791 58.3225 133.737 58.3408C133.663 58.3408 133.608 58.3225 133.535 58.3225C133.041 58.2676 132.565 58.2127 132.071 58.1761C132.876 57.7735 133.352 57.5173 133.371 57.499Z" fill="#203156"/>
<path d="M133.718 192.828L133.7 192.883L132.821 192.663V192.608L133.718 192.828Z" fill="#203156"/>
<path d="M133.626 173.448C133.717 173.576 133.717 173.759 133.644 173.906L133.626 173.448Z" fill="#203156"/>
<path d="M133.572 93.1671L133.279 92.124L133.737 92.1972L133.7 92.3802L133.572 93.1671Z" fill="#203156"/>
<path d="M133.224 174.4L133.59 174.144L133.663 174.235L133.681 174.363L133.224 174.4Z" fill="#203156"/>
<path d="M133.809 58.3054L133.37 57.5002L133.388 57.3721C133.48 57.3904 133.553 57.3904 133.645 57.4087C140.379 58.1407 146.308 59.4583 151.268 61.3249L151.249 61.7092L150.828 61.6909C150.828 61.7275 150.828 61.7641 150.828 61.819C150.828 61.9105 150.81 62.0203 150.81 62.1484C145.997 60.355 140.269 59.074 133.754 58.3603C133.791 58.3237 133.809 58.3054 133.809 58.3054Z" fill="#203156"/>
<path d="M133.407 173.265C133.334 173.229 133.279 173.192 133.206 173.156C133.316 173.064 133.444 172.954 133.609 172.826L133.645 173.467C133.609 173.412 133.572 173.375 133.517 173.339C133.462 173.302 133.426 173.265 133.407 173.265Z" fill="#203156"/>
<path d="M133.278 92.124L133.571 93.1671L133.406 94.2285L133.113 93.1854L133.278 92.124Z" fill="#203156"/>
<path d="M133.497 173.321C133.552 173.358 133.589 173.413 133.625 173.449L133.644 173.907C133.644 173.925 133.625 173.943 133.625 173.962C133.479 174.181 133.204 174.236 132.985 174.09L132.948 174.072C132.875 174.035 132.82 173.998 132.747 173.962L132.729 173.706V173.577C132.765 173.541 132.82 173.486 132.893 173.431L132.912 173.413C132.93 173.413 132.93 173.394 132.948 173.394L132.966 173.376C133.04 173.321 133.113 173.248 133.204 173.175C133.278 173.211 133.332 173.248 133.406 173.285C133.424 173.266 133.461 173.303 133.497 173.321Z" fill="#203156"/>
<path d="M133.279 92.124L133.114 93.1854L132.821 92.1423V92.0508L133.279 92.124Z" fill="#203156"/>
<path d="M133.589 174.126L133.534 174.052C133.534 174.052 133.534 174.052 133.552 174.052C133.589 174.016 133.626 173.998 133.662 173.961L133.681 174.235L133.589 174.126L133.223 174.382L133.04 174.51L133.589 174.126Z" fill="#203156"/>
<path d="M133.041 174.51L132.84 174.656L133.041 174.51Z" fill="#203156"/>
<path d="M132.765 174.546L132.729 173.943C132.802 173.979 132.875 174.016 132.93 174.052L132.966 174.071C133.186 174.217 133.461 174.162 133.607 173.943C133.625 173.924 133.625 173.906 133.625 173.888V173.943C133.589 173.979 133.552 173.997 133.515 174.034C133.515 174.034 133.515 174.034 133.497 174.034L133.552 174.107L133.003 174.492L132.802 174.638L132.765 174.546Z" fill="#203156"/>
<path d="M135.822 86.0842C132.546 85.828 130.533 84.4006 129.453 83.3026V83.0098C129.6 83.0464 129.746 83.0647 129.892 83.1013C130.972 84.1627 132.839 85.3888 135.803 85.6267L135.822 86.0842Z" fill="#203156"/>
<path d="M132.95 173.357C132.931 173.375 132.913 173.394 132.913 173.394L132.895 173.412C132.821 173.467 132.767 173.522 132.73 173.558L132.693 172.918C132.876 172.991 133.041 173.064 133.206 173.156C133.096 173.229 133.023 173.302 132.95 173.357Z" fill="#203156"/>
<path d="M132.767 174.547L132.84 174.657L132.291 173.888L132.419 173.797C132.529 173.833 132.639 173.888 132.73 173.943L132.767 174.547Z" fill="#203156"/>
<path d="M132.82 192.609L132.802 192.664L133.698 192.884L133.717 192.829L132.82 192.609ZM133.223 193.195C132.198 193.085 131.191 192.792 130.276 192.335H134.229V193.25C133.881 193.25 133.552 193.232 133.223 193.195Z" fill="#203156"/>
<path d="M132.711 173.668L132.729 173.924C132.638 173.869 132.528 173.833 132.418 173.778L132.638 173.613C132.638 173.613 132.674 173.595 132.711 173.54V173.668Z" fill="#203156"/>
<path d="M131.264 82.8441C132.802 83.0088 134.321 82.9356 135.785 82.6611V83.1186C134.833 83.3016 133.863 83.3748 132.893 83.3748C132.326 83.3748 131.759 83.3382 131.21 83.2833C131.063 83.265 130.898 83.2467 130.752 83.2284C130.514 83.0454 130.313 82.8441 130.13 82.6611C130.496 82.7526 130.88 82.8075 131.264 82.8441Z" fill="#203156"/>
<path d="M132.4 151.013L132.418 151.47L131.961 151.507L131.942 151.049L132.4 151.013Z" fill="#203156"/>
<path d="M132.382 150.573L132.4 151.012L131.943 151.049L131.906 150.592L132.382 150.573Z" fill="#203156"/>
<path d="M131.906 150.592L152.073 149.165C152.055 149.22 152.055 149.293 152.036 149.348C152.036 149.366 152.018 149.403 152.018 149.421C152.018 149.44 152.018 149.458 152 149.476V149.494C152 149.531 151.981 149.586 151.963 149.623L148.248 149.879L147.827 149.732C147.827 149.732 147.809 149.806 147.754 149.915L132.382 150.995L132.364 150.556L131.906 150.592Z" fill="#203156"/>
<path d="M131.906 150.592L110.257 151.654L111.41 132.475L112.416 115.767L111.501 115.713L110.66 129.73L104.657 127.919L106.67 114.706C107.896 106.617 112.929 99.4804 120.121 95.5825L123.159 93.9355L125.519 97.6504C125.775 98.053 126.215 98.2909 126.672 98.2909C126.709 98.2909 126.745 98.2909 126.782 98.2909C127.294 98.2543 127.734 97.9432 127.935 97.4674L129.527 93.8074V112.4L129.984 112.437L130.442 112.473L133.388 94.21L134.322 97.4857C134.486 98.0713 134.944 98.5288 135.548 98.6752C135.694 98.7118 135.84 98.7301 135.969 98.7301C136.426 98.7301 136.865 98.5471 137.195 98.2177L141.843 93.4414L151.944 96.04C159.008 97.8517 164.535 103.36 166.347 110.424L170.19 130.664C170.244 130.938 170.299 131.213 170.354 131.524L153.427 134.745C153.189 132.969 152.914 131.963 152.896 131.926L152.018 132.164C152.018 132.183 152.329 133.335 152.585 135.348C152.713 136.355 152.805 137.416 152.841 138.478C153.006 142.01 152.731 145.615 152.036 149.183L131.906 150.592Z" fill="#F1842E"/>
<path d="M131.521 151.525L117.778 152.202L117.76 151.744L131.942 151.049L131.979 151.506L132.436 151.47L133.608 172.808C133.461 172.936 133.333 173.045 133.205 173.137C133.04 173.045 132.857 172.972 132.693 172.899L131.521 151.525Z" fill="#203156"/>
<path d="M130.588 208.183L130.606 208.238L130.588 208.292L129.838 211.934L129.673 208.219L130.588 208.183Z" fill="#203156"/>
<path d="M130.479 106.69L132.821 92.1416L133.114 93.1847L130.021 112.418V92.7638L130.479 91.7207V106.69Z" fill="#203156"/>
<path d="M130.479 91.6289V91.7204L130.021 92.7635V91.6289H130.479Z" fill="#203156"/>
<path d="M130.021 112.417L133.114 93.1836L133.407 94.2267L130.46 112.49L130.003 112.453L130.021 112.417Z" fill="#203156"/>
<path d="M130.131 82.6808C130.314 82.8638 130.515 83.0468 130.753 83.2481C130.478 83.2115 130.204 83.1749 129.911 83.12C129.746 82.9553 129.618 82.8089 129.49 82.6625V82.5527C129.692 82.5893 129.911 82.6442 130.131 82.6808Z" fill="#203156"/>
<path d="M130.021 91.6289V92.7635L129.563 93.8249V92.672L130.021 91.6289Z" fill="#203156"/>
<path d="M130.021 91.6289L129.563 92.672V91.7204V91.6289H130.021Z" fill="#203156"/>
<path d="M130.021 112.418L130.003 112.454L129.563 112.418V93.8251L130.021 92.7637V112.418Z" fill="#203156"/>
<path d="M129.984 77.0261C129.984 77.2823 129.801 77.4836 129.545 77.5019L126.031 77.63H126.013C125.775 77.63 125.574 77.4287 125.556 77.1908C125.556 76.9346 125.739 76.7333 125.995 76.715L129.508 76.5869C129.765 76.5869 129.966 76.7882 129.984 77.0261Z" fill="#203156"/>
<path d="M129.673 208.219L129.838 211.934L126.269 229.557C125.19 234.9 124.714 240.372 124.86 245.844L124.549 306.545H122.811V306.087V305.63H123.634L123.945 245.844C123.799 240.317 124.275 234.772 125.373 229.374L129.673 208.219Z" fill="#203156"/>
<path d="M129.691 208.09L131.503 199.159L132.4 199.342L130.606 208.236L130.588 208.181L129.673 208.218V208.144L129.691 208.09Z" fill="#203156"/>
<path d="M129.471 82.6436C129.6 82.79 129.746 82.9364 129.892 83.1011C129.746 83.0645 129.6 83.0462 129.453 83.0096L129.471 82.6436Z" fill="#203156"/>
<path d="M135.785 82.6625C134.321 82.937 132.803 83.0102 131.265 82.8455C130.881 82.8089 130.497 82.754 130.131 82.6808C129.966 82.5161 129.838 82.3697 129.728 82.2233C129.673 82.1501 129.582 82.0952 129.49 82.0769C130.094 82.2233 130.698 82.3148 131.302 82.388C132.912 82.5527 134.559 82.4612 136.151 82.1135C142.264 80.7776 147.424 75.7268 149.639 68.9558C150.133 67.4186 150.48 65.8082 150.645 64.1795C150.682 63.7952 150.755 62.7887 150.81 62.1299C150.92 62.1665 151.011 62.2031 151.121 62.2397C151.267 62.2946 151.395 62.3495 151.523 62.4044C151.578 62.4227 151.633 62.441 151.688 62.441C151.652 63.0815 151.578 63.905 151.542 64.2893C151.359 65.9912 151.011 67.6565 150.48 69.2486C148.211 76.1843 142.941 81.3998 136.682 82.9187V82.5527H136.225C136.225 82.5527 136.225 82.5527 136.206 82.5527H135.749L135.785 82.6625Z" fill="#203156"/>
<path d="M129.473 91.7213L128.247 90.4952L128.339 90.4037L129.254 90.422L129.272 90.2207L130.48 91.6298V91.7213V91.6298H130.022H129.565V91.7213H129.473Z" fill="#203156"/>
<path d="M129.49 82.5535V82.6633C129.453 82.6267 129.416 82.5718 129.38 82.5352C129.416 82.5352 129.453 82.5352 129.49 82.5535Z" fill="#203156"/>
<path d="M129.489 82.4432L128.922 82.4249C128.94 82.3334 128.995 82.2236 129.087 82.1504C129.196 82.0589 129.324 82.0223 129.453 82.0589C129.471 82.0589 129.489 82.0589 129.489 82.0589C129.581 82.0772 129.654 82.1322 129.727 82.2054C129.837 82.3518 129.983 82.4982 130.13 82.6629C129.91 82.6263 129.69 82.5713 129.489 82.5347V82.4432Z" fill="#203156"/>
<path d="M129.27 82.9731C129.344 82.9914 129.417 83.0097 129.472 83.028V83.3208C129.344 83.1927 129.234 83.0646 129.124 82.9365C129.161 82.9365 129.216 82.9548 129.27 82.9731Z" fill="#203156"/>
<path d="M129.125 82.9362C129.089 82.8996 129.052 82.863 129.016 82.8081C128.924 82.6983 128.888 82.5519 128.924 82.4238L129.491 82.4421V82.5336C129.455 82.5336 129.418 82.5153 129.382 82.5153C129.418 82.5519 129.455 82.6068 129.491 82.6434L129.473 83.0094C129.4 82.9911 129.327 82.9728 129.272 82.9545C129.217 82.9545 129.162 82.9362 129.125 82.9362Z" fill="#203156"/>
<path d="M129.289 89.0488L129.271 90.22L128.502 89.4514L129.252 89.0488H129.289Z" fill="#203156"/>
<path d="M128.503 89.4521L129.271 90.2208L129.253 90.4221L128.338 90.4038L128.374 89.5254L128.503 89.4521Z" fill="#203156"/>
<path d="M128.813 88.2441L129.252 89.0493L128.502 89.4519L128.374 89.3421L128.392 88.4637L128.813 88.2441Z" fill="#203156"/>
<path d="M128.978 82.8991C129.033 82.9174 129.07 82.9174 129.125 82.9357C129.235 83.0455 129.344 83.1736 129.473 83.32L129.308 89.0662H129.253L128.814 88.261L128.411 88.4806L128.576 82.8076C128.686 82.8442 128.814 82.8808 128.924 82.8991H128.978Z" fill="#203156"/>
<path d="M129.014 82.8081C129.051 82.8447 129.088 82.8813 129.124 82.9362C129.069 82.9179 129.033 82.9179 128.978 82.8996L128.923 82.8813C128.813 82.8447 128.685 82.8264 128.575 82.7898L128.594 82.4238H128.941C128.886 82.5702 128.923 82.6983 129.014 82.8081Z" fill="#203156"/>
<path d="M128.904 63.1357H125.537V64.0507H128.904V63.1357Z" fill="#203156"/>
<path d="M128.557 82.7916C124.183 81.5655 120.45 78.5277 117.998 74.1906H118.273C118.401 74.1906 118.547 74.1723 118.675 74.1723L119.023 74.1357C121.402 78.1434 124.952 80.9067 129.07 81.9864L129.124 82.0047C129.234 82.023 129.326 82.0596 129.436 82.0779C129.307 82.0596 129.179 82.0779 129.07 82.1694C128.978 82.2426 128.923 82.3341 128.905 82.4439H128.557V82.7916Z" fill="#203156"/>
<path d="M128.502 89.4516L128.374 89.5248V89.3418L128.502 89.4516Z" fill="#203156"/>
<path d="M128.392 88.4639L128.374 89.3423L127.825 88.775L128.392 88.4639Z" fill="#203156"/>
<path d="M128.374 89.3427V89.5257L127.953 89.7453L127.514 88.9401L127.825 88.7754L128.374 89.3427Z" fill="#203156"/>
<path d="M127.825 178.865C127.88 178.957 127.898 179.067 127.898 179.176C127.917 179.085 127.898 178.993 127.843 178.902C127.843 178.884 127.843 178.865 127.825 178.865Z" fill="#203156"/>
<path d="M127.88 179.231C127.88 179.212 127.88 179.194 127.898 179.176C127.898 179.176 127.898 179.194 127.88 179.231Z" fill="#203156"/>
<path d="M127.86 179.286C127.879 179.268 127.879 179.25 127.879 179.231C127.879 179.25 127.879 179.268 127.86 179.286Z" fill="#203156"/>
<path d="M127.843 179.342C127.843 179.324 127.861 179.305 127.861 179.287C127.861 179.305 127.861 179.324 127.843 179.342Z" fill="#203156"/>
<path d="M127.422 177.183C127.422 177.769 127.568 178.354 127.843 178.867C127.825 178.83 127.788 178.775 127.733 178.757C127.532 178.61 127.239 178.647 127.093 178.848C127.038 178.921 126.983 178.995 126.928 179.086C126.653 178.501 126.525 177.86 126.525 177.201C126.525 174.676 128.575 172.645 131.082 172.645C131.631 172.645 132.18 172.736 132.692 172.937L132.729 173.578C132.674 173.614 132.656 173.633 132.656 173.651L132.436 173.816C132.015 173.633 131.54 173.56 131.082 173.56C129.051 173.523 127.422 175.17 127.422 177.183Z" fill="#203156"/>
<path d="M127.807 179.378C126.727 180.787 126.16 182.471 126.16 184.264C126.16 186.918 127.459 189.388 129.637 190.889C130.735 191.658 131.998 192.133 133.315 192.28C133.626 192.316 133.919 192.335 134.212 192.335H130.259C129.856 192.133 129.472 191.914 129.088 191.639C126.672 189.974 125.227 187.211 125.227 184.264C125.227 182.379 125.812 180.568 126.892 179.049C126.928 179.14 126.983 179.232 127.02 179.305C127.111 179.451 127.258 179.543 127.423 179.543C127.496 179.543 127.569 179.525 127.642 179.488C127.715 179.451 127.77 179.397 127.807 179.323C127.825 179.36 127.825 179.378 127.807 179.378Z" fill="#203156"/>
<path d="M127.075 178.83C127.221 178.629 127.514 178.592 127.715 178.738C127.752 178.775 127.789 178.812 127.825 178.848C127.825 178.848 127.825 178.867 127.843 178.885C127.898 178.976 127.898 179.068 127.898 179.159C127.898 179.178 127.898 179.196 127.88 179.214C127.88 179.233 127.862 179.251 127.862 179.269C127.862 179.287 127.843 179.306 127.843 179.324C127.843 179.324 127.843 179.342 127.825 179.342C127.789 179.416 127.734 179.47 127.66 179.507C127.587 179.544 127.514 179.562 127.441 179.562C127.276 179.562 127.111 179.47 127.038 179.324C127.002 179.233 126.947 179.141 126.91 179.068C126.965 178.976 127.02 178.903 127.075 178.83Z" fill="#203156"/>
<path d="M125.922 97.4309C126.306 98.0531 127.239 97.9799 127.532 97.3028L129.545 92.6729V93.8258L127.953 97.4858C127.752 97.9433 127.313 98.2727 126.8 98.3093C126.764 98.3093 126.727 98.3093 126.69 98.3093C126.233 98.3093 125.794 98.0714 125.537 97.6688L123.177 93.9539L123.579 93.7343L125.922 97.4309Z" fill="#203156"/>
<path d="M127.533 97.3032C127.24 97.9803 126.325 98.0535 125.922 97.4313L123.58 93.753L123.616 93.7347L123.671 93.6798L123.342 93.3504L123.122 92.9478L123.067 92.9844L127.533 88.9401L127.825 88.7754L127.533 88.9401L127.972 89.7453L128.393 89.5257L128.374 90.4041L128.265 90.5139L127.734 89.9832L123.946 93.4419L126.343 97.1934C126.471 97.3947 126.672 97.413 126.764 97.413C126.855 97.413 127.038 97.3764 127.148 97.1385L129.491 91.74H129.582V92.6916L127.533 97.3032Z" fill="#203156"/>
<path d="M123.341 93.3506L123.652 93.68L123.615 93.7349L123.579 93.7532L123.341 93.3689V93.3506Z" fill="#203156"/>
<path d="M123.379 334.673H122.464V335.13H123.379V334.673Z" fill="#203156"/>
<path d="M123.379 315.311V334.672H122.464V316.226V315.768H122.812V315.311H123.379Z" fill="#203156"/>
<path d="M123.341 93.3684L122.92 93.588L122.664 93.3501L123.048 92.9841L123.122 92.9658L123.323 93.3501H123.341V93.3684Z" fill="#203156"/>
<path d="M122.976 93.6427L122.921 93.5878L123.342 93.3682L123.58 93.7525L123.177 93.9721L122.976 93.6427Z" fill="#203156"/>
<path d="M122.811 315.311V315.768H122.463H121.896V315.311H122.811Z" fill="#203156"/>
<path d="M122.811 306.545V315.311H121.896V311.285L122.28 311.34L122.463 311.358L122.591 310.443L122.353 310.425V306.545H122.811Z" fill="#203156"/>
<path d="M122.81 306.088H122.353V306.545H122.81V306.088Z" fill="#203156"/>
<path d="M127.368 335.588H69.5762V335.478L70.5644 334.673H122.463V335.13H123.378V334.673H127.368V335.588Z" fill="#203156"/>
<path d="M122.353 310.425V310.882L121.896 310.827V310.352L122.353 310.425Z" fill="#203156"/>
<path d="M122.353 306.545V310.425L121.896 310.351V306.545H122.353Z" fill="#203156"/>
<path d="M122.353 306.088H121.896V306.545H122.353V306.088Z" fill="#203156"/>
<path d="M122.353 310.882V310.425L122.591 310.443L122.463 311.358L122.28 311.34L121.896 311.285V310.827L122.353 310.882Z" fill="#203156"/>
<path d="M122.462 316.226H94.0056L93.9507 316.006L94.7742 315.86L93.9141 315.365V315.311H121.895V315.768H122.462V316.226Z" fill="#203156"/>
<path d="M121.895 310.828V311.285L93.9141 307.68V307.223L121.895 310.828Z" fill="#203156"/>
<path d="M121.895 310.351V310.827L93.9141 307.222V306.765L121.895 310.351Z" fill="#203156"/>
<path d="M121.895 306.545V310.351L93.9141 306.765V306.545H121.895Z" fill="#203156"/>
<path d="M121.895 306.088H93.9141V306.545H121.895V306.088Z" fill="#203156"/>
<path d="M118.675 73.5113C118.785 73.7126 118.913 73.9322 119.041 74.1335L118.693 74.1701C118.565 74.1884 118.419 74.1884 118.291 74.1884L118.272 73.2734H118.547L118.675 73.5113Z" fill="#203156"/>
<path d="M118.62 73.2551L119.261 73.2002L119.334 74.1152L119.041 74.1335C118.913 73.9322 118.803 73.7309 118.675 73.5113L118.547 73.2734H118.272C118.382 73.2734 118.492 73.2551 118.62 73.2551Z" fill="#203156"/>
<path d="M106.487 164.117L117.87 163.348L117.303 152.24L117.76 152.222L118.346 163.769L106.048 164.611L105.646 152.807L106.103 152.789L106.487 164.117Z" fill="#203156"/>
<path d="M117.742 151.764L117.76 152.221L117.302 152.239L117.284 151.782H117.302L117.742 151.764Z" fill="#203156"/>
<path d="M116.845 152.257L117.376 162.907L106.927 163.621L106.561 152.769L116.845 152.257Z" fill="#203156"/>
<path d="M117.286 151.763L116.829 151.785L116.851 152.242L117.308 152.22L117.286 151.763Z" fill="#203156"/>
<path d="M117.285 151.781L116.827 151.8V151.781H117.285Z" fill="#203156"/>
<path d="M110.257 151.671L131.905 150.592L131.942 151.049L117.741 151.763L117.302 151.781H117.284H116.826V151.8L110.238 152.129L110.257 151.671Z" fill="#203156"/>
<path d="M114.191 64.2891C114.154 64.344 114.118 64.399 114.081 64.4539C113.971 64.4356 113.861 64.4172 113.752 64.3806C113.697 64.3623 113.642 64.3624 113.587 64.3441C113.66 64.2343 113.752 64.1427 113.825 64.0146L114.191 64.2891Z" fill="#203156"/>
<path d="M113.624 63.8872L113.825 64.0336C113.734 64.1434 113.66 64.2532 113.587 64.363H113.569C113.422 64.3264 113.258 64.2898 113.111 64.2532C113.203 64.1251 113.313 63.997 113.404 63.8506C113.477 63.8506 113.551 63.8689 113.624 63.8872Z" fill="#203156"/>
<path d="M113.935 63.4838C118.785 64.5452 128.575 59.9519 132.071 58.1768C132.565 58.2134 133.04 58.2683 133.535 58.3232C133.608 58.3232 133.663 58.3415 133.736 58.3415C133.242 58.616 130.021 60.3179 126.196 61.8551C121.731 63.6485 118.163 64.5635 115.546 64.5635C115.015 64.5635 114.521 64.5269 114.063 64.4537C114.1 64.3988 114.137 64.3439 114.173 64.289L113.807 64.0145L113.825 63.923C113.771 63.9047 113.716 63.9047 113.642 63.8864C113.624 63.8864 113.624 63.8864 113.606 63.8864L113.423 63.7583L113.752 63.4472H113.771C113.844 63.4655 113.899 63.4655 113.935 63.4838Z" fill="#203156"/>
<path d="M113.826 64.0146L113.625 63.8682C113.643 63.8682 113.643 63.8682 113.662 63.8682C113.716 63.8865 113.771 63.9048 113.845 63.9048L113.826 64.0146Z" fill="#203156"/>
<path d="M113.459 63.7598L113.642 63.8879C113.569 63.8696 113.496 63.8513 113.423 63.833C113.423 63.7964 113.441 63.7781 113.459 63.7598Z" fill="#203156"/>
<path d="M113.495 57.042L113.861 57.8838L113.788 57.9204C113.751 57.9204 113.733 57.9204 113.715 57.9204C113.568 57.9387 113.44 57.8838 113.349 57.774C113.257 57.6642 113.202 57.5361 113.239 57.3897C113.239 57.3714 113.257 57.2799 113.294 57.1335L113.495 57.042Z" fill="#203156"/>
<path d="M113.093 64.2151C113.038 64.2883 112.983 64.3615 112.928 64.4164C112.635 64.7824 112.397 65.185 112.214 65.6059C106.981 65.9719 103.65 64.3066 102.149 63.3184C104.272 63.2269 108.811 63.2086 113.093 64.2151Z" fill="#203156"/>
<path d="M112.765 66.4848L112.691 65.6979C112.856 65.3502 113.076 65.0208 113.314 64.7097C113.405 64.5999 113.497 64.4718 113.588 64.3438C113.643 64.362 113.698 64.3803 113.753 64.3803C113.863 64.3986 113.972 64.417 114.082 64.4536C113.936 64.6549 113.808 64.8379 113.661 65.0026C113.369 65.3869 113.131 65.7894 112.948 66.2286C112.911 66.3201 112.874 66.4299 112.838 66.5214L112.765 66.4848Z" fill="#203156"/>
<path d="M112.857 66.5222C112.692 66.998 112.637 67.4921 112.637 68.0045C112.692 69.9077 113.698 71.6096 115.309 72.5429C116.205 73.0553 117.212 73.3115 118.255 73.2932L118.273 74.2082H117.999C116.883 74.1899 115.803 73.8971 114.851 73.3481C112.948 72.2501 111.777 70.2737 111.704 68.0411C111.685 67.547 111.74 67.0529 111.868 66.5588C112.088 66.5405 112.308 66.5405 112.545 66.5222C112.619 66.5222 112.674 66.5039 112.747 66.5039L112.857 66.5222Z" fill="#203156"/>
<path d="M112.691 65.6982L112.764 66.4851C112.709 66.4851 112.636 66.5034 112.563 66.5034C112.343 66.5217 112.105 66.54 111.886 66.54C111.922 66.3753 111.977 66.2289 112.032 66.0825C112.197 66.0642 112.362 66.0642 112.526 66.0459C112.581 65.9361 112.636 65.808 112.691 65.6982Z" fill="#203156"/>
<path d="M112.947 64.4357C113.002 64.3625 113.057 64.3076 113.112 64.2344C113.258 64.271 113.423 64.3076 113.569 64.3442H113.587C113.496 64.4723 113.404 64.6004 113.313 64.7102C113.075 65.0213 112.874 65.3507 112.691 65.6984L112.672 65.5886C112.617 65.5886 112.563 65.6069 112.489 65.6069C112.398 65.6069 112.306 65.6252 112.215 65.6252C112.416 65.186 112.654 64.8017 112.947 64.4357Z" fill="#203156"/>
<path d="M112.508 65.5876C112.581 65.5876 112.636 65.5693 112.691 65.5693L112.709 65.6791C112.654 65.7889 112.599 65.917 112.562 66.0268C112.398 66.0451 112.233 66.0451 112.068 66.0634C112.087 65.9902 112.123 65.9353 112.142 65.8621C112.178 65.7706 112.215 65.6791 112.251 65.5876C112.306 65.6059 112.398 65.6059 112.508 65.5876Z" fill="#203156"/>
<path d="M112.435 115.785L111.41 132.493L111.08 132.475L110.971 132.438L111.099 130.352H111.08L111.227 129.913L110.678 129.748L111.52 115.73L112.435 115.785Z" fill="#203156"/>
<path d="M111.41 132.494L110.257 151.672L109.8 151.691L110.934 132.97L111.081 132.476L111.41 132.494Z" fill="#203156"/>
<path d="M111.227 129.913L111.081 130.352L110.642 130.224L110.678 129.748L111.227 129.913Z" fill="#203156"/>
<path d="M111.099 130.353L110.971 132.439L110.514 132.311L110.605 130.682L110.953 130.792L111.081 130.353H111.099Z" fill="#203156"/>
<path d="M111.08 130.352L110.952 130.791L110.604 130.681L110.641 130.224L111.08 130.352Z" fill="#203156"/>
<path d="M111.08 132.474L110.934 132.968V132.913L110.97 132.438L111.08 132.474Z" fill="#203156"/>
<path d="M110.97 132.439L110.934 132.914V132.969L110.824 133.354L110.458 133.262L110.513 132.311L110.97 132.439Z" fill="#203156"/>
<path d="M110.825 133.353L110.935 132.969L109.8 151.69L109.343 151.708L110.459 133.262L110.825 133.353Z" fill="#203156"/>
<path d="M110.677 129.747L110.641 130.223L104.602 128.393L104.675 127.954L110.677 129.747Z" fill="#203156"/>
<path d="M110.641 130.224L110.604 130.681L104.528 128.851L104.602 128.394L110.641 130.224Z" fill="#203156"/>
<path d="M110.513 132.311L110.458 133.262L104.126 131.487L104.272 130.572L110.513 132.311Z" fill="#203156"/>
<path d="M112.033 66.0826C106.122 66.4303 102.627 64.2892 101.419 63.3559C101.62 63.3376 101.858 63.3376 102.169 63.3193C103.67 64.3075 107 65.9728 112.234 65.6068C112.198 65.6983 112.161 65.7898 112.124 65.8813C112.088 65.9545 112.051 66.0094 112.033 66.0826Z" fill="#203156"/>
<path d="M110.256 151.673L110.238 152.13L109.853 152.149L109.78 152.13L109.799 151.691L110.256 151.673Z" fill="#203156"/>
<path d="M110.238 152.13V152.166L109.854 152.148L110.238 152.13Z" fill="#203156"/>
<path d="M109.853 152.148H109.78V152.13L109.853 152.148Z" fill="#203156"/>
<path d="M109.799 151.69L109.781 152.13L109.323 152.111L109.342 151.709L109.799 151.69Z" fill="#203156"/>
<path d="M116.845 152.257L106.561 152.77L106.542 152.312L106.085 152.331L109.782 152.148H109.855L110.239 152.166V152.129L116.827 151.8L116.845 152.257Z" fill="#203156"/>
<path d="M101.565 62.898C103.359 62.7882 108.538 62.6417 113.406 63.8312C113.296 63.9776 113.204 64.1057 113.113 64.2338C108.812 63.2273 104.274 63.2457 102.169 63.3372C101.913 63.1542 101.712 63.0078 101.565 62.898Z" fill="#203156"/>
<path d="M106.926 163.622L117.375 162.908L116.845 152.258L117.302 152.239L117.869 163.347L106.487 164.116L106.103 152.788L106.56 152.77L106.926 163.622Z" fill="#203156"/>
<path d="M120.139 95.6185C112.947 99.5164 107.915 106.653 106.689 114.742L104.676 127.955L104.291 127.845L104.182 128.229L106.25 114.687C107.512 106.415 112.581 99.2053 119.938 95.2342L122.939 93.6055L122.994 93.6604L123.195 93.9715L120.139 95.6185Z" fill="#203156"/>
<path d="M106.542 152.312L106.561 152.77L106.103 152.788L106.085 152.331L106.542 152.312Z" fill="#203156"/>
<path d="M106.084 152.33L106.103 152.788L105.645 152.806L105.627 152.348L106.084 152.33Z" fill="#203156"/>
<path d="M109.781 152.129V152.147L106.085 152.33L105.627 152.349L105.646 152.806L95.2695 153.318V153.245L95.7087 152.44L95.5989 152.385L109.342 151.708L109.324 152.111L109.781 152.129Z" fill="#203156"/>
<path d="M105.938 139.264L105.536 140.087L102.059 138.422L102.205 138.129L103.102 138.257L103.157 137.928L105.938 139.264Z" fill="#203156"/>
<path d="M104.676 127.955L104.603 128.394L104.164 128.266V128.211L104.292 127.827L104.676 127.955Z" fill="#203156"/>
<path d="M104.273 130.573L104.126 131.488L103.65 131.36L103.888 130.481L104.273 130.573Z" fill="#203156"/>
<path d="M104.163 128.266L104.602 128.394L104.529 128.851L104.017 128.705L104.163 128.211V128.266Z" fill="#203156"/>
<path d="M119.919 95.1987C112.562 99.1881 107.493 106.38 106.23 114.652L104.163 128.194L104.016 128.688L104.529 128.834L104.272 130.554L103.888 130.444L103.65 131.323L104.144 131.451L103.156 137.893L102.296 137.472L105.773 114.597C107.054 106.234 112.251 98.8221 119.699 94.7961L123.048 92.9844L122.664 93.3321L122.902 93.57L119.919 95.1987Z" fill="#203156"/>
<path d="M103.157 137.929L103.102 138.258L102.205 138.13L102.297 137.508L103.157 137.929Z" fill="#203156"/>
<path d="M102.297 137.508L102.205 138.13L102.059 138.423L82.3682 128.889L82.5695 128.468C82.6793 128.358 82.7708 128.23 82.8623 128.12L82.9721 128.175L102.297 137.508Z" fill="#203156"/>
<path d="M101.564 62.8975C101.71 63.0073 101.912 63.1537 102.168 63.3184C101.875 63.3367 101.619 63.3367 101.418 63.355C101.088 63.0988 100.905 62.9341 100.905 62.9341C100.924 62.9341 101.161 62.9158 101.564 62.8975Z" fill="#203156"/>
<path d="M101.564 192.884L101.472 193.25H100.539L100.667 192.701L101.564 192.884Z" fill="#203156"/>
<path d="M101.235 62.6045C101.235 62.6045 101.344 62.7143 101.564 62.879C101.161 62.8973 100.942 62.9156 100.905 62.9156L101.235 62.6045Z" fill="#203156"/>
<path d="M101.418 63.3565C101.125 63.3748 100.961 63.393 100.961 63.393C100.814 63.4113 100.686 63.3565 100.595 63.265L100.924 62.9355C100.906 62.9355 101.071 63.1003 101.418 63.3565Z" fill="#203156"/>
<path d="M101.418 63.3561C102.644 64.2894 106.14 66.4305 112.032 66.0828C111.977 66.2292 111.922 66.3939 111.886 66.5403C111.483 66.5586 111.099 66.5769 110.733 66.5769C103.999 66.5769 100.741 63.411 100.595 63.2646C100.686 63.3561 100.814 63.411 100.961 63.3927C100.961 63.3927 101.125 63.3744 101.418 63.3561Z" fill="#203156"/>
<path d="M100.668 192.334V192.7L100.54 193.249H94.5192L91.8291 152.568L93.8787 152.477L95.2695 153.245V153.318L92.799 153.446L95.3793 192.334H100.668Z" fill="#203156"/>
<path d="M100.723 62.515L113.259 57.1348C113.222 57.2812 113.222 57.3544 113.204 57.391C113.186 57.5374 113.222 57.6655 113.314 57.7753C113.405 57.8851 113.552 57.94 113.68 57.9217C113.68 57.9217 113.698 57.9217 113.753 57.9217L103.359 62.3869C105.884 62.3503 109.965 62.4967 113.771 63.4666L113.442 63.7777C113.424 63.796 113.405 63.8326 113.387 63.8509C108.519 62.6614 103.322 62.8078 101.547 62.9176C101.327 62.7529 101.218 62.6431 101.218 62.6431L100.888 62.9725L100.559 63.3019C100.504 63.247 100.467 63.1738 100.431 63.0823C100.412 62.8261 100.522 62.6065 100.723 62.515Z" fill="#203156"/>
<path d="M96.6973 326.547C97.0816 328.011 96.7156 329.566 95.7091 330.701C94.849 331.671 93.6046 332.22 92.3236 332.22C92.1223 332.22 91.9027 332.201 91.7014 332.183C89.4688 331.872 87.7852 329.951 87.7852 327.7C87.7852 327.041 87.9316 326.382 88.2244 325.778L92.3602 316.958L93.2752 316.226H94.0255L96.6973 326.547ZM95.0137 330.097C95.8189 329.2 96.1116 327.956 95.8188 326.785L93.2935 317.104L89.0479 326.162C88.8283 326.657 88.7002 327.169 88.7002 327.7C88.7002 329.493 90.0361 331.03 91.8295 331.286C93.0373 331.451 94.2085 331.012 95.0137 330.097Z" fill="#203156"/>
<path d="M95.7089 152.441L95.2697 153.246L93.8789 152.477L95.5991 152.386L95.7089 152.441Z" fill="#203156"/>
<path d="M94.7756 315.858L93.9521 316.005L93.8789 315.767H93.9155V315.364L94.7756 315.858Z" fill="#203156"/>
<path d="M93.914 315.365V315.768H93.8774L93.7676 315.311H93.8225L93.914 315.365Z" fill="#203156"/>
<path d="M93.9147 315.311V315.365L93.8232 315.311H93.9147Z" fill="#203156"/>
<path d="M93.9157 307.222V307.679L93.4033 307.624L93.4582 307.167L93.9157 307.222Z" fill="#203156"/>
<path d="M93.9145 306.765V307.222L93.457 307.167L93.5119 306.71L93.9145 306.765Z" fill="#203156"/>
<path d="M93.9145 306.088H93.457V306.545H93.9145V306.088Z" fill="#203156"/>
<path d="M93.7686 315.311L93.8784 315.768H93V315.567L93.1281 315.311H93.7686Z" fill="#203156"/>
<path d="M93.8232 315.31H93.7683L93.75 315.273L93.8232 315.31Z" fill="#203156"/>
<path d="M93.7501 315.274L93.7684 315.311H93.1279L93.2743 315L93.7501 315.274Z" fill="#203156"/>
<path d="M93.5306 314.432L93.7502 315.273L93.2744 314.999L93.5306 314.432Z" fill="#203156"/>
<path d="M93.457 306.545H93.9145V306.765L93.5119 306.71L93.457 307.167V306.545Z" fill="#203156"/>
<path d="M93 314.835V306.545H93.4575V307.167L93.4026 307.625L93.915 307.68V315.311H93.8235L93.7503 315.274L93.5307 314.432L93.2745 315L93 314.835Z" fill="#203156"/>
<path d="M93.4575 306.088H93V306.545H93.4575V306.088Z" fill="#203156"/>
<path d="M93.2745 314.999L93.1281 315.31H93V314.834L93.2745 314.999Z" fill="#203156"/>
<path d="M92.6895 316.225L93.9522 316.006L94.0071 316.225H93.2568L92.3418 316.957L92.6895 316.225Z" fill="#203156"/>
<path d="M92.9996 315.768H93.878L93.9512 316.006L92.6885 316.225L92.9996 315.566V315.768Z" fill="#203156"/>
<path d="M93.1281 315.311L93 315.567V315.311H93.1281Z" fill="#203156"/>
<path d="M92.9994 315.311V315.567L92.6883 316.226L91.5537 316.427L92.9262 315.311H92.9994Z" fill="#203156"/>
<path d="M92.1219 315.383L83.4477 310.405C82.8987 310.076 82.2948 309.93 81.6543 309.93C79.9524 309.93 78.4884 311.101 78.1224 312.766C77.8479 313.956 78.1956 315.163 79.0374 316.042C79.8792 316.92 81.0687 317.323 82.2765 317.103L92.1219 315.383ZM92.9271 315.31L91.5546 316.426L82.4229 318.018C82.1667 318.055 81.9105 318.091 81.636 318.091C80.4099 318.091 79.2204 317.597 78.3603 316.682C77.3172 315.584 76.878 314.047 77.2257 312.565C77.7015 310.479 79.5132 309.015 81.6543 309.015C82.4412 309.015 83.2098 309.216 83.9052 309.619L93.0003 314.834V315.31H92.9271Z" fill="#203156"/>
<path d="M93.4564 306.088H92.9989V306.545H91.8643V242.239C91.8643 236.584 92.4682 230.911 93.6577 225.385L100.557 193.25H101.49L94.5544 225.586C93.3832 231.039 92.7976 236.658 92.7976 242.257V305.649H122.828V306.106H122.37H121.913H93.9139H93.4564V306.088Z" fill="#203156"/>
<path d="M92.6886 316.226L92.3409 316.958L70.5639 334.672H69.1182L91.554 316.427L92.6886 316.226Z" fill="#203156"/>
<path d="M82.3496 127.864L82.8437 128.102C82.7522 128.211 82.6607 128.339 82.5509 128.449L81.8555 127.845C81.8921 127.79 81.947 127.736 81.9836 127.681L82.3496 127.864Z" fill="#203156"/>
<path d="M82.5686 128.45L82.3673 128.871L82.3307 128.853L81.7268 129.841L74.8826 140.857L74.3336 140.802L74.3702 140.418C74.2787 140.4 74.1872 140.4 74.0957 140.382L81.983 127.663L82.0196 127.681C81.983 127.736 81.9281 127.791 81.8915 127.846L82.5686 128.45Z" fill="#203156"/>
<path d="M79.0549 121.349L79.3294 121.788C79.2562 121.788 79.183 121.788 79.1098 121.806C79.0183 121.824 78.9268 121.824 78.8353 121.843L78.5791 121.422C78.7255 121.404 78.8719 121.367 79.0549 121.349C79.0366 121.349 79.0549 121.349 79.0549 121.349Z" fill="#203156"/>
<path d="M79.3112 121.789L79.0367 121.349C79.1282 121.349 79.2014 121.331 79.2746 121.331C79.3478 121.331 79.4027 121.331 79.4759 121.331C79.4942 121.331 79.5308 121.331 79.5674 121.331L79.7138 121.569L78.9269 122.045L78.9086 122.026L78.7988 121.843C78.8903 121.825 78.9818 121.807 79.0733 121.807C79.1648 121.807 79.238 121.789 79.3112 121.789Z" fill="#203156"/>
<path d="M78.9453 122.045L79.7322 121.569L79.5858 121.331C81.8916 121.368 83.7399 123.307 83.7399 125.686C83.7399 126.547 83.4654 127.333 82.8798 128.102L82.3857 127.864L82.038 127.699C82.587 127.041 82.8432 126.4 82.8432 125.686C82.8432 123.783 81.3609 122.246 79.5309 122.246C79.476 122.246 79.4394 122.246 79.3845 122.246H79.3662C79.3113 122.246 79.2381 122.246 79.1832 122.264C79.1283 122.264 79.0734 122.283 79.0185 122.283L78.9453 122.045Z" fill="#203156"/>
<path d="M78.5792 121.44L78.8354 121.861C78.5975 121.898 78.3596 121.971 78.14 122.063L77.8838 121.678C78.1034 121.569 78.323 121.495 78.5792 121.44Z" fill="#203156"/>
<path d="M77.885 121.66L78.1412 122.044C77.9948 122.099 77.8667 122.173 77.7203 122.246L77.4824 121.861C77.4824 121.861 77.5007 121.843 77.519 121.843C77.6288 121.77 77.7569 121.715 77.885 121.66Z" fill="#203156"/>
<path d="M78.1408 122.063L77.3722 122.557L77.3356 122.484L77.0977 122.099C77.2075 122.026 77.299 121.953 77.4088 121.898C77.4271 121.88 77.4454 121.88 77.482 121.861L77.7199 122.246C77.848 122.172 77.9944 122.099 78.1408 122.044V122.063Z" fill="#203156"/>
<path d="M74.3711 140.417L74.3345 140.802L74.2796 141.332C74.0783 141.314 73.877 141.277 73.694 141.241L73.6025 141.186L73.9502 140.619L74.1149 140.362C74.1881 140.399 74.2796 140.417 74.3711 140.417Z" fill="#203156"/>
<path d="M74.279 141.332L74.3339 140.802L74.8829 140.857L95.6168 152.386L93.8783 152.477L73.6934 141.259C73.8764 141.278 74.0777 141.314 74.279 141.332Z" fill="#203156"/>
<path d="M74.0953 140.399L73.9306 140.655L73.5829 141.223L73.6744 141.277C69.7033 140.564 66.7021 137.142 66.5557 133.061L66.6106 133.152L66.9949 132.933H67.1047H67.4707C67.5622 136.684 70.3804 139.85 74.0953 140.399Z" fill="#203156"/>
<path d="M73.1074 114.029C73.6564 113.938 74.2054 114.194 74.4799 114.67L78.5791 121.441C78.3412 121.496 78.1033 121.569 77.8837 121.66L73.1623 114.194C73.1257 114.139 73.0891 114.084 73.0342 114.029H73.1074Z" fill="#203156"/>
<path d="M73.1624 114.194L77.8839 121.642C77.7558 121.697 77.6277 121.752 77.4996 121.825C77.4813 121.825 77.4812 121.843 77.4629 121.843L72.7782 114.432C72.705 114.304 72.5952 114.194 72.4854 114.102L73.0344 114.011C73.0893 114.084 73.1258 114.139 73.1624 114.194Z" fill="#203156"/>
<path d="M74.4809 114.651C74.1881 114.175 73.6574 113.919 73.1084 114.01H73.0535C72.9254 113.864 72.779 113.717 72.6143 113.626L73.0352 113.553C73.7672 113.425 74.4992 113.772 74.8835 114.395L79.0742 121.33H79.0559C78.8912 121.349 78.7448 121.367 78.5984 121.422L74.4809 114.651Z" fill="#203156"/>
<path d="M72.6128 113.645C72.7775 113.754 72.9239 113.882 73.052 114.029L72.503 114.12C72.2834 113.937 72.0089 113.809 71.7344 113.791L72.6128 113.645Z" fill="#203156"/>
<path d="M72.4847 114.12C72.5945 114.212 72.686 114.321 72.7775 114.45L77.4623 121.861C77.444 121.879 77.4074 121.879 77.3891 121.898C77.2793 121.971 77.1695 122.026 77.078 122.099L72.3932 114.687C72.2468 114.45 72.0089 114.285 71.7344 114.248L72.4847 114.12Z" fill="#203156"/>
<path d="M72.9434 113.114C73.8584 112.967 74.7734 113.388 75.2492 114.175L79.568 121.33C79.5497 121.33 79.5131 121.33 79.4765 121.33C79.4033 121.33 79.3484 121.33 79.2752 121.33C79.202 121.33 79.1105 121.33 79.0373 121.349L74.8466 114.413C74.4623 113.773 73.7303 113.443 72.9983 113.571L72.5774 113.644C72.3212 113.48 72.0467 113.37 71.7356 113.333C71.7173 113.333 71.699 113.333 71.6807 113.333L72.9434 113.114Z" fill="#203156"/>
<path d="M70.9314 115.968C71.8647 115.968 72.6333 116.736 72.6333 117.67C72.6333 118.603 71.8647 119.372 70.9314 119.372C69.9981 119.372 69.2295 118.603 69.2295 117.67C69.2295 116.736 69.9981 115.968 70.9314 115.968ZM71.7366 117.67C71.7366 117.23 71.3889 116.883 70.9497 116.883C70.5105 116.883 70.1628 117.23 70.1628 117.67C70.1628 118.109 70.5105 118.457 70.9497 118.457C71.3889 118.457 71.7366 118.109 71.7366 117.67Z" fill="#203156"/>
<path d="M71.7182 113.79C72.011 113.827 72.2672 113.937 72.4868 114.12L71.7182 114.248C71.6999 114.248 71.6816 114.248 71.645 114.229C71.462 114.211 71.279 114.248 71.1143 114.321L71.0411 114.358H70.9862L70.8398 113.461L71.6999 113.314C71.7182 113.314 71.7365 113.314 71.7548 113.314C72.0659 113.351 72.3404 113.461 72.5966 113.626L71.7182 113.79Z" fill="#203156"/>
<path d="M71.7367 114.249L71.0596 114.358L71.1328 114.322C71.2975 114.249 71.4805 114.212 71.6635 114.23C71.6818 114.23 71.7184 114.249 71.7367 114.249Z" fill="#203156"/>
<path d="M70.5631 334.673L69.5749 335.478L68.9893 334.764L69.1174 334.673H70.5631Z" fill="#203156"/>
<path d="M69.5755 335.478V335.588H55.6309V334.673H69.118L68.9899 334.764L69.5755 335.478Z" fill="#203156"/>
<path d="M67.4712 132.713C67.4712 132.768 67.4712 132.823 67.4712 132.896V132.805L66.666 131.378C67.3065 127.223 70.9116 124.058 75.2487 124.058C75.45 124.058 75.633 123.929 75.7428 123.728C76.0722 123.088 76.5297 122.539 77.097 122.136L77.3349 122.52L77.3715 122.594L78.1401 122.099L78.1218 122.081C78.3414 121.99 78.5793 121.935 78.8172 121.88L78.927 122.063L78.9453 122.081L78.9819 122.319C78.5976 122.374 78.2499 122.502 77.9388 122.685H77.9205C77.9022 122.703 77.8839 122.703 77.8656 122.722C77.2983 123.051 76.8408 123.545 76.548 124.131C76.2918 124.643 75.7977 124.973 75.2487 124.973C70.9665 124.954 67.4712 128.431 67.4712 132.713Z" fill="#203156"/>
<path d="M67.4724 132.896V132.914H67.1064L67.4724 132.896Z" fill="#203156"/>
<path d="M66.8867 132.914L67.4723 132.896L67.1063 132.914H67.0148H66.8867Z" fill="#203156"/>
<path d="M67.0144 132.915L66.6301 133.135L66.5752 133.043C66.5752 133.007 66.5752 132.97 66.5752 132.933L66.9046 132.915H67.0144Z" fill="#203156"/>
<path d="M67.4707 132.896L66.8851 132.932H66.5557C66.5557 132.859 66.5557 132.786 66.5557 132.713C66.5557 132.255 66.5923 131.798 66.6655 131.358L67.4707 132.786V132.896Z" fill="#203156"/>
<path d="M66.8851 132.915L66.5557 132.933L66.8851 132.915Z" fill="#203156"/>
<path d="M66.5565 132.933C66.5565 132.97 66.5565 133.007 66.5565 133.043L59.7123 120.965C59.4561 120.508 59.4012 119.959 59.5476 119.446C59.7123 118.934 60.0783 118.531 60.5541 118.293L70.7289 113.499C71.04 113.352 71.3694 113.298 71.6988 113.316L70.8387 113.462L70.9851 114.359H71.04L60.9384 119.117C60.6822 119.227 60.4992 119.446 60.4077 119.721C60.3162 119.995 60.3528 120.27 60.4992 120.508L66.648 131.36C66.5748 131.799 66.5382 132.256 66.5382 132.714C66.5565 132.787 66.5565 132.86 66.5565 132.933Z" fill="#203156"/>
<path d="M64.3061 113.187C64.5074 113.352 64.5258 113.644 64.361 113.827C64.2696 113.937 64.1414 113.992 64.0133 113.992C63.9035 113.992 63.8121 113.956 63.7206 113.882L48.2021 100.963C48.4583 100.78 48.6962 100.597 48.9341 100.377L64.3061 113.187Z" fill="#203156"/>
<path d="M48.4948 100.047L48.9157 100.395C48.6778 100.596 48.4399 100.797 48.1837 100.98L47.9092 100.761C47.7079 100.596 47.6896 100.303 47.8543 100.12C48.019 99.9007 48.3118 99.8824 48.4948 100.047Z" fill="#203156"/>
<path d="M41.4489 102.244C47.3049 102.244 52.0629 97.4863 52.0629 91.6303C52.0629 85.7743 47.3049 81.0163 41.4489 81.0163C35.5929 81.0163 30.8349 85.7743 30.8349 91.6303C30.8349 97.4863 35.5929 102.244 41.4489 102.244ZM47.8539 100.103C47.6892 100.305 47.7258 100.579 47.9088 100.744L48.1833 100.963C46.2801 102.336 43.956 103.141 41.4489 103.141C35.0988 103.141 29.9199 97.9621 29.9199 91.612C29.9199 85.2619 35.0988 80.083 41.4489 80.083C47.799 80.083 52.9779 85.2619 52.9779 91.612C52.9779 95.1256 51.4041 98.2732 48.9153 100.378L48.4944 100.03C48.3114 99.8836 48.0186 99.9019 47.8539 100.103Z" fill="#203156"/>
<path d="M47.5439 89.5439C47.8001 89.5439 48.0014 89.7452 48.0014 90.0014C48.0014 90.2576 47.8001 90.4589 47.5439 90.4589H45.293V89.5439H47.5439Z" fill="#203156"/>
<path d="M47.5439 92.5439C47.8001 92.5439 48.0014 92.7452 48.0014 93.0014C48.0014 93.2576 47.8001 93.4589 47.5439 93.4589H45.293V92.5439H47.5439Z" fill="#203156"/>
<path d="M45.2912 93.4597V96.223C45.2912 96.4243 45.1631 96.589 44.9801 96.6622C44.9252 96.6805 44.8886 96.6805 44.8337 96.6805C44.6873 96.6805 44.5592 96.6256 44.4677 96.4975L42.1436 93.4414H43.2965L44.3762 94.8505V93.4414H45.2912V93.4597Z" fill="#203156"/>
<path d="M45.2929 92.5439H44.3779V93.4589H45.2929V92.5439Z" fill="#203156"/>
<path d="M45.2929 90.459H44.3779V92.5452H45.2929V90.459Z" fill="#203156"/>
<path d="M45.2929 89.5439H44.3779V90.4589H45.2929V89.5439Z" fill="#203156"/>
<path d="M45.2929 87.018V89.5434H44.3779V87.018C44.3779 86.7618 44.5792 86.5605 44.8354 86.5605C45.0916 86.5605 45.2929 86.7618 45.2929 87.018Z" fill="#203156"/>
<path d="M44.3767 92.5439V93.4589H43.297L42.6016 92.5439H44.3767Z" fill="#203156"/>
<path d="M44.3768 89.5439V90.4589H41.0096L40.2959 89.5439H44.3768Z" fill="#203156"/>
<path d="M42.6011 92.5439L43.2965 93.4589H42.1436L41.4482 92.5439H42.6011Z" fill="#203156"/>
<path d="M42.6014 92.5452H41.4485L39.8564 90.459H41.0093L42.6014 92.5452Z" fill="#203156"/>
<path d="M42.1433 93.4589H38.2637V92.5439H41.4479L42.1433 93.4589Z" fill="#203156"/>
<path d="M41.0094 90.4589H39.8565L39.1611 89.5439H40.2957L41.0094 90.4589Z" fill="#203156"/>
<path d="M38.1721 86.7429L40.2949 89.5428H39.1603L38.2636 88.3716V89.5428H37.3486V87.0174C37.3486 86.8161 37.4767 86.6514 37.6597 86.5782C37.8427 86.5233 38.044 86.5782 38.1721 86.7429Z" fill="#203156"/>
<path d="M39.1604 89.5439L39.8558 90.4589H38.2637V89.5439H39.1604Z" fill="#203156"/>
<path d="M38.2636 93.459V96.2223C38.2636 96.4785 38.0623 96.6798 37.8061 96.6798C37.5499 96.6798 37.3486 96.4785 37.3486 96.2223V93.459H38.2636Z" fill="#203156"/>
<path d="M38.2636 92.5439H37.3486V93.4589H38.2636V92.5439Z" fill="#203156"/>
<path d="M38.2636 90.459H37.3486V92.5452H38.2636V90.459Z" fill="#203156"/>
<path d="M38.2636 89.5439H37.3486V90.4589H38.2636V89.5439Z" fill="#203156"/>
<path d="M37.3494 92.5439V93.4589H35.3364C35.0802 93.4589 34.8789 93.2576 34.8789 93.0014C34.8789 92.7452 35.0802 92.5439 35.3364 92.5439H37.3494Z" fill="#203156"/>
<path d="M37.3494 89.5439V90.4589H35.3364C35.0802 90.4589 34.8789 90.2576 34.8789 90.0014C34.8789 89.7452 35.0802 89.5439 35.3364 89.5439H37.3494Z" fill="#203156"/>
<path d="M153.794 138.441C153.794 138.441 156.594 157.509 132.896 173.412L142.265 186.496C142.265 186.496 149.201 179.359 156.411 172.168C164.957 163.621 173.247 157.509 170.923 135.092C164.774 136.757 153.794 138.441 153.794 138.441Z" fill="white"/>
</svg>
