<svg width="323" height="180" viewBox="0 0 323 180" fill="none" xmlns="http://www.w3.org/2000/svg">
<path d="M309.046 54.2218V55.0215C308.5 55.2008 307.916 55.2996 307.309 55.2996C304.24 55.2996 301.755 52.8145 301.755 49.7511C301.755 48.977 301.909 48.245 302.194 47.5752H302.401C306.07 47.5752 309.046 50.5508 309.046 54.2218Z" fill="#F3F5F7"/>
<path d="M290.498 48.187V50.0774H277.044V39.0352H283.156C284.668 39.0352 286.057 39.8678 286.769 41.2019L290.498 48.187Z" fill="#F3F5F7"/>
<path d="M290.498 50.0762V57.0942L286.474 61.1184H277.044V50.0762H290.498Z" fill="#F3F5F7"/>
<path d="M309.046 55.0211V65.6534H300.688C300.688 62.504 298.134 59.9493 294.984 59.9493C291.833 59.9493 289.28 62.504 289.28 65.6534H245.49C245.49 62.504 242.935 59.9493 239.786 59.9493C236.635 59.9493 234.082 62.504 234.082 65.6534H219.131V57.1677H272.726V34.4922H284.423C287.297 34.4922 289.919 36.1264 291.183 38.7049L295.539 47.5749H302.195C301.909 48.2446 301.755 48.9766 301.755 49.7507C301.755 52.8141 304.24 55.2993 307.309 55.2993C307.917 55.2993 308.501 55.2005 309.046 55.0211ZM290.497 57.0945V50.0765V48.1861L286.768 41.201C286.056 39.8669 284.667 39.0342 283.155 39.0342H277.043V50.0765V61.1187H286.473L290.497 57.0945Z" fill="#F3F5F7"/>
<path d="M259.618 34.4922H226.365V43.0969H259.618V34.4922Z" fill="#F3F5F7"/>
<path d="M170.374 22.8232C172.35 22.8232 173.953 24.4263 173.953 26.4027C173.953 28.3791 172.35 29.9804 170.374 29.9804C168.399 29.9804 166.796 28.3791 166.796 26.4027C166.796 24.4263 168.399 22.8232 170.374 22.8232Z" fill="#F3F5F7"/>
<path d="M153.267 168.967L147.467 174.767C144.265 174.767 141.668 172.17 141.668 168.967C141.668 165.765 144.265 163.168 147.467 163.168C150.67 163.168 153.267 165.765 153.267 168.967Z" fill="#F3F5F7"/>
<path d="M114.933 104.408C116.823 104.408 118.355 105.942 118.355 107.832C118.355 109.723 116.823 111.254 114.933 111.254C113.042 111.254 111.509 109.723 111.509 107.832C111.509 105.942 113.042 104.408 114.933 104.408Z" fill="#F3F5F7"/>
<path d="M169.109 48.714C169.109 49.9181 170.086 50.8935 171.288 50.8935C172.492 50.8935 173.47 49.9181 173.47 48.714C173.47 47.5098 172.492 46.5344 171.288 46.5344C170.086 46.5344 169.109 47.5098 169.109 48.714ZM192.569 5.21486V174.519C192.569 176.964 190.588 178.946 188.143 178.946H177.443H102.231C99.7866 178.946 97.8047 176.964 97.8047 174.519V5.21486C97.8047 2.76998 99.7866 0.788086 102.231 0.788086H178.79H188.143C190.588 0.788086 192.569 2.76998 192.569 5.21486ZM178.014 28.0514C180.065 22.6968 176.11 16.947 170.375 16.947C165.654 16.947 162.188 20.8193 162.188 25.1234C162.188 26.2489 162.424 27.4018 162.936 28.5236L168.997 41.7947C169.757 43.4545 172.141 43.3795 172.793 41.6758L178.014 28.0514ZM153.266 168.967C153.266 165.764 150.67 163.168 147.467 163.168C144.265 163.168 141.668 165.764 141.668 168.967C141.668 172.169 144.265 174.766 147.467 174.766C150.67 174.766 153.266 172.169 153.266 168.967ZM122.239 109.41C124.201 104.287 120.418 98.7864 114.932 98.7864C110.415 98.7864 107.099 102.492 107.099 106.61C107.099 107.686 107.324 108.789 107.815 109.862L113.614 122.556C114.341 124.145 116.621 124.073 117.245 122.441L122.239 109.41ZM117.554 129.787C117.554 128.7 116.674 127.819 115.587 127.819C114.502 127.819 113.621 128.7 113.621 129.787C113.621 130.872 114.502 131.752 115.587 131.752C116.674 131.752 117.554 130.872 117.554 129.787Z" fill="#F3F5F7"/>
<path d="M46.1624 120.267V138.667H14.4814V120.267H36.9099H44.0067H46.1624ZM35.6948 126.161V124.455H24.949V126.161H35.6948Z" fill="#F3F5F7"/>
<path d="M75.6888 116.901V138.667H46.1636V120.267H44.0078V116.901H68.5939H75.6888ZM66.0117 122.995V121.218H55.266V122.995H66.0117Z" fill="#F3F5F7"/>
<path d="M199.894 8.72479V171.007C199.894 175.392 196.34 178.946 191.955 178.946H188.144C190.588 178.946 192.57 176.964 192.57 174.519V5.21486C192.57 2.76998 190.588 0.788086 188.144 0.788086H191.955C196.34 0.788086 199.894 4.34194 199.894 8.72479Z" fill="#203156"/>
<path d="M147.468 174.766L153.267 168.967C153.267 172.169 150.67 174.766 147.468 174.766Z" fill="#203156"/>
<path d="M300.688 65.6533C300.688 68.8046 298.134 71.3574 294.984 71.3574C291.833 71.3574 289.28 68.8046 289.28 65.6533C289.28 62.5039 291.833 59.9492 294.984 59.9492C298.134 59.9492 300.688 62.5039 300.688 65.6533ZM297.532 65.6533C297.532 64.2461 296.392 63.1041 294.984 63.1041C293.577 63.1041 292.435 64.2461 292.435 65.6533C292.435 67.0606 293.577 68.2025 294.984 68.2025C296.392 68.2025 297.532 67.0606 297.532 65.6533Z" fill="#F3F5F7"/>
<path d="M294.984 65.2676C295.198 65.2676 295.37 65.4396 295.37 65.6537C295.37 65.8678 295.198 66.0417 294.984 66.0417C294.77 66.0417 294.596 65.8678 294.596 65.6537C294.596 65.4396 294.77 65.2676 294.984 65.2676Z" fill="#203156"/>
<path d="M272.725 34.4933V57.1688H219.13H211.658V19.6611H272.725V34.4933ZM259.617 43.0979V34.4933H226.364V43.0979H259.617Z" fill="#F1842E"/>
<path d="M245.489 65.6533C245.489 68.8046 242.935 71.3574 239.785 71.3574C236.634 71.3574 234.081 68.8046 234.081 65.6533C234.081 62.5039 236.634 59.9492 239.785 59.9492C242.935 59.9492 245.489 62.5039 245.489 65.6533ZM242.334 65.6533C242.334 64.2461 241.192 63.1041 239.785 63.1041C238.378 63.1041 237.236 64.2461 237.236 65.6533C237.236 67.0606 238.378 68.2025 239.785 68.2025C241.192 68.2025 242.334 67.0606 242.334 65.6533Z" fill="#F3F5F7"/>
<path d="M239.786 65.2676C240.001 65.2676 240.173 65.4396 240.173 65.6537C240.173 65.8678 240.001 66.0417 239.786 66.0417C239.572 66.0417 239.398 65.8678 239.398 65.6537C239.398 65.4396 239.572 65.2676 239.786 65.2676Z" fill="#203156"/>
<path d="M170.375 16.9473C176.11 16.9473 180.065 22.6971 178.013 28.0517L172.792 41.6761C172.141 43.3798 169.756 43.4548 168.997 41.795L162.936 28.5238C162.424 27.4021 162.188 26.2492 162.188 25.1237C162.188 20.8195 165.654 16.9473 170.375 16.9473ZM173.953 26.4029C173.953 24.4265 172.349 22.8234 170.373 22.8234C168.399 22.8234 166.795 24.4265 166.795 26.4029C166.795 28.3793 168.399 29.9805 170.373 29.9805C172.349 29.9805 173.953 28.3793 173.953 26.4029Z" fill="#F3F5F7"/>
<path d="M171.288 46.5332C172.492 46.5332 173.469 47.5086 173.469 48.7127C173.469 49.9169 172.492 50.8923 171.288 50.8923C170.086 50.8923 169.108 49.9169 169.108 48.7127C169.108 47.5086 170.086 46.5332 171.288 46.5332Z" fill="#F1842E"/>
<path d="M114.933 98.7861C120.419 98.7861 124.202 104.287 122.24 109.409L117.246 122.441C116.622 124.073 114.342 124.144 113.615 122.556L107.816 109.861C107.326 108.789 107.101 107.685 107.101 106.609C107.101 102.492 110.417 98.7861 114.933 98.7861ZM118.355 107.832C118.355 105.941 116.823 104.408 114.933 104.408C113.043 104.408 111.509 105.941 111.509 107.832C111.509 109.722 113.043 111.254 114.933 111.254C116.823 111.254 118.355 109.722 118.355 107.832Z" fill="#F3F5F7"/>
<path d="M115.588 127.819C116.675 127.819 117.556 128.7 117.556 129.787C117.556 130.872 116.675 131.752 115.588 131.752C114.503 131.752 113.623 130.872 113.623 129.787C113.623 128.7 114.503 127.819 115.588 127.819Z" fill="#203156"/>
<path d="M68.5929 98.3867V116.901H44.0069V120.266H36.9102V98.3867H68.5929V98.3867ZM57.9936 104.17V102.629H47.2478V104.17H57.9936Z" fill="#F1842E"/>
<path d="M66.0104 121.218H55.2646V122.995H66.0104V121.218Z" fill="#203156"/>
<path d="M57.9938 102.629H47.248V104.17H57.9938V102.629Z" fill="#203156"/>
<path d="M35.696 124.456H24.9502V126.162H35.696V124.456Z" fill="#203156"/>
<path d="M188.144 179.403V178.488C190.332 178.488 192.113 176.707 192.113 174.519V5.21435C192.113 3.02567 190.332 1.24508 188.144 1.24508V0.330078C190.837 0.330078 193.028 2.52059 193.028 5.21435V174.519C193.028 177.212 190.837 179.403 188.144 179.403Z" fill="#203156"/>
<path d="M177.443 179.403H102.232C99.5382 179.403 97.3477 177.212 97.3477 174.519V5.21435C97.3477 2.52059 99.5382 0.330078 102.232 0.330078H178.79V1.24508H102.232C100.043 1.24508 98.2627 3.02567 98.2627 5.21435V174.519C98.2627 176.707 100.043 178.488 102.232 178.488H177.443V179.403Z" fill="#203156"/>
<path d="M191.956 179.403H177.444V178.488H191.956C196.081 178.488 199.437 175.132 199.437 171.007V8.72429C199.437 4.59947 196.081 1.24508 191.956 1.24508H178.791V0.330078H191.956C196.586 0.330078 200.352 4.09622 200.352 8.72429V171.007C200.352 175.637 196.586 179.403 191.956 179.403Z" fill="#2E4F76"/>
<path d="M147.467 175.224C144.017 175.224 141.21 172.417 141.21 168.968C141.21 165.518 144.017 162.711 147.467 162.711C150.916 162.711 153.724 165.518 153.724 168.968C153.724 172.417 150.916 175.224 147.467 175.224ZM147.467 163.626C144.52 163.626 142.125 166.021 142.125 168.968C142.125 171.912 144.52 174.309 147.467 174.309C150.413 174.309 152.809 171.914 152.809 168.968C152.809 166.021 150.413 163.626 147.467 163.626Z" fill="#203156"/>
<path d="M159.843 5.31055H151.228V6.22555H159.843V5.31055Z" fill="#203156"/>
<path d="M147.205 5.31055H129.104V6.22555H147.205V5.31055Z" fill="#203156"/>
<path d="M115.401 124.164C114.44 124.164 113.602 123.626 113.198 122.746L107.398 110.051C106.897 108.953 106.641 107.795 106.641 106.609C106.641 102.043 110.359 98.3281 114.931 98.3281C117.657 98.3281 120.208 99.6695 121.755 101.917C123.301 104.164 123.641 107.026 122.666 109.572L117.672 122.603C117.317 123.533 116.477 124.131 115.483 124.162C115.456 124.164 115.428 124.164 115.401 124.164ZM114.932 99.2431C110.866 99.2431 107.557 102.548 107.557 106.609C107.557 107.663 107.784 108.693 108.231 109.67L114.03 122.365C114.339 123.04 114.971 123.266 115.454 123.249C115.939 123.234 116.552 122.971 116.817 122.277L121.811 109.246C122.692 106.947 122.397 104.466 121.001 102.436C119.606 100.407 117.394 99.2431 114.932 99.2431Z" fill="#203156"/>
<path d="M114.932 111.711C112.791 111.711 111.051 109.971 111.051 107.832C111.051 105.691 112.791 103.95 114.932 103.95C117.071 103.95 118.812 105.691 118.812 107.832C118.812 109.971 117.071 111.711 114.932 111.711ZM114.932 104.865C113.296 104.865 111.966 106.196 111.966 107.832C111.966 109.466 113.296 110.796 114.932 110.796C116.566 110.796 117.897 109.466 117.897 107.832C117.897 106.196 116.566 104.865 114.932 104.865Z" fill="#203156"/>
<path d="M170.865 43.4543C169.868 43.4543 168.998 42.8962 168.581 41.9848L162.52 28.7137C161.997 27.5662 161.729 26.3584 161.729 25.1232C161.729 20.3615 165.607 16.4893 170.374 16.4893C173.218 16.4893 175.879 17.8892 177.491 20.2316C179.104 22.574 179.459 25.5587 178.441 28.2141L173.22 41.8384C172.852 42.801 171.983 43.4195 170.951 43.4525C170.922 43.4543 170.892 43.4543 170.865 43.4543ZM170.374 17.4043C166.112 17.4043 162.644 20.8666 162.644 25.1232C162.644 26.2267 162.882 27.3064 163.351 28.333L169.412 41.6042C169.739 42.3179 170.407 42.5576 170.92 42.5393C171.434 42.5228 172.084 42.2447 172.364 41.5127L177.585 27.8883C178.507 25.4782 178.198 22.8778 176.735 20.7513C175.275 18.6249 172.955 17.4043 170.374 17.4043Z" fill="#203156"/>
<path d="M170.374 30.4374C168.149 30.4374 166.339 28.6275 166.339 26.4022C166.339 24.1769 168.149 22.3652 170.374 22.3652C172.599 22.3652 174.411 24.1769 174.411 26.4022C174.411 28.6275 172.599 30.4374 170.374 30.4374ZM170.374 23.2802C168.654 23.2802 167.254 24.6802 167.254 26.4022C167.254 28.1224 168.654 29.5224 170.374 29.5224C172.096 29.5224 173.496 28.1224 173.496 26.4022C173.496 24.6802 172.096 23.2802 170.374 23.2802Z" fill="#203156"/>
<path d="M115.589 132.209C114.253 132.209 113.166 131.122 113.166 129.786C113.166 128.448 114.253 127.361 115.589 127.361C116.927 127.361 118.014 128.448 118.014 129.786C118.014 131.122 116.927 132.209 115.589 132.209ZM115.589 128.276C114.758 128.276 114.081 128.953 114.081 129.786C114.081 130.617 114.758 131.294 115.589 131.294C116.422 131.294 117.099 130.617 117.099 129.786C117.099 128.953 116.422 128.276 115.589 128.276Z" fill="#203156"/>
<path d="M149.325 130.585H122.765V129.67H148.41V93.1486H128.646V48.2568H169.109V49.1718H129.561V92.2336H149.325V130.585Z" fill="#203156"/>
<path d="M171.289 51.3512C169.835 51.3512 168.652 50.169 168.652 48.7142C168.652 47.2593 169.835 46.0771 171.289 46.0771C172.744 46.0771 173.928 47.2593 173.928 48.7142C173.928 50.169 172.744 51.3512 171.289 51.3512ZM171.289 46.9921C170.34 46.9921 169.567 47.7644 169.567 48.7142C169.567 49.664 170.34 50.4362 171.289 50.4362C172.239 50.4362 173.013 49.664 173.013 48.7142C173.013 47.7644 172.239 46.9921 171.289 46.9921Z" fill="#203156"/>
<path d="M273.182 57.6258H211.2V19.2031H273.182V57.6258ZM212.115 56.7108H272.267V20.1181H212.115V56.7108Z" fill="#203156"/>
<path d="M309.503 66.1104H300.576V65.1954H308.588V54.2209C308.588 50.808 305.812 48.0318 302.401 48.0318H295.253L290.771 38.9056C289.593 36.501 287.1 34.9492 284.421 34.9492H272.175V34.0342H284.421C287.446 34.0342 290.261 35.7873 291.591 38.503L295.82 47.1168H302.397C306.313 47.1168 309.499 50.3029 309.499 54.2209V66.1104H309.503Z" fill="#203156"/>
<path d="M289.771 65.1973H245.152V66.1123H289.771V65.1973Z" fill="#203156"/>
<path d="M234.261 66.1102H218.673V57.167H219.588V65.1952H234.261V66.1102Z" fill="#203156"/>
<path d="M286.664 61.5766H276.586V38.5771H283.156C284.839 38.5771 286.378 39.4995 287.172 40.9854L290.955 48.0712V57.2834L286.664 61.5766ZM277.501 60.6616H286.285L290.04 56.9046V48.2999L286.365 41.4155C285.732 40.2278 284.503 39.4903 283.157 39.4903H277.503V60.6616H277.501Z" fill="#203156"/>
<path d="M290.498 49.6191H277.044V50.5341H290.498V49.6191Z" fill="#203156"/>
<path d="M282.933 53.332H279.915V54.247H282.933V53.332Z" fill="#203156"/>
<path d="M307.309 55.7568C303.995 55.7568 301.298 53.063 301.298 49.7507C301.298 48.929 301.459 48.1367 301.774 47.3955L302.615 47.7542C302.348 48.38 302.213 49.0517 302.213 49.7507C302.213 52.5579 304.499 54.8418 307.309 54.8418C307.851 54.8418 308.389 54.7558 308.903 54.5856L309.189 55.4548C308.581 55.6561 307.95 55.7568 307.309 55.7568Z" fill="#203156"/>
<path d="M294.984 71.8154C291.586 71.8154 288.822 69.0521 288.822 65.6538C288.822 62.2555 291.586 59.4922 294.984 59.4922C298.382 59.4922 301.145 62.2555 301.145 65.6538C301.145 69.0521 298.382 71.8154 294.984 71.8154ZM294.984 60.4072C292.091 60.4072 289.737 62.7606 289.737 65.6538C289.737 68.547 292.091 70.9004 294.984 70.9004C297.877 70.9004 300.23 68.547 300.23 65.6538C300.23 62.7606 297.877 60.4072 294.984 60.4072Z" fill="#203156"/>
<path d="M239.785 71.8154C236.386 71.8154 233.623 69.0521 233.623 65.6538C233.623 62.2555 236.386 59.4922 239.785 59.4922C243.183 59.4922 245.946 62.2555 245.946 65.6538C245.946 69.0521 243.183 71.8154 239.785 71.8154ZM239.785 60.4072C236.891 60.4072 234.538 62.7606 234.538 65.6538C234.538 68.547 236.891 70.9004 239.785 70.9004C242.678 70.9004 245.031 68.547 245.031 65.6538C245.031 62.7606 242.678 60.4072 239.785 60.4072Z" fill="#02162D"/>
<path d="M260.075 43.5538H225.907V34.0342H260.075V43.5538ZM226.822 42.6388H259.16V34.9492H226.822V42.6388Z" fill="#203156"/>
<path d="M252.312 49.6191H231.938V50.5341H252.312V49.6191Z" fill="#203156"/>
<path d="M322.559 70.9014H208.633V71.8164H322.559V70.9014Z" fill="#203156"/>
<path d="M239.786 68.6599C238.128 68.6599 236.779 67.3112 236.779 65.6532C236.779 63.9952 238.128 62.6465 239.786 62.6465C241.444 62.6465 242.793 63.9952 242.793 65.6532C242.793 67.3112 241.444 68.6599 239.786 68.6599ZM239.786 63.5615C238.633 63.5615 237.694 64.5003 237.694 65.6532C237.694 66.8061 238.633 67.7449 239.786 67.7449C240.939 67.7449 241.878 66.8061 241.878 65.6532C241.878 64.5003 240.939 63.5615 239.786 63.5615Z" fill="#203156"/>
<path d="M294.984 68.6599C293.326 68.6599 291.978 67.3112 291.978 65.6532C291.978 63.9952 293.326 62.6465 294.984 62.6465C296.64 62.6465 297.989 63.9952 297.989 65.6532C297.989 67.3112 296.64 68.6599 294.984 68.6599ZM294.984 63.5615C293.831 63.5615 292.893 64.5003 292.893 65.6532C292.893 66.8061 293.831 67.7449 294.984 67.7449C296.137 67.7449 297.074 66.8061 297.074 65.6532C297.074 64.5003 296.137 63.5615 294.984 63.5615Z" fill="#203156"/>
<path d="M93.7849 138.209H0.959961V139.124H93.7849V138.209Z" fill="#203156"/>
<path d="M76.1458 138.668H75.2308V117.359H44.4648V120.267H43.5498V116.444H76.1458V138.668Z" fill="#203156"/>
<path d="M46.6204 138.668H45.7054V120.725H14.9394V138.668H14.0244V119.81H46.6204V138.668Z" fill="#203156"/>
<path d="M37.3671 120.266H36.4521V97.9287H69.0499V116.9H68.1349V98.8437H37.3671V120.266Z" fill="#203156"/>
<path d="M58.4518 104.628H46.791V102.172H58.4518V104.628ZM47.706 103.713H57.5368V103.087H47.706V103.713V103.713Z" fill="#203156"/>
<path d="M66.4684 123.452H54.8076V120.76H66.4684V123.452ZM55.7226 122.537H65.5534V121.675H55.7226V122.537Z" fill="#203156"/>
<path d="M36.1539 126.619H24.4932V123.998H36.1539V126.619V126.619ZM25.4082 125.704H35.2389V124.913H25.4082V125.704V125.704Z" fill="#203156"/>
<path d="M152.942 168.642L147.143 174.441L147.79 175.088L153.589 169.289L152.942 168.642Z" fill="#203156"/>
<path d="M239.786 66.1329C239.523 66.1329 239.307 65.9169 239.307 65.6534C239.307 65.3899 239.523 65.1758 239.786 65.1758C240.05 65.1758 240.264 65.3899 240.264 65.6534C240.264 65.9169 240.05 66.1329 239.786 66.1329ZM239.786 65.3588C239.623 65.3588 239.49 65.4905 239.49 65.6534C239.49 65.8163 239.623 65.9499 239.786 65.9499C239.949 65.9499 240.081 65.8163 240.081 65.6534C240.081 65.4905 239.949 65.3588 239.786 65.3588Z" fill="#203156"/>
<path d="M294.985 66.1329C294.722 66.1329 294.506 65.9169 294.506 65.6534C294.506 65.3899 294.722 65.1758 294.985 65.1758C295.249 65.1758 295.463 65.3899 295.463 65.6534C295.463 65.9169 295.249 66.1329 294.985 66.1329ZM294.985 65.3588C294.822 65.3588 294.689 65.4905 294.689 65.6534C294.689 65.8163 294.822 65.9499 294.985 65.9499C295.148 65.9499 295.28 65.8163 295.28 65.6534C295.28 65.4905 295.148 65.3588 294.985 65.3588Z" fill="#203156"/>
</svg>
